Arciform.ufo
<glyph name="exclam" format="2">
  <advance width="160"/>
  <unicode hex="0021"/>
  <outline>
    <contour>
      <point x="81" y="700" type="curve" smooth="yes"/>
      <point x="108" y="700"/>
      <point x="130" y="678"/>
      <point x="130" y="650" type="curve" smooth="yes"/>
      <point x="130" y="205" type="line" smooth="yes"/>
      <point x="130" y="178"/>
      <point x="108" y="156"/>
      <point x="81" y="156" type="curve" smooth="yes"/>
      <point x="53" y="156"/>
      <point x="31" y="178"/>
      <point x="31" y="205" type="curve" smooth="yes"/>
      <point x="31" y="650" type="line" smooth="yes"/>
      <point x="31" y="678"/>
      <point x="53" y="700"/>
    </contour>
    <contour>
      <point x="81" y="98" type="curve" smooth="yes"/>
      <point x="94" y="98"/>
      <point x="107" y="93"/>
      <point x="116" y="84" type="curve" smooth="yes"/>
      <point x="125" y="75"/>
      <point x="130" y="62"/>
      <point x="130" y="49" type="curve" smooth="yes"/>
      <point x="130" y="36"/>
      <point x="125" y="23"/>
      <point x="116" y="14" type="curve" smooth="yes"/>
      <point x="107" y="5"/>
      <point x="94" y="-1"/>
      <point x="81" y="-1" type="curve" smooth="yes"/>
      <point x="68" y="-1"/>
      <point x="55" y="5"/>
      <point x="46" y="14" type="curve" smooth="yes"/>
      <point x="37" y="23"/>
      <point x="31" y="36"/>
      <point x="31" y="49" type="curve" smooth="yes"/>
      <point x="31" y="62"/>
      <point x="37" y="75"/>
      <point x="46" y="84" type="curve" smooth="yes"/>
      <point x="55" y="93"/>
      <point x="68" y="98"/>
    </contour>
  </outline>
</glyph>
<glyph name="quotedbl" format="2">
  <advance width="283"/>
  <unicode hex="0022"/>
  <outline>
    <contour>
      <point x="60" y="495" type="curve" smooth="yes"/>
      <point x="33" y="495"/>
      <point x="15" y="517"/>
      <point x="15" y="545" type="curve" smooth="yes"/>
      <point x="15" y="655" type="line" smooth="yes"/>
      <point x="15" y="682"/>
      <point x="34" y="705"/>
      <point x="60" y="705" type="curve" smooth="yes"/>
      <point x="88" y="704"/>
      <point x="106" y="681"/>
      <point x="106" y="654" type="curve" smooth="yes"/>
      <point x="106" y="544" type="line" smooth="yes"/>
      <point x="106" y="516"/>
      <point x="88" y="495"/>
    </contour>
    <contour>
      <point x="215" y="495" type="curve" smooth="yes"/>
      <point x="188" y="495"/>
      <point x="170" y="517"/>
      <point x="170" y="545" type="curve" smooth="yes"/>
      <point x="170" y="655" type="line" smooth="yes"/>
      <point x="170" y="682"/>
      <point x="189" y="705"/>
      <point x="215" y="705" type="curve" smooth="yes"/>
      <point x="243" y="704"/>
      <point x="261" y="681"/>
      <point x="261" y="654" type="curve" smooth="yes"/>
      <point x="261" y="544" type="line" smooth="yes"/>
      <point x="261" y="516"/>
      <point x="243" y="495"/>
    </contour>
  </outline>
</glyph>
<glyph name="numbersign" format="2">
  <advance width="1020"/>
  <unicode hex="0023"/>
  <outline>
    <contour>
      <point x="940" y="519" type="curve"/>
      <point x="968" y="519"/>
      <point x="990" y="497"/>
      <point x="990" y="469" type="curve" smooth="yes"/>
      <point x="990" y="441"/>
      <point x="968" y="419"/>
      <point x="940" y="419" type="curve" smooth="yes"/>
      <point x="759" y="419" type="line"/>
      <point x="673" y="282" type="line"/>
      <point x="791" y="282" type="line"/>
      <point x="791" y="282"/>
      <point x="791" y="282"/>
      <point x="791" y="282" type="curve"/>
      <point x="818" y="282"/>
      <point x="841" y="260"/>
      <point x="841" y="232" type="curve" smooth="yes"/>
      <point x="841" y="205"/>
      <point x="818" y="182"/>
      <point x="791" y="182" type="curve" smooth="yes"/>
      <point x="610" y="182" type="line"/>
      <point x="509" y="23" type="line" smooth="yes"/>
      <point x="499" y="8"/>
      <point x="483" y="0"/>
      <point x="467" y="0" type="curve" smooth="yes"/>
      <point x="457" y="0"/>
      <point x="448" y="2"/>
      <point x="440" y="7" type="curve" smooth="yes"/>
      <point x="417" y="22"/>
      <point x="410" y="53"/>
      <point x="424" y="76" type="curve" smooth="yes"/>
      <point x="491" y="182" type="line"/>
      <point x="329" y="182" type="line"/>
      <point x="229" y="23" type="line" smooth="yes"/>
      <point x="219" y="8"/>
      <point x="203" y="0"/>
      <point x="186" y="0" type="curve" smooth="yes"/>
      <point x="177" y="0"/>
      <point x="168" y="2"/>
      <point x="160" y="7" type="curve" smooth="yes"/>
      <point x="136" y="22"/>
      <point x="130" y="53"/>
      <point x="144" y="76" type="curve" smooth="yes"/>
      <point x="211" y="182" type="line"/>
      <point x="79" y="182" type="line"/>
      <point x="79" y="182"/>
      <point x="79" y="182"/>
      <point x="79" y="182" type="curve"/>
      <point x="51" y="182"/>
      <point x="29" y="204"/>
      <point x="29" y="232" type="curve" smooth="yes"/>
      <point x="29" y="259"/>
      <point x="51" y="282"/>
      <point x="79" y="282" type="curve" smooth="yes"/>
      <point x="274" y="282" type="line"/>
      <point x="361" y="419" type="line"/>
      <point x="228" y="419" type="line"/>
      <point x="228" y="419"/>
      <point x="228" y="419"/>
      <point x="228" y="419" type="curve"/>
      <point x="201" y="419"/>
      <point x="178" y="441"/>
      <point x="178" y="469" type="curve" smooth="yes"/>
      <point x="178" y="496"/>
      <point x="201" y="519"/>
      <point x="228" y="519" type="curve" smooth="yes"/>
      <point x="424" y="519" type="line"/>
      <point x="525" y="678" type="line" smooth="yes"/>
      <point x="539" y="701"/>
      <point x="570" y="708"/>
      <point x="594" y="693" type="curve" smooth="yes"/>
      <point x="617" y="679"/>
      <point x="624" y="648"/>
      <point x="609" y="624" type="curve" smooth="yes"/>
      <point x="542" y="519" type="line"/>
      <point x="704" y="519" type="line"/>
      <point x="805" y="678" type="line" smooth="yes"/>
      <point x="819" y="701"/>
      <point x="850" y="708"/>
      <point x="874" y="693" type="curve" smooth="yes"/>
      <point x="897" y="679"/>
      <point x="904" y="648"/>
      <point x="889" y="624" type="curve" smooth="yes"/>
      <point x="822" y="519" type="line"/>
      <point x="940" y="519" type="line"/>
      <point x="940" y="519"/>
      <point x="940" y="519"/>
    </contour>
    <contour>
      <point x="641" y="419" type="line"/>
      <point x="479" y="419" type="line"/>
      <point x="393" y="282" type="line"/>
      <point x="554" y="282" type="line"/>
    </contour>
  </outline>
</glyph>
<glyph name="dollar" format="2">
  <advance width="427"/>
  <unicode hex="0024"/>
  <outline>
    <contour>
      <point x="261" y="393" type="line"/>
      <point x="349" y="371"/>
      <point x="413" y="292"/>
      <point x="413" y="199" type="curve" smooth="yes"/>
      <point x="413" y="105"/>
      <point x="349" y="26"/>
      <point x="261" y="4" type="curve"/>
      <point x="261" y="-42" type="line" smooth="yes"/>
      <point x="261" y="-70"/>
      <point x="239" y="-92"/>
      <point x="212" y="-92" type="curve" smooth="yes"/>
      <point x="184" y="-92"/>
      <point x="162" y="-70"/>
      <point x="162" y="-42" type="curve" smooth="yes"/>
      <point x="162" y="5" type="line"/>
      <point x="77" y="27"/>
      <point x="13" y="106"/>
      <point x="13" y="199" type="curve" smooth="yes"/>
      <point x="13" y="226"/>
      <point x="35" y="249"/>
      <point x="63" y="249" type="curve" smooth="yes"/>
      <point x="91" y="249"/>
      <point x="113" y="226"/>
      <point x="113" y="199" type="curve" smooth="yes"/>
      <point x="113" y="162"/>
      <point x="133" y="130"/>
      <point x="162" y="112" type="curve"/>
      <point x="162" y="306" type="line"/>
      <point x="77" y="328"/>
      <point x="13" y="406"/>
      <point x="13" y="499" type="curve" smooth="yes"/>
      <point x="13" y="591"/>
      <point x="77" y="670"/>
      <point x="162" y="692" type="curve"/>
      <point x="162" y="732" type="line" smooth="yes"/>
      <point x="162" y="759"/>
      <point x="184" y="781"/>
      <point x="212" y="781" type="curve" smooth="yes"/>
      <point x="239" y="781"/>
      <point x="261" y="759"/>
      <point x="261" y="732" type="curve" smooth="yes"/>
      <point x="261" y="693" type="line"/>
      <point x="349" y="671"/>
      <point x="413" y="592"/>
      <point x="413" y="499" type="curve" smooth="yes"/>
      <point x="413" y="471"/>
      <point x="391" y="449"/>
      <point x="363" y="449" type="curve" smooth="yes"/>
      <point x="336" y="449"/>
      <point x="313" y="471"/>
      <point x="313" y="499" type="curve" smooth="yes"/>
      <point x="313" y="537"/>
      <point x="292" y="570"/>
      <point x="261" y="587" type="curve"/>
    </contour>
    <contour>
      <point x="113" y="499" type="curve" smooth="yes"/>
      <point x="113" y="463"/>
      <point x="133" y="431"/>
      <point x="162" y="413" type="curve"/>
      <point x="162" y="585" type="line"/>
      <point x="133" y="567"/>
      <point x="113" y="535"/>
    </contour>
    <contour>
      <point x="261" y="110" type="line"/>
      <point x="292" y="128"/>
      <point x="313" y="161"/>
      <point x="313" y="199" type="curve" smooth="yes"/>
      <point x="313" y="237"/>
      <point x="292" y="270"/>
      <point x="261" y="287" type="curve"/>
    </contour>
  </outline>
</glyph>
<glyph name="ampersand" format="2">
  <advance width="641"/>
  <unicode hex="0026"/>
  <outline>
    <contour>
      <point x="612" y="77" type="line" smooth="yes"/>
      <point x="620" y="67"/>
      <point x="620" y="51"/>
      <point x="620" y="43" type="curve" smooth="yes"/>
      <point x="620" y="16"/>
      <point x="602" y="-1"/>
      <point x="576" y="-1" type="curve" smooth="yes"/>
      <point x="568" y="-1"/>
      <point x="559" y="8"/>
      <point x="550" y="16" type="curve" smooth="yes"/>
      <point x="463" y="102" type="line"/>
      <point x="422" y="43"/>
      <point x="351" y="-1"/>
      <point x="265" y="-1" type="curve"/>
      <point x="265" y="-1" type="line"/>
      <point x="265" y="-1"/>
      <point x="265" y="-1"/>
      <point x="265" y="-1" type="curve"/>
      <point x="265" y="-1"/>
      <point x="265" y="-1"/>
      <point x="265" y="-1" type="curve"/>
      <point x="265" y="-1" type="line"/>
      <point x="135" y="-1"/>
      <point x="23" y="102"/>
      <point x="23" y="232" type="curve" smooth="yes"/>
      <point x="23" y="327"/>
      <point x="83" y="406"/>
      <point x="162" y="449" type="curve"/>
      <point x="135" y="475"/>
      <point x="126" y="510"/>
      <point x="126" y="544" type="curve"/>
      <point x="126" y="544" type="line"/>
      <point x="126" y="544" type="line"/>
      <point x="126" y="552"/>
      <point x="126" y="552"/>
      <point x="126" y="561" type="curve" smooth="yes"/>
      <point x="135" y="640"/>
      <point x="197" y="699"/>
      <point x="274" y="699" type="curve"/>
      <point x="274" y="699" type="line"/>
      <point x="274" y="699" type="line"/>
      <point x="351" y="699"/>
      <point x="422" y="640"/>
      <point x="430" y="561" type="curve" smooth="yes"/>
      <point x="430" y="552"/>
      <point x="430" y="552"/>
      <point x="430" y="544" type="curve"/>
      <point x="430" y="544" type="line"/>
      <point x="430" y="544" type="line"/>
      <point x="422" y="475"/>
      <point x="368" y="414"/>
      <point x="309" y="397" type="curve"/>
      <point x="412" y="285" type="line"/>
      <point x="412" y="310" type="line"/>
      <point x="412" y="310" type="line"/>
      <point x="412" y="310"/>
      <point x="412" y="319"/>
      <point x="412" y="319" type="curve" smooth="yes"/>
      <point x="412" y="344"/>
      <point x="430" y="363"/>
      <point x="455" y="363" type="curve" smooth="yes"/>
      <point x="481" y="363"/>
      <point x="507" y="344"/>
      <point x="507" y="319" type="curve" smooth="yes"/>
      <point x="507" y="319"/>
      <point x="507" y="310"/>
      <point x="507" y="310" type="curve"/>
      <point x="507" y="310" type="line"/>
      <point x="507" y="232" type="line" smooth="yes"/>
      <point x="507" y="215"/>
      <point x="507" y="206"/>
      <point x="499" y="189" type="curve"/>
    </contour>
    <contour>
      <point x="204" y="552" type="curve" smooth="yes"/>
      <point x="204" y="552"/>
      <point x="204" y="544"/>
      <point x="204" y="544" type="curve" smooth="yes"/>
      <point x="204" y="526"/>
      <point x="213" y="510"/>
      <point x="221" y="493" type="curve"/>
      <point x="248" y="466" type="line"/>
      <point x="256" y="466"/>
      <point x="256" y="466"/>
      <point x="265" y="466" type="curve" smooth="yes"/>
      <point x="274" y="466" type="line"/>
      <point x="316" y="475"/>
      <point x="351" y="501"/>
      <point x="351" y="544" type="curve" smooth="yes"/>
      <point x="351" y="552"/>
      <point x="343" y="561"/>
      <point x="343" y="569" type="curve" smooth="yes"/>
      <point x="334" y="596"/>
      <point x="309" y="622"/>
      <point x="274" y="622" type="curve" smooth="yes"/>
      <point x="239" y="622"/>
      <point x="204" y="588"/>
    </contour>
    <contour>
      <point x="265" y="85" type="curve"/>
      <point x="325" y="94"/>
      <point x="378" y="129"/>
      <point x="404" y="180" type="curve"/>
      <point x="221" y="371" type="line"/>
      <point x="162" y="354"/>
      <point x="118" y="301"/>
      <point x="118" y="232" type="curve" smooth="yes"/>
      <point x="118" y="155"/>
      <point x="188" y="85"/>
    </contour>
  </outline>
</glyph>
<glyph name="quotesingle" format="2">
  <advance width="134"/>
  <unicode hex="0027"/>
  <outline>
    <contour>
      <point x="64" y="495" type="curve" smooth="yes"/>
      <point x="37" y="495"/>
      <point x="19" y="517"/>
      <point x="19" y="545" type="curve" smooth="yes"/>
      <point x="19" y="655" type="line" smooth="yes"/>
      <point x="19" y="682"/>
      <point x="38" y="705"/>
      <point x="64" y="705" type="curve" smooth="yes"/>
      <point x="92" y="704"/>
      <point x="110" y="681"/>
      <point x="110" y="654" type="curve" smooth="yes"/>
      <point x="110" y="544" type="line" smooth="yes"/>
      <point x="110" y="516"/>
      <point x="92" y="495"/>
    </contour>
  </outline>
</glyph>
<glyph name="parenleft" format="2">
  <advance width="311"/>
  <unicode hex="0028"/>
  <outline>
    <contour>
      <point x="233" y="99" type="curve" smooth="yes"/>
      <point x="261" y="99"/>
      <point x="283" y="76"/>
      <point x="283" y="49" type="curve" smooth="yes"/>
      <point x="283" y="21"/>
      <point x="261" y="-1"/>
      <point x="233" y="-1" type="curve" smooth="yes"/>
      <point x="122" y="-1"/>
      <point x="32" y="89"/>
      <point x="31" y="200" type="curve" smooth="yes"/>
      <point x="31" y="200"/>
      <point x="31" y="201"/>
      <point x="31" y="201" type="curve"/>
      <point x="31" y="334" type="line"/>
      <point x="31" y="334"/>
      <point x="31" y="334"/>
      <point x="31" y="334" type="curve"/>
      <point x="31" y="500" type="line" smooth="yes"/>
      <point x="31" y="501"/>
      <point x="31" y="501"/>
      <point x="31" y="501" type="curve" smooth="yes"/>
      <point x="32" y="612"/>
      <point x="122" y="702"/>
      <point x="233" y="702" type="curve"/>
      <point x="233" y="702" type="line"/>
      <point x="234" y="702"/>
      <point x="234" y="702"/>
      <point x="235" y="702" type="curve" smooth="yes"/>
      <point x="262" y="702"/>
      <point x="285" y="680"/>
      <point x="285" y="652" type="curve" smooth="yes"/>
      <point x="285" y="623"/>
      <point x="258" y="598"/>
      <point x="229" y="603" type="curve"/>
      <point x="174" y="600"/>
      <point x="130" y="555"/>
      <point x="130" y="499" type="curve" smooth="yes"/>
      <point x="130" y="452" type="line"/>
      <point x="130" y="452"/>
      <point x="130" y="452"/>
      <point x="130" y="452" type="curve"/>
      <point x="130" y="202" type="line" smooth="yes"/>
      <point x="131" y="151"/>
      <point x="175" y="93"/>
    </contour>
  </outline>
</glyph>
<glyph name="parenright" format="2">
  <advance width="317"/>
  <unicode hex="0029"/>
  <outline>
    <contour>
      <point x="83" y="99" type="curve" smooth="yes"/>
      <point x="141" y="93"/>
      <point x="185" y="151"/>
      <point x="186" y="202" type="curve" smooth="yes"/>
      <point x="186" y="452" type="line"/>
      <point x="186" y="452"/>
      <point x="186" y="452"/>
      <point x="186" y="452" type="curve"/>
      <point x="186" y="499" type="line" smooth="yes"/>
      <point x="186" y="555"/>
      <point x="142" y="600"/>
      <point x="87" y="603" type="curve"/>
      <point x="58" y="598"/>
      <point x="31" y="623"/>
      <point x="31" y="652" type="curve" smooth="yes"/>
      <point x="31" y="680"/>
      <point x="54" y="702"/>
      <point x="81" y="702" type="curve" smooth="yes"/>
      <point x="82" y="702"/>
      <point x="82" y="702"/>
      <point x="83" y="702" type="curve"/>
      <point x="83" y="702" type="line"/>
      <point x="194" y="702"/>
      <point x="284" y="612"/>
      <point x="285" y="501" type="curve" smooth="yes"/>
      <point x="285" y="501"/>
      <point x="285" y="501"/>
      <point x="285" y="500" type="curve" smooth="yes"/>
      <point x="285" y="334" type="line"/>
      <point x="285" y="334"/>
      <point x="285" y="334"/>
      <point x="285" y="334" type="curve"/>
      <point x="285" y="201" type="line"/>
      <point x="285" y="201"/>
      <point x="285" y="200"/>
      <point x="285" y="200" type="curve" smooth="yes"/>
      <point x="284" y="89"/>
      <point x="194" y="-1"/>
      <point x="83" y="-1" type="curve" smooth="yes"/>
      <point x="55" y="-1"/>
      <point x="33" y="21"/>
      <point x="33" y="49" type="curve" smooth="yes"/>
      <point x="33" y="76"/>
      <point x="55" y="99"/>
    </contour>
  </outline>
</glyph>
<glyph name="asterisk" format="2">
  <advance width="231"/>
  <unicode hex="002A"/>
  <outline>
    <contour>
      <point x="203" y="575" type="line" smooth="yes"/>
      <point x="206" y="573"/>
      <point x="209" y="569"/>
      <point x="210" y="565" type="curve" smooth="yes"/>
      <point x="210" y="562"/>
      <point x="210" y="560"/>
      <point x="209" y="558" type="curve" smooth="yes"/>
      <point x="206" y="552"/>
      <point x="198" y="548"/>
      <point x="191" y="551" type="curve" smooth="yes"/>
      <point x="136" y="576" type="line"/>
      <point x="158" y="519" type="line" smooth="yes"/>
      <point x="159" y="515"/>
      <point x="159" y="510"/>
      <point x="156" y="507" type="curve" smooth="yes"/>
      <point x="155" y="505"/>
      <point x="153" y="503"/>
      <point x="151" y="502" type="curve" smooth="yes"/>
      <point x="143" y="500"/>
      <point x="136" y="503"/>
      <point x="134" y="509" type="curve" smooth="yes"/>
      <point x="112" y="567" type="line"/>
      <point x="87" y="510" type="line" smooth="yes"/>
      <point x="85" y="507"/>
      <point x="82" y="504"/>
      <point x="77" y="503" type="curve" smooth="yes"/>
      <point x="75" y="503"/>
      <point x="72" y="503"/>
      <point x="70" y="504" type="curve" smooth="yes"/>
      <point x="64" y="508"/>
      <point x="61" y="515"/>
      <point x="64" y="522" type="curve" smooth="yes"/>
      <point x="88" y="577" type="line"/>
      <point x="32" y="555" type="line" smooth="yes"/>
      <point x="24" y="553"/>
      <point x="17" y="555"/>
      <point x="15" y="562" type="curve" smooth="yes"/>
      <point x="12" y="570"/>
      <point x="16" y="577"/>
      <point x="22" y="579" type="curve" smooth="yes"/>
      <point x="79" y="601" type="line"/>
      <point x="23" y="626" type="line" smooth="yes"/>
      <point x="17" y="629"/>
      <point x="14" y="636"/>
      <point x="17" y="643" type="curve" smooth="yes"/>
      <point x="20" y="649"/>
      <point x="27" y="652"/>
      <point x="34" y="649" type="curve" smooth="yes"/>
      <point x="89" y="625" type="line"/>
      <point x="67" y="681" type="line" smooth="yes"/>
      <point x="65" y="689"/>
      <point x="68" y="696"/>
      <point x="75" y="698" type="curve" smooth="yes"/>
      <point x="82" y="701"/>
      <point x="89" y="698"/>
      <point x="92" y="691" type="curve" smooth="yes"/>
      <point x="113" y="634" type="line"/>
      <point x="138" y="690" type="line" smooth="yes"/>
      <point x="141" y="696"/>
      <point x="149" y="699"/>
      <point x="156" y="696" type="curve" smooth="yes"/>
      <point x="161" y="693"/>
      <point x="165" y="686"/>
      <point x="162" y="679" type="curve" smooth="yes"/>
      <point x="137" y="624" type="line"/>
      <point x="194" y="646" type="line" smooth="yes"/>
      <point x="199" y="647"/>
      <point x="204" y="647"/>
      <point x="206" y="644" type="curve" smooth="yes"/>
      <point x="208" y="643"/>
      <point x="210" y="641"/>
      <point x="211" y="638" type="curve" smooth="yes"/>
      <point x="213" y="631"/>
      <point x="210" y="624"/>
      <point x="204" y="621" type="curve" smooth="yes"/>
      <point x="146" y="600" type="line"/>
    </contour>
  </outline>
</glyph>
<glyph name="plus" format="2">
  <advance width="542"/>
  <unicode hex="002B"/>
  <outline>
    <contour>
      <point x="272" y="483" type="curve" smooth="yes"/>
      <point x="300" y="483"/>
      <point x="322" y="461"/>
      <point x="322" y="433" type="curve" smooth="yes"/>
      <point x="322" y="292" type="line"/>
      <point x="461" y="292" type="line" smooth="yes"/>
      <point x="488" y="292"/>
      <point x="510" y="270"/>
      <point x="510" y="242" type="curve" smooth="yes"/>
      <point x="510" y="215"/>
      <point x="488" y="193"/>
      <point x="461" y="193" type="curve" smooth="yes"/>
      <point x="322" y="193" type="line"/>
      <point x="322" y="55" type="line" smooth="yes"/>
      <point x="322" y="28"/>
      <point x="300" y="6"/>
      <point x="272" y="6" type="curve" smooth="yes"/>
      <point x="245" y="6"/>
      <point x="223" y="28"/>
      <point x="223" y="55" type="curve" smooth="yes"/>
      <point x="223" y="193" type="line"/>
      <point x="83" y="193" type="line" smooth="yes"/>
      <point x="55" y="193"/>
      <point x="33" y="215"/>
      <point x="33" y="242" type="curve" smooth="yes"/>
      <point x="33" y="270"/>
      <point x="55" y="292"/>
      <point x="83" y="292" type="curve" smooth="yes"/>
      <point x="223" y="292" type="line"/>
      <point x="223" y="433" type="line" smooth="yes"/>
      <point x="223" y="461"/>
      <point x="245" y="483"/>
    </contour>
  </outline>
</glyph>
<glyph name="comma" format="2">
  <advance width="229"/>
  <unicode hex="002C"/>
  <outline>
    <contour>
      <point x="31" y="-58" type="curve" smooth="yes"/>
      <point x="11" y="-39"/>
      <point x="14" y="-11"/>
      <point x="34" y="9" type="curve" smooth="yes"/>
      <point x="112" y="87" type="line" smooth="yes"/>
      <point x="131" y="106"/>
      <point x="160" y="109"/>
      <point x="179" y="90" type="curve" smooth="yes"/>
      <point x="198" y="70"/>
      <point x="195" y="41"/>
      <point x="176" y="22" type="curve" smooth="yes"/>
      <point x="98" y="-56" type="line" smooth="yes"/>
      <point x="78" y="-76"/>
      <point x="50" y="-78"/>
    </contour>
  </outline>
</glyph>
<glyph name="slash" format="2">
  <advance width="503"/>
  <unicode hex="002F"/>
  <outline>
    <contour>
      <point x="40" y="5" type="curve" smooth="yes"/>
      <point x="16" y="19"/>
      <point x="9" y="50"/>
      <point x="23" y="73" type="curve" smooth="yes"/>
      <point x="388" y="673" type="line" smooth="yes"/>
      <point x="402" y="697"/>
      <point x="433" y="704"/>
      <point x="456" y="690" type="curve" smooth="yes"/>
      <point x="480" y="676"/>
      <point x="488" y="645"/>
      <point x="473" y="621" type="curve" smooth="yes"/>
      <point x="108" y="21" type="line" smooth="yes"/>
      <point x="89" y="-3"/>
      <point x="63" y="-9"/>
    </contour>
  </outline>
</glyph>
<glyph name="zero" format="2">
  <advance width="465"/>
  <unicode hex="0030"/>
  <outline>
    <contour>
      <point x="434" y="365" type="line"/>
      <point x="434" y="365"/>
      <point x="434" y="365"/>
      <point x="434" y="365" type="curve"/>
      <point x="434" y="203" type="line" smooth="yes"/>
      <point x="434" y="202"/>
      <point x="434" y="202"/>
      <point x="434" y="202" type="curve" smooth="yes"/>
      <point x="433" y="91"/>
      <point x="342" y="1"/>
      <point x="231" y="1" type="curve" smooth="yes"/>
      <point x="120" y="1"/>
      <point x="30" y="91"/>
      <point x="29" y="202" type="curve" smooth="yes"/>
      <point x="29" y="202"/>
      <point x="29" y="202"/>
      <point x="29" y="203" type="curve" smooth="yes"/>
      <point x="29" y="335" type="line"/>
      <point x="29" y="335"/>
      <point x="29" y="335"/>
      <point x="29" y="335" type="curve"/>
      <point x="29" y="498" type="line"/>
      <point x="29" y="498"/>
      <point x="29" y="499"/>
      <point x="29" y="499" type="curve" smooth="yes"/>
      <point x="30" y="610"/>
      <point x="120" y="700"/>
      <point x="231" y="700" type="curve" smooth="yes"/>
      <point x="342" y="700"/>
      <point x="433" y="610"/>
      <point x="434" y="499" type="curve" smooth="yes"/>
      <point x="434" y="499"/>
      <point x="434" y="498"/>
      <point x="434" y="498" type="curve"/>
    </contour>
    <contour>
      <point x="231" y="100" type="curve" smooth="yes"/>
      <point x="289" y="100"/>
      <point x="335" y="146"/>
      <point x="335" y="204" type="curve" smooth="yes"/>
      <point x="335" y="335" type="line"/>
      <point x="335" y="335"/>
      <point x="335" y="335"/>
      <point x="335" y="335" type="curve"/>
      <point x="335" y="497" type="line" smooth="yes"/>
      <point x="335" y="554"/>
      <point x="289" y="601"/>
      <point x="231" y="601" type="curve" smooth="yes"/>
      <point x="174" y="601"/>
      <point x="128" y="554"/>
      <point x="128" y="497" type="curve" smooth="yes"/>
      <point x="128" y="365" type="line"/>
      <point x="128" y="365"/>
      <point x="128" y="365"/>
      <point x="128" y="365" type="curve"/>
      <point x="128" y="204" type="line" smooth="yes"/>
      <point x="128" y="146"/>
      <point x="174" y="100"/>
    </contour>
  </outline>
</glyph>
<glyph name="one" format="2">
  <advance width="193"/>
  <unicode hex="0031"/>
  <outline>
    <contour>
      <point x="4" y="651" type="curve" smooth="yes"/>
      <point x="4" y="679"/>
      <point x="26" y="700"/>
      <point x="54" y="700" type="curve" smooth="yes"/>
      <point x="110" y="700"/>
      <point x="111" y="700"/>
      <point x="113" y="700" type="curve" smooth="yes"/>
      <point x="136" y="700"/>
      <point x="153" y="674"/>
      <point x="154" y="655" type="curve" smooth="yes"/>
      <point x="154" y="49" type="line" smooth="yes"/>
      <point x="154" y="21"/>
      <point x="132" y="-1"/>
      <point x="105" y="-1" type="curve" smooth="yes"/>
      <point x="77" y="-1"/>
      <point x="55" y="21"/>
      <point x="55" y="49" type="curve" smooth="yes"/>
      <point x="55" y="602" type="line"/>
      <point x="26" y="602"/>
      <point x="4" y="624"/>
    </contour>
  </outline>
</glyph>
<glyph name="two" format="2">
  <advance width="467"/>
  <unicode hex="0032"/>
  <outline>
    <contour>
      <point x="393" y="97" type="line" smooth="yes"/>
      <point x="420" y="97"/>
      <point x="441" y="75"/>
      <point x="441" y="48" type="curve" smooth="yes"/>
      <point x="441" y="21"/>
      <point x="420" y="0"/>
      <point x="393" y="0" type="curve" smooth="yes"/>
      <point x="75" y="0" type="line" smooth="yes"/>
      <point x="48" y="0"/>
      <point x="27" y="21"/>
      <point x="27" y="48" type="curve" smooth="yes"/>
      <point x="27" y="62"/>
      <point x="32" y="70"/>
      <point x="40" y="82" type="curve" smooth="yes"/>
      <point x="332" y="453" type="line"/>
      <point x="375" y="546"/>
      <point x="275" y="641"/>
      <point x="183" y="589" type="curve" smooth="yes"/>
      <point x="153" y="571"/>
      <point x="133" y="538"/>
      <point x="133" y="502" type="curve" smooth="yes"/>
      <point x="133" y="475"/>
      <point x="111" y="453"/>
      <point x="83" y="453" type="curve" smooth="yes"/>
      <point x="56" y="453"/>
      <point x="33" y="475"/>
      <point x="33" y="502" type="curve" smooth="yes"/>
      <point x="33" y="556"/>
      <point x="56" y="605"/>
      <point x="91" y="640" type="curve"/>
      <point x="91" y="641" type="line"/>
      <point x="153" y="703"/>
      <point x="245" y="717"/>
      <point x="320" y="684" type="curve" smooth="yes"/>
      <point x="369" y="662"/>
      <point x="408" y="623"/>
      <point x="427" y="574" type="curve" smooth="yes"/>
      <point x="449" y="522"/>
      <point x="452" y="451"/>
      <point x="415" y="404" type="curve" smooth="yes"/>
      <point x="174" y="97" type="line"/>
    </contour>
  </outline>
</glyph>
<glyph name="three" format="2">
  <advance width="448"/>
  <unicode hex="0033"/>
  <outline>
    <contour>
      <point x="352" y="349" type="curve"/>
      <point x="394" y="313"/>
      <point x="422" y="259"/>
      <point x="422" y="195" type="curve" smooth="yes"/>
      <point x="422" y="90"/>
      <point x="330" y="-2"/>
      <point x="225" y="-2" type="curve" smooth="yes"/>
      <point x="119" y="-2"/>
      <point x="36" y="74"/>
      <point x="21" y="173" type="curve"/>
      <point x="21" y="202"/>
      <point x="36" y="223"/>
      <point x="65" y="230" type="curve"/>
      <point x="91" y="230"/>
      <point x="119" y="208"/>
      <point x="119" y="188" type="curve" smooth="yes"/>
      <point x="128" y="132"/>
      <point x="170" y="96"/>
      <point x="225" y="96" type="curve" smooth="yes"/>
      <point x="282" y="96"/>
      <point x="323" y="139"/>
      <point x="323" y="195" type="curve" smooth="yes"/>
      <point x="323" y="250"/>
      <point x="282" y="300"/>
      <point x="225" y="300" type="curve" smooth="yes"/>
      <point x="196" y="300"/>
      <point x="177" y="322"/>
      <point x="177" y="349" type="curve" smooth="yes"/>
      <point x="177" y="377"/>
      <point x="196" y="399"/>
      <point x="225" y="399" type="curve" smooth="yes"/>
      <point x="282" y="399"/>
      <point x="323" y="447"/>
      <point x="323" y="504" type="curve" smooth="yes"/>
      <point x="323" y="559"/>
      <point x="282" y="603"/>
      <point x="225" y="603" type="curve" smooth="yes"/>
      <point x="177" y="603"/>
      <point x="128" y="566"/>
      <point x="119" y="524" type="curve" smooth="yes"/>
      <point x="113" y="498"/>
      <point x="91" y="476"/>
      <point x="65" y="483" type="curve" smooth="yes"/>
      <point x="36" y="489"/>
      <point x="21" y="511"/>
      <point x="21" y="539" type="curve"/>
      <point x="43" y="637"/>
      <point x="128" y="700"/>
      <point x="225" y="700" type="curve" smooth="yes"/>
      <point x="330" y="700"/>
      <point x="422" y="616"/>
      <point x="422" y="504" type="curve" smooth="yes"/>
      <point x="422" y="440"/>
      <point x="394" y="384"/>
    </contour>
  </outline>
</glyph>
<glyph name="four" format="2">
  <advance width="544"/>
  <unicode hex="0034"/>
  <outline>
    <contour>
      <point x="392" y="0" type="curve" smooth="yes"/>
      <point x="364" y="0"/>
      <point x="342" y="23"/>
      <point x="342" y="50" type="curve" smooth="yes"/>
      <point x="342" y="152" type="line"/>
      <point x="66" y="152" type="line" smooth="yes"/>
      <point x="46" y="152"/>
      <point x="27" y="164"/>
      <point x="20" y="183" type="curve" smooth="yes"/>
      <point x="13" y="201"/>
      <point x="16" y="220"/>
      <point x="27" y="234" type="curve" smooth="yes"/>
      <point x="354" y="687" type="line"/>
      <point x="356" y="689" type="line" smooth="yes"/>
      <point x="371" y="704"/>
      <point x="392" y="708"/>
      <point x="411" y="700" type="curve" smooth="yes"/>
      <point x="430" y="693"/>
      <point x="442" y="674"/>
      <point x="442" y="654" type="curve" smooth="yes"/>
      <point x="442" y="252" type="line"/>
      <point x="477" y="252" type="line" smooth="yes"/>
      <point x="505" y="252"/>
      <point x="527" y="230"/>
      <point x="527" y="202" type="curve" smooth="yes"/>
      <point x="527" y="175"/>
      <point x="505" y="152"/>
      <point x="477" y="152" type="curve" smooth="yes"/>
      <point x="442" y="152" type="line"/>
      <point x="442" y="50" type="line" smooth="yes"/>
      <point x="442" y="23"/>
      <point x="420" y="0"/>
    </contour>
    <contour>
      <point x="105" y="172" type="curve"/>
      <point x="105" y="171" type="line"/>
      <point x="105" y="171"/>
      <point x="105" y="172"/>
    </contour>
    <contour>
      <point x="170" y="252" type="line"/>
      <point x="342" y="252" type="line"/>
      <point x="342" y="511" type="line"/>
    </contour>
  </outline>
</glyph>
<glyph name="five" format="2">
  <advance width="529"/>
  <unicode hex="0035"/>
  <outline>
    <contour>
      <point x="188" y="493" type="line"/>
      <point x="336" y="530"/>
      <point x="503" y="420"/>
      <point x="503" y="250" type="curve" smooth="yes"/>
      <point x="503" y="112"/>
      <point x="390" y="-1"/>
      <point x="252" y="-1" type="curve"/>
      <point x="252" y="-1" type="line"/>
      <point x="252" y="-1"/>
      <point x="252" y="-1"/>
      <point x="252" y="-1" type="curve"/>
      <point x="252" y="-1"/>
      <point x="252" y="-1"/>
      <point x="252" y="-1" type="curve"/>
      <point x="252" y="-1" type="line"/>
      <point x="155" y="-1"/>
      <point x="69" y="53"/>
      <point x="26" y="140" type="curve" smooth="yes"/>
      <point x="14" y="165"/>
      <point x="25" y="194"/>
      <point x="49" y="206" type="curve" smooth="yes"/>
      <point x="74" y="218"/>
      <point x="103" y="208"/>
      <point x="115" y="184" type="curve" smooth="yes"/>
      <point x="141" y="131"/>
      <point x="193" y="98"/>
      <point x="252" y="98" type="curve" smooth="yes"/>
      <point x="336" y="98"/>
      <point x="404" y="166"/>
      <point x="404" y="250" type="curve" smooth="yes"/>
      <point x="404" y="334"/>
      <point x="335" y="402"/>
      <point x="252" y="402" type="curve" smooth="yes"/>
      <point x="223" y="402"/>
      <point x="196" y="394"/>
      <point x="173" y="380" type="curve" smooth="yes"/>
      <point x="162" y="374"/>
      <point x="155" y="367"/>
      <point x="139" y="367" type="curve" smooth="yes"/>
      <point x="113" y="367"/>
      <point x="92" y="386"/>
      <point x="90" y="411" type="curve" smooth="yes"/>
      <point x="90" y="421"/>
      <point x="90" y="432"/>
      <point x="90" y="652" type="curve" smooth="yes"/>
      <point x="90" y="653"/>
      <point x="90" y="653"/>
      <point x="90" y="653" type="curve"/>
      <point x="90" y="653"/>
      <point x="90" y="653"/>
      <point x="90" y="653" type="curve"/>
      <point x="90" y="680"/>
      <point x="112" y="702"/>
      <point x="139" y="702" type="curve" smooth="yes"/>
      <point x="454" y="702" type="line" smooth="yes"/>
      <point x="481" y="702"/>
      <point x="504" y="680"/>
      <point x="504" y="653" type="curve" smooth="yes"/>
      <point x="504" y="626"/>
      <point x="481" y="603"/>
      <point x="454" y="603" type="curve" smooth="yes"/>
      <point x="188" y="603" type="line"/>
    </contour>
  </outline>
</glyph>
<glyph name="six" format="2">
  <advance width="540"/>
  <unicode hex="0036"/>
  <outline>
    <contour>
      <point x="326" y="491" type="curve" smooth="yes"/>
      <point x="458" y="461"/>
      <point x="543" y="327"/>
      <point x="512" y="194" type="curve" smooth="yes"/>
      <point x="482" y="61"/>
      <point x="348" y="-24"/>
      <point x="215" y="7" type="curve" smooth="yes"/>
      <point x="81" y="37"/>
      <point x="-3" y="171"/>
      <point x="28" y="305" type="curve" smooth="yes"/>
      <point x="36" y="343"/>
      <point x="61" y="376"/>
      <point x="254" y="679" type="curve" smooth="yes"/>
      <point x="271" y="702"/>
      <point x="301" y="707"/>
      <point x="323" y="691" type="curve" smooth="yes"/>
      <point x="345" y="675"/>
      <point x="350" y="645"/>
      <point x="335" y="622" type="curve" smooth="yes"/>
      <point x="254" y="495" type="line"/>
      <point x="278" y="498"/>
      <point x="300" y="497"/>
    </contour>
    <contour>
      <point x="237" y="102" type="curve" smooth="yes"/>
      <point x="317" y="84"/>
      <point x="398" y="134"/>
      <point x="417" y="216" type="curve" smooth="yes"/>
      <point x="435" y="297"/>
      <point x="384" y="377"/>
      <point x="304" y="396" type="curve" smooth="yes"/>
      <point x="222" y="414"/>
      <point x="142" y="364"/>
      <point x="123" y="283" type="curve" smooth="yes"/>
      <point x="105" y="201"/>
      <point x="155" y="121"/>
    </contour>
  </outline>
</glyph>
<glyph name="seven" format="2">
  <advance width="535"/>
  <unicode hex="0037"/>
  <outline>
    <contour>
      <point x="501" y="673" type="curve" smooth="yes"/>
      <point x="510" y="656"/>
      <point x="510" y="639"/>
      <point x="500" y="621" type="curve"/>
      <point x="500" y="621" type="line"/>
      <point x="114" y="28" type="line" smooth="yes"/>
      <point x="104" y="13"/>
      <point x="88" y="5"/>
      <point x="72" y="5" type="curve" smooth="yes"/>
      <point x="63" y="5"/>
      <point x="53" y="7"/>
      <point x="45" y="13" type="curve" smooth="yes"/>
      <point x="22" y="28"/>
      <point x="15" y="59"/>
      <point x="30" y="82" type="curve" smooth="yes"/>
      <point x="366" y="598" type="line"/>
      <point x="78" y="598" type="line" smooth="yes"/>
      <point x="50" y="598"/>
      <point x="28" y="620"/>
      <point x="28" y="648" type="curve" smooth="yes"/>
      <point x="28" y="676"/>
      <point x="50" y="698"/>
      <point x="78" y="698" type="curve" smooth="yes"/>
      <point x="458" y="698" type="line" smooth="yes"/>
      <point x="476" y="698"/>
      <point x="492" y="688"/>
    </contour>
  </outline>
</glyph>
<glyph name="eight" format="2">
  <advance width="438"/>
  <unicode hex="0038"/>
  <outline>
    <contour>
      <point x="422" y="506" type="curve" smooth="yes"/>
      <point x="422" y="442"/>
      <point x="394" y="386"/>
      <point x="352" y="351" type="curve"/>
      <point x="394" y="315"/>
      <point x="422" y="261"/>
      <point x="422" y="197" type="curve" smooth="yes"/>
      <point x="422" y="89"/>
      <point x="329" y="4"/>
      <point x="221" y="0" type="curve" smooth="yes"/>
      <point x="120" y="0"/>
      <point x="21" y="86"/>
      <point x="21" y="197" type="curve" smooth="yes"/>
      <point x="21" y="261"/>
      <point x="49" y="315"/>
      <point x="91" y="351" type="curve"/>
      <point x="49" y="386"/>
      <point x="21" y="442"/>
      <point x="21" y="506" type="curve" smooth="yes"/>
      <point x="21" y="613"/>
      <point x="109" y="702"/>
      <point x="221" y="702" type="curve" smooth="yes"/>
      <point x="333" y="702"/>
      <point x="416" y="621"/>
    </contour>
    <contour>
      <point x="221" y="98" type="curve"/>
      <point x="272" y="101"/>
      <point x="323" y="140"/>
      <point x="323" y="197" type="curve" smooth="yes"/>
      <point x="323" y="252"/>
      <point x="281" y="301"/>
      <point x="221" y="302" type="curve" smooth="yes"/>
      <point x="167" y="302"/>
      <point x="120" y="256"/>
      <point x="120" y="197" type="curve" smooth="yes"/>
      <point x="120" y="143"/>
      <point x="166" y="103"/>
    </contour>
    <contour>
      <point x="221" y="605" type="curve"/>
      <point x="169" y="603"/>
      <point x="120" y="563"/>
      <point x="120" y="506" type="curve" smooth="yes"/>
      <point x="120" y="449"/>
      <point x="161" y="401"/>
      <point x="218" y="401" type="curve" smooth="yes"/>
      <point x="219" y="401"/>
      <point x="220" y="401"/>
      <point x="221" y="401" type="curve" smooth="yes"/>
      <point x="223" y="401"/>
      <point x="224" y="401"/>
      <point x="225" y="401" type="curve" smooth="yes"/>
      <point x="282" y="401"/>
      <point x="323" y="449"/>
      <point x="323" y="506" type="curve" smooth="yes"/>
      <point x="323" y="561"/>
      <point x="277" y="601"/>
    </contour>
  </outline>
</glyph>
<glyph name="nine" format="2">
  <advance width="543"/>
  <unicode hex="0039"/>
  <outline>
    <contour>
      <point x="214" y="208" type="curve" smooth="yes"/>
      <point x="82" y="238"/>
      <point x="-3" y="372"/>
      <point x="28" y="505" type="curve" smooth="yes"/>
      <point x="58" y="638"/>
      <point x="192" y="723"/>
      <point x="325" y="692" type="curve" smooth="yes"/>
      <point x="459" y="662"/>
      <point x="543" y="528"/>
      <point x="512" y="394" type="curve" smooth="yes"/>
      <point x="504" y="356"/>
      <point x="479" y="323"/>
      <point x="286" y="20" type="curve" smooth="yes"/>
      <point x="269" y="-3"/>
      <point x="239" y="-8"/>
      <point x="217" y="8" type="curve" smooth="yes"/>
      <point x="195" y="24"/>
      <point x="190" y="54"/>
      <point x="205" y="77" type="curve" smooth="yes"/>
      <point x="286" y="204" type="line"/>
      <point x="262" y="201"/>
      <point x="240" y="202"/>
    </contour>
    <contour>
      <point x="303" y="597" type="curve" smooth="yes"/>
      <point x="223" y="615"/>
      <point x="142" y="565"/>
      <point x="123" y="483" type="curve" smooth="yes"/>
      <point x="105" y="402"/>
      <point x="156" y="322"/>
      <point x="236" y="303" type="curve" smooth="yes"/>
      <point x="318" y="285"/>
      <point x="398" y="335"/>
      <point x="417" y="416" type="curve" smooth="yes"/>
      <point x="435" y="498"/>
      <point x="385" y="578"/>
    </contour>
  </outline>
</glyph>
<glyph name="colon" format="2">
  <advance width="145"/>
  <unicode hex="003A"/>
  <outline>
    <contour>
      <point x="22" y="342" type="curve" smooth="yes"/>
      <point x="22" y="355"/>
      <point x="27" y="367"/>
      <point x="37" y="377" type="curve" smooth="yes"/>
      <point x="46" y="386"/>
      <point x="59" y="391"/>
      <point x="72" y="391" type="curve" smooth="yes"/>
      <point x="85" y="391"/>
      <point x="97" y="386"/>
      <point x="107" y="377" type="curve" smooth="yes"/>
      <point x="116" y="367"/>
      <point x="121" y="355"/>
      <point x="121" y="342" type="curve" smooth="yes"/>
      <point x="121" y="329"/>
      <point x="116" y="316"/>
      <point x="107" y="307" type="curve" smooth="yes"/>
      <point x="97" y="297"/>
      <point x="85" y="292"/>
      <point x="72" y="292" type="curve" smooth="yes"/>
      <point x="59" y="292"/>
      <point x="46" y="297"/>
      <point x="37" y="307" type="curve" smooth="yes"/>
      <point x="27" y="316"/>
      <point x="22" y="329"/>
    </contour>
    <contour>
      <point x="22" y="144" type="curve" smooth="yes"/>
      <point x="22" y="157"/>
      <point x="27" y="169"/>
      <point x="37" y="179" type="curve" smooth="yes"/>
      <point x="46" y="188"/>
      <point x="59" y="193"/>
      <point x="72" y="193" type="curve" smooth="yes"/>
      <point x="85" y="193"/>
      <point x="97" y="188"/>
      <point x="107" y="179" type="curve" smooth="yes"/>
      <point x="116" y="169"/>
      <point x="121" y="157"/>
      <point x="121" y="144" type="curve" smooth="yes"/>
      <point x="121" y="131"/>
      <point x="116" y="118"/>
      <point x="107" y="109" type="curve" smooth="yes"/>
      <point x="97" y="99"/>
      <point x="85" y="94"/>
      <point x="72" y="94" type="curve" smooth="yes"/>
      <point x="59" y="94"/>
      <point x="46" y="99"/>
      <point x="37" y="109" type="curve" smooth="yes"/>
      <point x="27" y="118"/>
      <point x="22" y="131"/>
    </contour>
  </outline>
</glyph>
<glyph name="semicolon" format="2">
  <advance width="215"/>
  <unicode hex="003B"/>
  <outline>
    <contour>
      <point x="94" y="342" type="curve" smooth="yes"/>
      <point x="94" y="355"/>
      <point x="99" y="367"/>
      <point x="109" y="377" type="curve" smooth="yes"/>
      <point x="118" y="386"/>
      <point x="131" y="391"/>
      <point x="144" y="391" type="curve" smooth="yes"/>
      <point x="157" y="391"/>
      <point x="169" y="386"/>
      <point x="179" y="377" type="curve" smooth="yes"/>
      <point x="188" y="367"/>
      <point x="193" y="355"/>
      <point x="193" y="342" type="curve" smooth="yes"/>
      <point x="193" y="329"/>
      <point x="188" y="316"/>
      <point x="179" y="307" type="curve" smooth="yes"/>
      <point x="169" y="297"/>
      <point x="157" y="292"/>
      <point x="144" y="292" type="curve" smooth="yes"/>
      <point x="131" y="292"/>
      <point x="118" y="297"/>
      <point x="109" y="307" type="curve" smooth="yes"/>
      <point x="99" y="316"/>
      <point x="94" y="329"/>
    </contour>
    <contour>
      <point x="31" y="30" type="curve" smooth="yes"/>
      <point x="11" y="49"/>
      <point x="14" y="77"/>
      <point x="34" y="97" type="curve" smooth="yes"/>
      <point x="112" y="175" type="line" smooth="yes"/>
      <point x="131" y="194"/>
      <point x="160" y="197"/>
      <point x="179" y="178" type="curve" smooth="yes"/>
      <point x="198" y="158"/>
      <point x="195" y="129"/>
      <point x="176" y="110" type="curve" smooth="yes"/>
      <point x="98" y="32" type="line" smooth="yes"/>
      <point x="78" y="12"/>
      <point x="50" y="10"/>
    </contour>
  </outline>
</glyph>
<glyph name="less" format="2">
  <advance width="354"/>
  <unicode hex="003C"/>
  <outline>
    <contour>
      <point x="314" y="14" type="curve" smooth="yes"/>
      <point x="294" y="-5"/>
      <point x="263" y="-5"/>
      <point x="244" y="14" type="curve" smooth="yes"/>
      <point x="170" y="87"/>
      <point x="43" y="207"/>
      <point x="41" y="209" type="curve" smooth="yes"/>
      <point x="31" y="219"/>
      <point x="26" y="232"/>
      <point x="26" y="245" type="curve" smooth="yes"/>
      <point x="26" y="257"/>
      <point x="31" y="270"/>
      <point x="41" y="280" type="curve" smooth="yes"/>
      <point x="43" y="282"/>
      <point x="168" y="410"/>
      <point x="242" y="483" type="curve" smooth="yes"/>
      <point x="261" y="502"/>
      <point x="292" y="502"/>
      <point x="312" y="483" type="curve" smooth="yes"/>
      <point x="331" y="464"/>
      <point x="331" y="432"/>
      <point x="312" y="413" type="curve" smooth="yes"/>
      <point x="146" y="245" type="line"/>
      <point x="314" y="84" type="line" smooth="yes"/>
      <point x="333" y="65"/>
      <point x="333" y="33"/>
    </contour>
  </outline>
</glyph>
<glyph name="equal" format="2">
  <advance width="548"/>
  <unicode hex="003D"/>
  <outline>
    <contour>
      <point x="33" y="342" type="curve" smooth="yes"/>
      <point x="33" y="370"/>
      <point x="55" y="392"/>
      <point x="83" y="392" type="curve" smooth="yes"/>
      <point x="461" y="392" type="line" smooth="yes"/>
      <point x="488" y="392"/>
      <point x="510" y="370"/>
      <point x="510" y="342" type="curve" smooth="yes"/>
      <point x="510" y="315"/>
      <point x="488" y="293"/>
      <point x="461" y="293" type="curve" smooth="yes"/>
      <point x="83" y="293" type="line" smooth="yes"/>
      <point x="55" y="293"/>
      <point x="33" y="315"/>
    </contour>
    <contour>
      <point x="33" y="141" type="curve" smooth="yes"/>
      <point x="33" y="169"/>
      <point x="55" y="191"/>
      <point x="83" y="191" type="curve" smooth="yes"/>
      <point x="461" y="191" type="line" smooth="yes"/>
      <point x="488" y="191"/>
      <point x="510" y="169"/>
      <point x="510" y="141" type="curve" smooth="yes"/>
      <point x="510" y="114"/>
      <point x="488" y="92"/>
      <point x="461" y="92" type="curve" smooth="yes"/>
      <point x="83" y="92" type="line" smooth="yes"/>
      <point x="55" y="92"/>
      <point x="33" y="114"/>
    </contour>
  </outline>
</glyph>
<glyph name="greater" format="2">
  <advance width="367"/>
  <unicode hex="003E"/>
  <outline>
    <contour>
      <point x="45" y="14" type="curve" smooth="yes"/>
      <point x="26" y="33"/>
      <point x="26" y="65"/>
      <point x="45" y="84" type="curve" smooth="yes"/>
      <point x="213" y="245" type="line"/>
      <point x="47" y="413" type="line" smooth="yes"/>
      <point x="28" y="432"/>
      <point x="28" y="464"/>
      <point x="47" y="483" type="curve" smooth="yes"/>
      <point x="67" y="502"/>
      <point x="98" y="502"/>
      <point x="117" y="483" type="curve" smooth="yes"/>
      <point x="191" y="410"/>
      <point x="316" y="282"/>
      <point x="318" y="280" type="curve" smooth="yes"/>
      <point x="328" y="270"/>
      <point x="333" y="257"/>
      <point x="333" y="245" type="curve" smooth="yes"/>
      <point x="333" y="232"/>
      <point x="328" y="219"/>
      <point x="318" y="209" type="curve" smooth="yes"/>
      <point x="316" y="207"/>
      <point x="189" y="87"/>
      <point x="115" y="14" type="curve" smooth="yes"/>
      <point x="96" y="-5"/>
      <point x="65" y="-5"/>
    </contour>
  </outline>
</glyph>
<glyph name="question" format="2">
  <advance width="449"/>
  <unicode hex="003F"/>
  <outline>
    <contour>
      <point x="378" y="364" type="curve"/>
      <point x="378" y="364" type="line"/>
      <point x="297" y="282" type="line" smooth="yes"/>
      <point x="277" y="262"/>
      <point x="267" y="231"/>
      <point x="265" y="200" type="curve"/>
      <point x="259" y="178"/>
      <point x="239" y="163"/>
      <point x="216" y="163" type="curve" smooth="yes"/>
      <point x="194" y="163"/>
      <point x="174" y="178"/>
      <point x="168" y="200" type="curve"/>
      <point x="166" y="253"/>
      <point x="184" y="305"/>
      <point x="216" y="342" type="curve" smooth="yes"/>
      <point x="302" y="430" type="line" smooth="yes"/>
      <point x="318" y="448"/>
      <point x="326" y="471"/>
      <point x="326" y="495" type="curve" smooth="yes"/>
      <point x="326" y="551"/>
      <point x="281" y="597"/>
      <point x="225" y="597" type="curve" smooth="yes"/>
      <point x="169" y="597"/>
      <point x="124" y="551"/>
      <point x="121" y="482" type="curve"/>
      <point x="116" y="461"/>
      <point x="96" y="446"/>
      <point x="73" y="446" type="curve" smooth="yes"/>
      <point x="46" y="446"/>
      <point x="24" y="468"/>
      <point x="24" y="495" type="curve" smooth="yes"/>
      <point x="24" y="607"/>
      <point x="114" y="697"/>
      <point x="225" y="697" type="curve" smooth="yes"/>
      <point x="336" y="697"/>
      <point x="427" y="607"/>
      <point x="427" y="495" type="curve" smooth="yes"/>
      <point x="427" y="447"/>
      <point x="409" y="401"/>
    </contour>
    <contour>
      <point x="216" y="-1" type="curve" smooth="yes"/>
      <point x="229" y="-1"/>
      <point x="242" y="4"/>
      <point x="251" y="14" type="curve" smooth="yes"/>
      <point x="261" y="23"/>
      <point x="266" y="36"/>
      <point x="266" y="49" type="curve" smooth="yes"/>
      <point x="266" y="62"/>
      <point x="261" y="74"/>
      <point x="251" y="84" type="curve" smooth="yes"/>
      <point x="242" y="93"/>
      <point x="229" y="98"/>
      <point x="216" y="98" type="curve" smooth="yes"/>
      <point x="203" y="98"/>
      <point x="191" y="93"/>
      <point x="181" y="84" type="curve" smooth="yes"/>
      <point x="172" y="74"/>
      <point x="167" y="62"/>
      <point x="167" y="49" type="curve" smooth="yes"/>
      <point x="167" y="36"/>
      <point x="172" y="23"/>
      <point x="181" y="14" type="curve" smooth="yes"/>
      <point x="191" y="4"/>
      <point x="203" y="-1"/>
    </contour>
  </outline>
</glyph>
<glyph name="at" format="2">
  <advance width="759"/>
  <unicode hex="0040"/>
  <outline>
    <contour>
      <point x="700" y="485" type="curve" smooth="yes"/>
      <point x="719" y="443"/>
      <point x="728" y="397"/>
      <point x="728" y="350" type="curve" smooth="yes"/>
      <point x="728" y="304"/>
      <point x="719" y="258"/>
      <point x="700" y="215" type="curve" smooth="yes"/>
      <point x="683" y="174"/>
      <point x="658" y="137"/>
      <point x="626" y="104" type="curve" smooth="yes"/>
      <point x="624" y="103"/>
      <point x="622" y="101"/>
      <point x="621" y="99" type="curve" smooth="yes"/>
      <point x="604" y="83"/>
      <point x="584" y="78"/>
      <point x="584" y="78" type="curve"/>
      <point x="584" y="78" type="line"/>
      <point x="579" y="76"/>
      <point x="572" y="75"/>
      <point x="567" y="75" type="curve" smooth="yes"/>
      <point x="540" y="75"/>
      <point x="517" y="94"/>
      <point x="513" y="120" type="curve"/>
      <point x="512" y="120" type="line"/>
      <point x="512" y="127" type="line" smooth="yes"/>
      <point x="512" y="128"/>
      <point x="512" y="128"/>
      <point x="512" y="128" type="curve" smooth="yes"/>
      <point x="512" y="130"/>
      <point x="512" y="131"/>
      <point x="512" y="132" type="curve" smooth="yes"/>
      <point x="512" y="173" type="line"/>
      <point x="512" y="173" type="line"/>
      <point x="512" y="173"/>
      <point x="512" y="175"/>
      <point x="512" y="175" type="curve"/>
      <point x="512" y="177" type="line"/>
      <point x="475" y="150"/>
      <point x="429" y="132"/>
      <point x="380" y="132" type="curve" smooth="yes"/>
      <point x="261" y="132"/>
      <point x="162" y="231"/>
      <point x="162" y="350" type="curve" smooth="yes"/>
      <point x="162" y="470"/>
      <point x="261" y="568"/>
      <point x="380" y="568" type="curve" smooth="yes"/>
      <point x="500" y="568"/>
      <point x="598" y="470"/>
      <point x="598" y="350" type="curve" smooth="yes"/>
      <point x="598" y="207" type="line"/>
      <point x="626" y="248"/>
      <point x="641" y="297"/>
      <point x="641" y="350" type="curve" smooth="yes"/>
      <point x="641" y="494"/>
      <point x="524" y="611"/>
      <point x="380" y="611" type="curve" smooth="yes"/>
      <point x="236" y="611"/>
      <point x="119" y="494"/>
      <point x="119" y="350" type="curve" smooth="yes"/>
      <point x="119" y="206"/>
      <point x="236" y="89"/>
      <point x="380" y="89" type="curve" smooth="yes"/>
      <point x="404" y="89"/>
      <point x="424" y="69"/>
      <point x="424" y="45" type="curve" smooth="yes"/>
      <point x="424" y="22"/>
      <point x="404" y="2"/>
      <point x="380" y="2" type="curve" smooth="yes"/>
      <point x="334" y="2"/>
      <point x="287" y="11"/>
      <point x="245" y="30" type="curve" smooth="yes"/>
      <point x="203" y="47"/>
      <point x="166" y="72"/>
      <point x="134" y="104" type="curve" smooth="yes"/>
      <point x="101" y="137"/>
      <point x="77" y="174"/>
      <point x="59" y="215" type="curve" smooth="yes"/>
      <point x="40" y="258"/>
      <point x="32" y="304"/>
      <point x="32" y="350" type="curve" smooth="yes"/>
      <point x="32" y="397"/>
      <point x="40" y="443"/>
      <point x="59" y="485" type="curve" smooth="yes"/>
      <point x="77" y="527"/>
      <point x="101" y="564"/>
      <point x="134" y="597" type="curve" smooth="yes"/>
      <point x="166" y="629"/>
      <point x="203" y="654"/>
      <point x="245" y="671" type="curve" smooth="yes"/>
      <point x="287" y="690"/>
      <point x="334" y="698"/>
      <point x="380" y="698" type="curve" smooth="yes"/>
      <point x="427" y="698"/>
      <point x="472" y="690"/>
      <point x="515" y="671" type="curve" smooth="yes"/>
      <point x="557" y="654"/>
      <point x="594" y="629"/>
      <point x="626" y="597" type="curve" smooth="yes"/>
      <point x="658" y="564"/>
      <point x="683" y="527"/>
    </contour>
    <contour>
      <point x="380" y="218" type="curve" smooth="yes"/>
      <point x="453" y="218"/>
      <point x="512" y="278"/>
      <point x="512" y="350" type="curve" smooth="yes"/>
      <point x="512" y="423"/>
      <point x="453" y="482"/>
      <point x="380" y="482" type="curve" smooth="yes"/>
      <point x="307" y="482"/>
      <point x="248" y="423"/>
      <point x="248" y="350" type="curve" smooth="yes"/>
      <point x="248" y="278"/>
      <point x="307" y="218"/>
    </contour>
  </outline>
</glyph>
<glyph name="B" format="2">
  <advance width="558"/>
  <unicode hex="0042"/>
  <outline>
    <contour>
      <point x="424" y="373" type="curve"/>
      <point x="489" y="339"/>
      <point x="532" y="270"/>
      <point x="532" y="196" type="curve"/>
      <point x="532" y="196"/>
      <point x="532" y="196"/>
      <point x="532" y="196" type="curve"/>
      <point x="531" y="91"/>
      <point x="449" y="7"/>
      <point x="345" y="-1" type="curve" smooth="yes"/>
      <point x="342" y="-1"/>
      <point x="363" y="-1"/>
      <point x="82" y="-1" type="curve" smooth="yes"/>
      <point x="81" y="-1"/>
      <point x="81" y="-1"/>
      <point x="80" y="-1" type="curve" smooth="yes"/>
      <point x="80" y="-1"/>
      <point x="79" y="-1"/>
      <point x="79" y="-1" type="curve" smooth="yes"/>
      <point x="51" y="-1"/>
      <point x="29" y="21"/>
      <point x="29" y="49" type="curve" smooth="yes"/>
      <point x="29" y="647" type="line" smooth="yes"/>
      <point x="29" y="674"/>
      <point x="52" y="697"/>
      <point x="80" y="697" type="curve" smooth="yes"/>
      <point x="81" y="697"/>
      <point x="58" y="697"/>
      <point x="273" y="697" type="curve"/>
      <point x="378" y="691"/>
      <point x="468" y="607"/>
      <point x="468" y="497" type="curve" smooth="yes"/>
      <point x="467" y="450"/>
      <point x="451" y="407"/>
    </contour>
    <contour>
      <point x="369" y="498" type="curve" smooth="yes"/>
      <point x="368" y="554"/>
      <point x="322" y="597"/>
      <point x="265" y="597" type="curve" smooth="yes"/>
      <point x="129" y="597" type="line"/>
      <point x="129" y="396" type="line"/>
      <point x="265" y="396" type="line"/>
      <point x="265" y="396" type="line"/>
      <point x="322" y="396"/>
      <point x="368" y="441"/>
    </contour>
    <contour>
      <point x="338" y="99" type="line" smooth="yes"/>
      <point x="387" y="99"/>
      <point x="433" y="142"/>
      <point x="433" y="196" type="curve" smooth="yes"/>
      <point x="433" y="246"/>
      <point x="388" y="295"/>
      <point x="333" y="296" type="curve" smooth="yes"/>
      <point x="129" y="296" type="line"/>
      <point x="129" y="99" type="line"/>
    </contour>
  </outline>
</glyph>
<glyph name="C" format="2">
  <advance width="722"/>
  <unicode hex="0043"/>
  <outline>
    <contour>
      <point x="379" y="0" type="curve" smooth="yes"/>
      <point x="187" y="0"/>
      <point x="26" y="156"/>
      <point x="26" y="348" type="curve" smooth="yes"/>
      <point x="26" y="545"/>
      <point x="187" y="700"/>
      <point x="379" y="700" type="curve" smooth="yes"/>
      <point x="505" y="700"/>
      <point x="618" y="635"/>
      <point x="678" y="527" type="curve" smooth="yes"/>
      <point x="696" y="497"/>
      <point x="684" y="466"/>
      <point x="660" y="455" type="curve" smooth="yes"/>
      <point x="637" y="443"/>
      <point x="606" y="449"/>
      <point x="594" y="473" type="curve" smooth="yes"/>
      <point x="547" y="551"/>
      <point x="468" y="598"/>
      <point x="379" y="598" type="curve" smooth="yes"/>
      <point x="242" y="598"/>
      <point x="128" y="485"/>
      <point x="128" y="348" type="curve" smooth="yes"/>
      <point x="128" y="210"/>
      <point x="242" y="102"/>
      <point x="379" y="102" type="curve" smooth="yes"/>
      <point x="462" y="102"/>
      <point x="541" y="144"/>
      <point x="588" y="216" type="curve" smooth="yes"/>
      <point x="600" y="240"/>
      <point x="637" y="246"/>
      <point x="654" y="228" type="curve"/>
      <point x="678" y="216"/>
      <point x="690" y="185"/>
      <point x="672" y="162" type="curve" smooth="yes"/>
      <point x="606" y="60"/>
      <point x="499" y="0"/>
    </contour>
  </outline>
</glyph>
<glyph name="D" format="2">
  <advance width="611"/>
  <unicode hex="0044"/>
  <outline>
    <contour>
      <point x="231" y="-1" type="curve" smooth="yes"/>
      <point x="83" y="-1" type="line" smooth="yes"/>
      <point x="56" y="-1"/>
      <point x="33" y="22"/>
      <point x="33" y="49" type="curve" smooth="yes"/>
      <point x="33" y="650" type="line" smooth="yes"/>
      <point x="33" y="678"/>
      <point x="56" y="701"/>
      <point x="83" y="701" type="curve" smooth="yes"/>
      <point x="228" y="701" type="line" smooth="yes"/>
      <point x="281" y="701"/>
      <point x="331" y="690"/>
      <point x="378" y="670" type="curve" smooth="yes"/>
      <point x="423" y="650"/>
      <point x="463" y="621"/>
      <point x="495" y="584" type="curve" smooth="yes"/>
      <point x="527" y="548"/>
      <point x="551" y="506"/>
      <point x="566" y="459" type="curve" smooth="yes"/>
      <point x="581" y="411"/>
      <point x="586" y="361"/>
      <point x="580" y="309" type="curve" smooth="yes"/>
      <point x="570" y="224"/>
      <point x="529" y="146"/>
      <point x="465" y="88" type="curve" smooth="yes"/>
      <point x="401" y="31"/>
      <point x="317" y="-1"/>
    </contour>
    <contour>
      <point x="133" y="99" type="line"/>
      <point x="231" y="99" type="line" smooth="yes"/>
      <point x="358" y="99"/>
      <point x="465" y="194"/>
      <point x="480" y="320" type="curve" smooth="yes"/>
      <point x="489" y="395"/>
      <point x="468" y="465"/>
      <point x="421" y="518" type="curve" smooth="yes"/>
      <point x="373" y="571"/>
      <point x="304" y="601"/>
      <point x="228" y="601" type="curve" smooth="yes"/>
      <point x="133" y="601" type="line"/>
    </contour>
  </outline>
</glyph>
<glyph name="F" format="2">
  <advance width="487"/>
  <unicode hex="0046"/>
  <outline>
    <contour>
      <point x="434" y="699" type="line" smooth="yes"/>
      <point x="461" y="699"/>
      <point x="484" y="677"/>
      <point x="484" y="649" type="curve" smooth="yes"/>
      <point x="484" y="621"/>
      <point x="461" y="599"/>
      <point x="434" y="599" type="curve" smooth="yes"/>
      <point x="136" y="599" type="line"/>
      <point x="136" y="398" type="line"/>
      <point x="363" y="398" type="line" smooth="yes"/>
      <point x="390" y="398"/>
      <point x="413" y="376"/>
      <point x="413" y="348" type="curve" smooth="yes"/>
      <point x="413" y="320"/>
      <point x="390" y="298"/>
      <point x="363" y="298" type="curve" smooth="yes"/>
      <point x="136" y="298" type="line"/>
      <point x="136" y="51" type="line" smooth="yes"/>
      <point x="136" y="23"/>
      <point x="113" y="1"/>
      <point x="86" y="1" type="curve" smooth="yes"/>
      <point x="58" y="1"/>
      <point x="36" y="23"/>
      <point x="36" y="51" type="curve" smooth="yes"/>
      <point x="36" y="649" type="line" smooth="yes"/>
      <point x="36" y="677"/>
      <point x="58" y="699"/>
      <point x="86" y="699" type="curve" smooth="yes"/>
      <point x="86" y="699"/>
      <point x="87" y="699"/>
      <point x="87" y="699" type="curve" smooth="yes"/>
      <point x="88" y="699"/>
      <point x="88" y="699"/>
      <point x="89" y="699" type="curve" smooth="yes"/>
    </contour>
  </outline>
</glyph>
<glyph name="G" format="2">
  <advance width="752"/>
  <unicode hex="0047"/>
  <outline>
    <contour>
      <point x="673" y="399" type="line" smooth="yes"/>
      <point x="700" y="399"/>
      <point x="723" y="377"/>
      <point x="723" y="349" type="curve" smooth="yes"/>
      <point x="723" y="303"/>
      <point x="714" y="257"/>
      <point x="696" y="214" type="curve" smooth="yes"/>
      <point x="678" y="173"/>
      <point x="653" y="136"/>
      <point x="621" y="104" type="curve" smooth="yes"/>
      <point x="589" y="72"/>
      <point x="552" y="47"/>
      <point x="511" y="29" type="curve" smooth="yes"/>
      <point x="468" y="11"/>
      <point x="422" y="2"/>
      <point x="375" y="2" type="curve" smooth="yes"/>
      <point x="329" y="2"/>
      <point x="283" y="11"/>
      <point x="240" y="29" type="curve" smooth="yes"/>
      <point x="199" y="47"/>
      <point x="162" y="72"/>
      <point x="130" y="104" type="curve" smooth="yes"/>
      <point x="98" y="136"/>
      <point x="73" y="173"/>
      <point x="55" y="214" type="curve" smooth="yes"/>
      <point x="37" y="257"/>
      <point x="28" y="303"/>
      <point x="28" y="349" type="curve" smooth="yes"/>
      <point x="28" y="396"/>
      <point x="37" y="442"/>
      <point x="55" y="485" type="curve" smooth="yes"/>
      <point x="73" y="526"/>
      <point x="98" y="563"/>
      <point x="130" y="595" type="curve" smooth="yes"/>
      <point x="162" y="627"/>
      <point x="199" y="652"/>
      <point x="240" y="670" type="curve" smooth="yes"/>
      <point x="283" y="688"/>
      <point x="328" y="697"/>
      <point x="374" y="697" type="curve" smooth="yes"/>
      <point x="487" y="700"/>
      <point x="588" y="653"/>
      <point x="663" y="553" type="curve" smooth="yes"/>
      <point x="680" y="530"/>
      <point x="669" y="498"/>
      <point x="645" y="484" type="curve" smooth="yes"/>
      <point x="620" y="470"/>
      <point x="593" y="481"/>
      <point x="575" y="502" type="curve" smooth="yes"/>
      <point x="518" y="569"/>
      <point x="453" y="597"/>
      <point x="374" y="597" type="curve"/>
      <point x="374" y="597" type="line"/>
      <point x="238" y="596"/>
      <point x="128" y="486"/>
      <point x="128" y="349" type="curve" smooth="yes"/>
      <point x="128" y="213"/>
      <point x="239" y="102"/>
      <point x="375" y="102" type="curve" smooth="yes"/>
      <point x="495" y="102"/>
      <point x="595" y="187"/>
      <point x="618" y="299" type="curve"/>
      <point x="401" y="299" type="line" smooth="yes"/>
      <point x="373" y="299"/>
      <point x="351" y="322"/>
      <point x="351" y="349" type="curve" smooth="yes"/>
      <point x="351" y="377"/>
      <point x="373" y="399"/>
      <point x="401" y="399" type="curve" smooth="yes"/>
    </contour>
  </outline>
</glyph>
<glyph name="H" format="2">
  <advance width="572"/>
  <unicode hex="0048"/>
  <outline>
    <contour>
      <point x="491" y="698" type="curve" smooth="yes"/>
      <point x="518" y="698"/>
      <point x="541" y="675"/>
      <point x="541" y="648" type="curve" smooth="yes"/>
      <point x="541" y="50" type="line" smooth="yes"/>
      <point x="541" y="22"/>
      <point x="518" y="0"/>
      <point x="491" y="0" type="curve" smooth="yes"/>
      <point x="463" y="0"/>
      <point x="441" y="22"/>
      <point x="441" y="50" type="curve" smooth="yes"/>
      <point x="441" y="297" type="line"/>
      <point x="132" y="297" type="line"/>
      <point x="132" y="50" type="line" smooth="yes"/>
      <point x="132" y="22"/>
      <point x="109" y="0"/>
      <point x="82" y="0" type="curve" smooth="yes"/>
      <point x="54" y="0"/>
      <point x="32" y="22"/>
      <point x="32" y="50" type="curve" smooth="yes"/>
      <point x="32" y="648" type="line" smooth="yes"/>
      <point x="32" y="675"/>
      <point x="54" y="698"/>
      <point x="82" y="698" type="curve" smooth="yes"/>
      <point x="109" y="698"/>
      <point x="132" y="675"/>
      <point x="132" y="648" type="curve" smooth="yes"/>
      <point x="132" y="397" type="line"/>
      <point x="441" y="397" type="line"/>
      <point x="441" y="648" type="line" smooth="yes"/>
      <point x="441" y="675"/>
      <point x="463" y="698"/>
    </contour>
  </outline>
</glyph>
<glyph name="I" format="2">
  <advance width="162"/>
  <unicode hex="0049"/>
  <outline>
    <contour>
      <point x="81" y="-1" type="curve" smooth="yes"/>
      <point x="53" y="-1"/>
      <point x="31" y="21"/>
      <point x="31" y="49" type="curve" smooth="yes"/>
      <point x="31" y="653" type="line" smooth="yes"/>
      <point x="31" y="680"/>
      <point x="53" y="702"/>
      <point x="81" y="702" type="curve" smooth="yes"/>
      <point x="108" y="702"/>
      <point x="130" y="680"/>
      <point x="130" y="653" type="curve" smooth="yes"/>
      <point x="130" y="49" type="line" smooth="yes"/>
      <point x="130" y="21"/>
      <point x="108" y="-1"/>
    </contour>
  </outline>
</glyph>
<glyph name="J" format="2">
  <advance width="466"/>
  <unicode hex="004A"/>
  <outline>
    <contour>
      <point x="382" y="702" type="curve" smooth="yes"/>
      <point x="410" y="702"/>
      <point x="432" y="680"/>
      <point x="432" y="653" type="curve" smooth="yes"/>
      <point x="432" y="207" type="line"/>
      <point x="432" y="207"/>
      <point x="432" y="206"/>
      <point x="432" y="206" type="curve" smooth="yes"/>
      <point x="431" y="95"/>
      <point x="340" y="5"/>
      <point x="229" y="5" type="curve" smooth="yes"/>
      <point x="118" y="5"/>
      <point x="30" y="97"/>
      <point x="27" y="199" type="curve" smooth="yes"/>
      <point x="27" y="227"/>
      <point x="49" y="247"/>
      <point x="76" y="247" type="curve" smooth="yes"/>
      <point x="103" y="247"/>
      <point x="126" y="227"/>
      <point x="126" y="199" type="curve" smooth="yes"/>
      <point x="126" y="151"/>
      <point x="172" y="104"/>
      <point x="229" y="104" type="curve" smooth="yes"/>
      <point x="286" y="104"/>
      <point x="333" y="151"/>
      <point x="333" y="208" type="curve" smooth="yes"/>
      <point x="333" y="653" type="line" smooth="yes"/>
      <point x="333" y="680"/>
      <point x="355" y="702"/>
    </contour>
  </outline>
</glyph>
<glyph name="K" format="2">
  <advance width="503"/>
  <unicode hex="004B"/>
  <outline>
    <contour>
      <point x="492" y="78" type="line" smooth="yes"/>
      <point x="510" y="57"/>
      <point x="507" y="26"/>
      <point x="485" y="8" type="curve" smooth="yes"/>
      <point x="476" y="1"/>
      <point x="465" y="-3"/>
      <point x="454" y="-3" type="curve" smooth="yes"/>
      <point x="440" y="-3"/>
      <point x="426" y="3"/>
      <point x="416" y="15" type="curve" smooth="yes"/>
      <point x="196" y="304" type="line"/>
      <point x="134" y="239" type="line"/>
      <point x="134" y="47" type="line" smooth="yes"/>
      <point x="134" y="19"/>
      <point x="112" y="-3"/>
      <point x="84" y="-3" type="curve" smooth="yes"/>
      <point x="57" y="-3"/>
      <point x="35" y="19"/>
      <point x="35" y="47" type="curve" smooth="yes"/>
      <point x="35" y="652" type="line" smooth="yes"/>
      <point x="35" y="680"/>
      <point x="57" y="702"/>
      <point x="84" y="702" type="curve" smooth="yes"/>
      <point x="112" y="702"/>
      <point x="134" y="680"/>
      <point x="134" y="652" type="curve" smooth="yes"/>
      <point x="134" y="381" type="line"/>
      <point x="411" y="677" type="line" smooth="yes"/>
      <point x="427" y="699"/>
      <point x="458" y="703"/>
      <point x="480" y="686" type="curve" smooth="yes"/>
      <point x="502" y="670"/>
      <point x="506" y="639"/>
      <point x="489" y="617" type="curve" smooth="yes"/>
      <point x="265" y="376" type="line"/>
    </contour>
  </outline>
</glyph>
<glyph name="L" format="2">
  <advance width="477"/>
  <unicode hex="004C"/>
  <outline>
    <contour>
      <point x="428" y="100" type="line" smooth="yes"/>
      <point x="455" y="100"/>
      <point x="478" y="78"/>
      <point x="478" y="50" type="curve" smooth="yes"/>
      <point x="478" y="22"/>
      <point x="455" y="0"/>
      <point x="428" y="0" type="curve" smooth="yes"/>
      <point x="83" y="0" type="line" smooth="yes"/>
      <point x="82" y="0"/>
      <point x="82" y="0"/>
      <point x="81" y="0" type="curve" smooth="yes"/>
      <point x="81" y="0"/>
      <point x="80" y="0"/>
      <point x="80" y="0" type="curve" smooth="yes"/>
      <point x="52" y="0"/>
      <point x="30" y="22"/>
      <point x="30" y="50" type="curve" smooth="yes"/>
      <point x="30" y="648" type="line" smooth="yes"/>
      <point x="30" y="676"/>
      <point x="52" y="698"/>
      <point x="80" y="698" type="curve" smooth="yes"/>
      <point x="107" y="698"/>
      <point x="130" y="676"/>
      <point x="130" y="648" type="curve" smooth="yes"/>
      <point x="130" y="100" type="line"/>
    </contour>
  </outline>
</glyph>
<glyph name="M" format="2">
  <advance width="776"/>
  <unicode hex="004D"/>
  <outline>
    <contour>
      <point x="712" y="1" type="curve" smooth="yes"/>
      <point x="689" y="1"/>
      <point x="668" y="18"/>
      <point x="663" y="42" type="curve" smooth="yes"/>
      <point x="578" y="459" type="line"/>
      <point x="421" y="37" type="line" smooth="yes"/>
      <point x="414" y="16"/>
      <point x="395" y="2"/>
      <point x="373" y="2" type="curve"/>
      <point x="373" y="2"/>
      <point x="373" y="2"/>
      <point x="373" y="2" type="curve"/>
      <point x="351" y="2"/>
      <point x="332" y="17"/>
      <point x="325" y="37" type="curve" smooth="yes"/>
      <point x="186" y="444" type="line"/>
      <point x="111" y="42" type="line" smooth="yes"/>
      <point x="107" y="15"/>
      <point x="81" y="-4"/>
      <point x="54" y="1" type="curve" smooth="yes"/>
      <point x="26" y="6"/>
      <point x="8" y="31"/>
      <point x="13" y="59" type="curve" smooth="yes"/>
      <point x="114" y="660" type="line" smooth="yes"/>
      <point x="118" y="683"/>
      <point x="138" y="700"/>
      <point x="161" y="701" type="curve" smooth="yes"/>
      <point x="184" y="703"/>
      <point x="205" y="688"/>
      <point x="212" y="666" type="curve" smooth="yes"/>
      <point x="374" y="211" type="line"/>
      <point x="542" y="667" type="line" smooth="yes"/>
      <point x="549" y="689"/>
      <point x="570" y="703"/>
      <point x="592" y="702" type="curve" smooth="yes"/>
      <point x="615" y="701"/>
      <point x="635" y="684"/>
      <point x="639" y="661" type="curve" smooth="yes"/>
      <point x="761" y="61" type="line" smooth="yes"/>
      <point x="766" y="34"/>
      <point x="749" y="8"/>
      <point x="722" y="2" type="curve" smooth="yes"/>
      <point x="719" y="2"/>
      <point x="715" y="1"/>
    </contour>
  </outline>
</glyph>
<glyph name="N" format="2">
  <advance width="578"/>
  <unicode hex="004E"/>
  <outline>
    <contour>
      <point x="548" y="55" type="line" smooth="yes"/>
      <point x="551" y="36"/>
      <point x="543" y="17"/>
      <point x="526" y="6" type="curve" smooth="yes"/>
      <point x="518" y="0"/>
      <point x="508" y="-2"/>
      <point x="499" y="-2" type="curve" smooth="yes"/>
      <point x="483" y="-2"/>
      <point x="467" y="6"/>
      <point x="457" y="21" type="curve" smooth="yes"/>
      <point x="130" y="491" type="line"/>
      <point x="130" y="47" type="line" smooth="yes"/>
      <point x="130" y="20"/>
      <point x="108" y="-2"/>
      <point x="81" y="-2" type="curve" smooth="yes"/>
      <point x="54" y="-2"/>
      <point x="31" y="20"/>
      <point x="31" y="47" type="curve" smooth="yes"/>
      <point x="31" y="648" type="line" smooth="yes"/>
      <point x="29" y="667"/>
      <point x="37" y="686"/>
      <point x="54" y="697" type="curve" smooth="yes"/>
      <point x="77" y="712"/>
      <point x="108" y="706"/>
      <point x="123" y="682" type="curve" smooth="yes"/>
      <point x="449" y="198" type="line"/>
      <point x="449" y="655" type="line" smooth="yes"/>
      <point x="449" y="683"/>
      <point x="472" y="705"/>
      <point x="499" y="705" type="curve" smooth="yes"/>
      <point x="526" y="705"/>
      <point x="548" y="683"/>
      <point x="548" y="655" type="curve" smooth="yes"/>
    </contour>
  </outline>
</glyph>
<glyph name="O" format="2">
  <advance width="743"/>
  <unicode hex="004F"/>
  <outline>
    <contour>
      <point x="372" y="1" type="curve" smooth="yes"/>
      <point x="179" y="1"/>
      <point x="26" y="160"/>
      <point x="26" y="353" type="curve" smooth="yes"/>
      <point x="26" y="541"/>
      <point x="179" y="699"/>
      <point x="372" y="699" type="curve" smooth="yes"/>
      <point x="565" y="699"/>
      <point x="718" y="541"/>
      <point x="718" y="353" type="curve" smooth="yes"/>
      <point x="718" y="160"/>
      <point x="565" y="1"/>
    </contour>
    <contour>
      <point x="372" y="602" type="curve" smooth="yes"/>
      <point x="235" y="602"/>
      <point x="123" y="490"/>
      <point x="123" y="353" type="curve" smooth="yes"/>
      <point x="123" y="211"/>
      <point x="235" y="98"/>
      <point x="372" y="98" type="curve" smooth="yes"/>
      <point x="509" y="98"/>
      <point x="622" y="211"/>
      <point x="622" y="353" type="curve" smooth="yes"/>
      <point x="622" y="490"/>
      <point x="509" y="602"/>
    </contour>
  </outline>
</glyph>
<glyph name="P" format="2">
  <advance width="491"/>
  <unicode hex="0050"/>
  <outline>
    <contour>
      <point x="298" y="699" type="curve" smooth="yes"/>
      <point x="406" y="695"/>
      <point x="493" y="607"/>
      <point x="493" y="500" type="curve" smooth="yes"/>
      <point x="493" y="396"/>
      <point x="412" y="311"/>
      <point x="302" y="299" type="curve" smooth="yes"/>
      <point x="299" y="298"/>
      <point x="295" y="298"/>
      <point x="131" y="298" type="curve"/>
      <point x="131" y="51" type="line" smooth="yes"/>
      <point x="131" y="23"/>
      <point x="108" y="1"/>
      <point x="81" y="1" type="curve" smooth="yes"/>
      <point x="53" y="1"/>
      <point x="31" y="23"/>
      <point x="31" y="51" type="curve" smooth="yes"/>
      <point x="31" y="649" type="line" smooth="yes"/>
      <point x="31" y="677"/>
      <point x="53" y="699"/>
      <point x="81" y="699" type="curve" smooth="yes"/>
      <point x="81" y="699"/>
      <point x="223" y="699"/>
    </contour>
    <contour>
      <point x="131" y="398" type="line"/>
      <point x="290" y="398" type="line" smooth="yes"/>
      <point x="347" y="398"/>
      <point x="393" y="443"/>
      <point x="394" y="500" type="curve" smooth="yes"/>
      <point x="393" y="556"/>
      <point x="347" y="599"/>
      <point x="290" y="599" type="curve" smooth="yes"/>
      <point x="131" y="599" type="line"/>
    </contour>
  </outline>
</glyph>
<glyph name="Q" format="2">
  <advance width="748"/>
  <unicode hex="0051"/>
  <outline>
    <contour>
      <point x="372" y="1" type="curve" smooth="yes"/>
      <point x="179" y="1"/>
      <point x="26" y="160"/>
      <point x="26" y="353" type="curve" smooth="yes"/>
      <point x="26" y="541"/>
      <point x="179" y="699"/>
      <point x="372" y="699" type="curve" smooth="yes"/>
      <point x="565" y="699"/>
      <point x="718" y="541"/>
      <point x="718" y="353" type="curve" smooth="yes"/>
      <point x="718" y="278"/>
      <point x="695" y="209"/>
      <point x="656" y="151" type="curve"/>
      <point x="728" y="83" type="line" smooth="yes"/>
      <point x="747" y="64"/>
      <point x="747" y="33"/>
      <point x="727" y="13" type="curve" smooth="yes"/>
      <point x="708" y="-6"/>
      <point x="677" y="-6"/>
      <point x="658" y="13" type="curve" smooth="yes"/>
      <point x="589" y="78" type="line"/>
      <point x="530" y="30"/>
      <point x="454" y="1"/>
    </contour>
    <contour>
      <point x="447" y="283" type="curve" smooth="yes"/>
      <point x="466" y="303"/>
      <point x="497" y="303"/>
      <point x="517" y="283" type="curve" smooth="yes"/>
      <point x="585" y="218" type="line"/>
      <point x="608" y="257"/>
      <point x="622" y="303"/>
      <point x="622" y="353" type="curve" smooth="yes"/>
      <point x="622" y="490"/>
      <point x="509" y="602"/>
      <point x="372" y="602" type="curve" smooth="yes"/>
      <point x="235" y="602"/>
      <point x="123" y="490"/>
      <point x="123" y="353" type="curve" smooth="yes"/>
      <point x="123" y="211"/>
      <point x="235" y="98"/>
      <point x="372" y="98" type="curve" smooth="yes"/>
      <point x="426" y="98"/>
      <point x="477" y="116"/>
      <point x="518" y="146" type="curve"/>
      <point x="447" y="213" type="line" smooth="yes"/>
      <point x="427" y="233"/>
      <point x="427" y="264"/>
    </contour>
  </outline>
</glyph>
<glyph name="R" format="2">
  <advance width="519"/>
  <unicode hex="0052"/>
  <outline>
    <contour>
      <point x="494" y="499" type="curve" smooth="yes"/>
      <point x="494" y="410"/>
      <point x="434" y="336"/>
      <point x="346" y="304" type="curve"/>
      <point x="486" y="76" type="line" smooth="yes"/>
      <point x="500" y="53"/>
      <point x="493" y="22"/>
      <point x="469" y="7" type="curve" smooth="yes"/>
      <point x="461" y="2"/>
      <point x="452" y="0"/>
      <point x="443" y="0" type="curve" smooth="yes"/>
      <point x="426" y="0"/>
      <point x="410" y="9"/>
      <point x="400" y="24" type="curve" smooth="yes"/>
      <point x="234" y="296" type="line"/>
      <point x="132" y="296" type="line"/>
      <point x="132" y="49" type="line" smooth="yes"/>
      <point x="132" y="21"/>
      <point x="109" y="0"/>
      <point x="82" y="0" type="curve" smooth="yes"/>
      <point x="54" y="0"/>
      <point x="32" y="21"/>
      <point x="32" y="49" type="curve" smooth="yes"/>
      <point x="32" y="647" type="line" smooth="yes"/>
      <point x="32" y="674"/>
      <point x="55" y="697"/>
      <point x="83" y="697" type="curve" smooth="yes"/>
      <point x="84" y="697"/>
      <point x="84" y="697"/>
      <point x="85" y="697" type="curve" smooth="yes"/>
      <point x="295" y="697" type="line" smooth="yes"/>
      <point x="396" y="697"/>
      <point x="493" y="611"/>
    </contour>
    <contour>
      <point x="291" y="396" type="line" smooth="yes"/>
      <point x="348" y="396"/>
      <point x="394" y="441"/>
      <point x="395" y="498" type="curve" smooth="yes"/>
      <point x="394" y="554"/>
      <point x="348" y="597"/>
      <point x="291" y="597" type="curve" smooth="yes"/>
      <point x="132" y="597" type="line"/>
      <point x="132" y="396" type="line"/>
    </contour>
  </outline>
</glyph>
<glyph name="S" format="2">
  <advance width="427"/>
  <unicode hex="0053"/>
  <outline>
    <contour>
      <point x="213" y="400" type="curve" smooth="yes"/>
      <point x="323" y="400"/>
      <point x="413" y="310"/>
      <point x="413" y="200" type="curve" smooth="yes"/>
      <point x="413" y="89"/>
      <point x="323" y="-1"/>
      <point x="213" y="-1" type="curve" smooth="yes"/>
      <point x="103" y="-1"/>
      <point x="13" y="89"/>
      <point x="13" y="200" type="curve" smooth="yes"/>
      <point x="13" y="227"/>
      <point x="35" y="250"/>
      <point x="63" y="250" type="curve" smooth="yes"/>
      <point x="91" y="250"/>
      <point x="113" y="227"/>
      <point x="113" y="200" type="curve" smooth="yes"/>
      <point x="113" y="144"/>
      <point x="158" y="99"/>
      <point x="213" y="99" type="curve" smooth="yes"/>
      <point x="268" y="99"/>
      <point x="313" y="144"/>
      <point x="313" y="200" type="curve" smooth="yes"/>
      <point x="313" y="255"/>
      <point x="268" y="300"/>
      <point x="213" y="300" type="curve" smooth="yes"/>
      <point x="103" y="300"/>
      <point x="13" y="389"/>
      <point x="13" y="500" type="curve" smooth="yes"/>
      <point x="13" y="610"/>
      <point x="103" y="700"/>
      <point x="213" y="700" type="curve" smooth="yes"/>
      <point x="323" y="700"/>
      <point x="413" y="610"/>
      <point x="413" y="500" type="curve" smooth="yes"/>
      <point x="413" y="472"/>
      <point x="391" y="450"/>
      <point x="363" y="450" type="curve" smooth="yes"/>
      <point x="336" y="450"/>
      <point x="313" y="472"/>
      <point x="313" y="500" type="curve" smooth="yes"/>
      <point x="313" y="555"/>
      <point x="268" y="600"/>
      <point x="213" y="600" type="curve" smooth="yes"/>
      <point x="158" y="600"/>
      <point x="113" y="555"/>
      <point x="113" y="500" type="curve" smooth="yes"/>
      <point x="113" y="445"/>
      <point x="158" y="400"/>
    </contour>
  </outline>
</glyph>
<glyph name="T" format="2">
  <advance width="501"/>
  <unicode hex="0054"/>
  <outline>
    <contour>
      <point x="-1" y="651" type="curve" smooth="yes"/>
      <point x="-1" y="679"/>
      <point x="21" y="701"/>
      <point x="49" y="701" type="curve" smooth="yes"/>
      <point x="451" y="701" type="line" smooth="yes"/>
      <point x="478" y="701"/>
      <point x="500" y="679"/>
      <point x="500" y="651" type="curve" smooth="yes"/>
      <point x="500" y="624"/>
      <point x="478" y="602"/>
      <point x="451" y="602" type="curve" smooth="yes"/>
      <point x="299" y="602" type="line"/>
      <point x="299" y="49" type="line" smooth="yes"/>
      <point x="299" y="21"/>
      <point x="277" y="-1"/>
      <point x="250" y="-1" type="curve" smooth="yes"/>
      <point x="222" y="-1"/>
      <point x="200" y="21"/>
      <point x="200" y="49" type="curve" smooth="yes"/>
      <point x="200" y="602" type="line"/>
      <point x="49" y="602" type="line" smooth="yes"/>
      <point x="21" y="602"/>
      <point x="-1" y="624"/>
    </contour>
  </outline>
</glyph>
<glyph name="V" format="2">
  <advance width="588"/>
  <unicode hex="0056"/>
  <outline>
    <contour>
      <point x="540" y="700" type="curve" smooth="yes"/>
      <point x="566" y="691"/>
      <point x="579" y="662"/>
      <point x="569" y="636" type="curve" smooth="yes"/>
      <point x="338" y="33" type="line" smooth="yes"/>
      <point x="330" y="13"/>
      <point x="311" y="0"/>
      <point x="291" y="0" type="curve" smooth="yes"/>
      <point x="290" y="0"/>
      <point x="290" y="0"/>
      <point x="290" y="0" type="curve" smooth="yes"/>
      <point x="269" y="0"/>
      <point x="250" y="14"/>
      <point x="243" y="33" type="curve" smooth="yes"/>
      <point x="19" y="632" type="line" smooth="yes"/>
      <point x="9" y="658"/>
      <point x="22" y="687"/>
      <point x="48" y="696" type="curve" smooth="yes"/>
      <point x="74" y="706"/>
      <point x="102" y="693"/>
      <point x="112" y="667" type="curve" smooth="yes"/>
      <point x="291" y="189" type="line"/>
      <point x="476" y="671" type="line" smooth="yes"/>
      <point x="486" y="697"/>
      <point x="514" y="710"/>
    </contour>
  </outline>
</glyph>
<glyph name="W" format="2">
  <advance width="871"/>
  <unicode hex="0057"/>
  <outline>
    <contour>
      <point x="838" y="700" type="curve" smooth="yes"/>
      <point x="864" y="691"/>
      <point x="877" y="662"/>
      <point x="867" y="636" type="curve" smooth="yes"/>
      <point x="636" y="33" type="line" smooth="yes"/>
      <point x="628" y="13"/>
      <point x="609" y="0"/>
      <point x="589" y="0" type="curve" smooth="yes"/>
      <point x="588" y="0" type="line" smooth="yes"/>
      <point x="567" y="0"/>
      <point x="548" y="14"/>
      <point x="541" y="33" type="curve" smooth="yes"/>
      <point x="432" y="314" type="line"/>
      <point x="321" y="33" type="line" smooth="yes"/>
      <point x="313" y="13"/>
      <point x="294" y="0"/>
      <point x="274" y="0" type="curve" smooth="yes"/>
      <point x="273" y="0" type="line" smooth="yes"/>
      <point x="252" y="0"/>
      <point x="233" y="14"/>
      <point x="226" y="33" type="curve" smooth="yes"/>
      <point x="2" y="632" type="line" smooth="yes"/>
      <point x="-8" y="658"/>
      <point x="5" y="687"/>
      <point x="31" y="696" type="curve" smooth="yes"/>
      <point x="57" y="706"/>
      <point x="85" y="693"/>
      <point x="95" y="667" type="curve" smooth="yes"/>
      <point x="274" y="189" type="line"/>
      <point x="385" y="470" type="line" smooth="yes"/>
      <point x="393" y="490"/>
      <point x="412" y="503"/>
      <point x="432" y="502" type="curve" smooth="yes"/>
      <point x="453" y="503"/>
      <point x="472" y="490"/>
      <point x="479" y="470" type="curve" smooth="yes"/>
      <point x="589" y="189" type="line"/>
      <point x="774" y="671" type="line" smooth="yes"/>
      <point x="784" y="697"/>
      <point x="812" y="710"/>
    </contour>
  </outline>
</glyph>
<glyph name="X" format="2">
  <advance width="611"/>
  <unicode hex="0058"/>
  <outline>
    <contour>
      <point x="374" y="350" type="line"/>
      <point x="583" y="83" type="line" smooth="yes"/>
      <point x="600" y="61"/>
      <point x="596" y="30"/>
      <point x="574" y="14" type="curve" smooth="yes"/>
      <point x="565" y="7"/>
      <point x="555" y="3"/>
      <point x="544" y="3" type="curve" smooth="yes"/>
      <point x="529" y="3"/>
      <point x="515" y="10"/>
      <point x="505" y="22" type="curve" smooth="yes"/>
      <point x="311" y="269" type="line"/>
      <point x="108" y="19" type="line" smooth="yes"/>
      <point x="98" y="7"/>
      <point x="84" y="0"/>
      <point x="69" y="0" type="curve" smooth="yes"/>
      <point x="58" y="0"/>
      <point x="48" y="4"/>
      <point x="39" y="11" type="curve" smooth="yes"/>
      <point x="17" y="27"/>
      <point x="13" y="58"/>
      <point x="30" y="80" type="curve" smooth="yes"/>
      <point x="248" y="350" type="line"/>
      <point x="32" y="618" type="line" smooth="yes"/>
      <point x="15" y="640"/>
      <point x="19" y="671"/>
      <point x="41" y="688" type="curve" smooth="yes"/>
      <point x="62" y="705"/>
      <point x="93" y="701"/>
      <point x="110" y="679" type="curve" smooth="yes"/>
      <point x="311" y="431" type="line"/>
      <point x="508" y="679" type="line" smooth="yes"/>
      <point x="525" y="701"/>
      <point x="556" y="705"/>
      <point x="577" y="688" type="curve" smooth="yes"/>
      <point x="599" y="671"/>
      <point x="603" y="640"/>
      <point x="586" y="618" type="curve" smooth="yes"/>
    </contour>
  </outline>
</glyph>
<glyph name="Z" format="2">
  <advance width="602"/>
  <unicode hex="005A"/>
  <outline>
    <contour>
      <point x="523" y="99" type="line" smooth="yes"/>
      <point x="550" y="99"/>
      <point x="572" y="77"/>
      <point x="572" y="50" type="curve" smooth="yes"/>
      <point x="572" y="23"/>
      <point x="550" y="0"/>
      <point x="523" y="0" type="curve"/>
      <point x="523" y="0"/>
      <point x="523" y="0"/>
      <point x="523" y="0" type="curve"/>
      <point x="70" y="0" type="line" smooth="yes"/>
      <point x="51" y="0"/>
      <point x="33" y="11"/>
      <point x="25" y="28" type="curve" smooth="yes"/>
      <point x="16" y="46"/>
      <point x="18" y="66"/>
      <point x="30" y="81" type="curve" smooth="yes"/>
      <point x="424" y="602" type="line"/>
      <point x="73" y="602" type="line" smooth="yes"/>
      <point x="46" y="602"/>
      <point x="24" y="625"/>
      <point x="24" y="652" type="curve" smooth="yes"/>
      <point x="24" y="679"/>
      <point x="46" y="701"/>
      <point x="73" y="701" type="curve" smooth="yes"/>
      <point x="523" y="701" type="line" smooth="yes"/>
      <point x="542" y="701"/>
      <point x="560" y="691"/>
      <point x="568" y="673" type="curve" smooth="yes"/>
      <point x="577" y="656"/>
      <point x="575" y="636"/>
      <point x="563" y="621" type="curve" smooth="yes"/>
      <point x="169" y="99" type="line"/>
    </contour>
  </outline>
</glyph>
<glyph name="bracketleft" format="2">
  <advance width="265"/>
  <unicode hex="005B"/>
  <outline>
    <contour>
      <point x="83" y="0" type="line"/>
      <point x="81" y="0" type="line"/>
      <point x="79" y="0" type="line" smooth="yes"/>
      <point x="52" y="1"/>
      <point x="31" y="22"/>
      <point x="31" y="50" type="curve" smooth="yes"/>
      <point x="31" y="700" type="line" smooth="yes"/>
      <point x="31" y="726"/>
      <point x="52" y="748"/>
      <point x="79" y="749" type="curve" smooth="yes"/>
      <point x="83" y="749" type="line"/>
      <point x="85" y="749" type="line"/>
      <point x="186" y="749" type="line" smooth="yes"/>
      <point x="213" y="749"/>
      <point x="235" y="727"/>
      <point x="235" y="699" type="curve" smooth="yes"/>
      <point x="235" y="672"/>
      <point x="213" y="650"/>
      <point x="186" y="650" type="curve" smooth="yes"/>
      <point x="130" y="650" type="line"/>
      <point x="130" y="99" type="line"/>
      <point x="186" y="99" type="line" smooth="yes"/>
      <point x="213" y="99"/>
      <point x="235" y="77"/>
      <point x="235" y="49" type="curve" smooth="yes"/>
      <point x="235" y="22"/>
      <point x="213" y="0"/>
      <point x="186" y="0" type="curve" smooth="yes"/>
    </contour>
  </outline>
</glyph>
<glyph name="backslash" format="2">
  <advance width="503"/>
  <unicode hex="005C"/>
  <outline>
    <contour>
      <point x="457" y="5" type="curve" smooth="yes"/>
      <point x="434" y="-9"/>
      <point x="408" y="-3"/>
      <point x="389" y="21" type="curve" smooth="yes"/>
      <point x="24" y="621" type="line" smooth="yes"/>
      <point x="9" y="645"/>
      <point x="17" y="676"/>
      <point x="41" y="690" type="curve" smooth="yes"/>
      <point x="64" y="704"/>
      <point x="95" y="697"/>
      <point x="109" y="673" type="curve" smooth="yes"/>
      <point x="474" y="73" type="line" smooth="yes"/>
      <point x="488" y="50"/>
      <point x="481" y="19"/>
    </contour>
  </outline>
</glyph>
<glyph name="bracketright" format="2">
  <advance width="271"/>
  <unicode hex="005D"/>
  <outline>
    <contour>
      <point x="185" y="0" type="line"/>
      <point x="183" y="0" type="line"/>
      <point x="80" y="0" type="line" smooth="yes"/>
      <point x="53" y="0"/>
      <point x="31" y="22"/>
      <point x="31" y="49" type="curve" smooth="yes"/>
      <point x="31" y="77"/>
      <point x="53" y="99"/>
      <point x="80" y="99" type="curve" smooth="yes"/>
      <point x="136" y="99" type="line"/>
      <point x="136" y="650" type="line"/>
      <point x="80" y="650" type="line" smooth="yes"/>
      <point x="53" y="650"/>
      <point x="31" y="672"/>
      <point x="31" y="699" type="curve" smooth="yes"/>
      <point x="31" y="727"/>
      <point x="53" y="749"/>
      <point x="80" y="749" type="curve" smooth="yes"/>
      <point x="181" y="749" type="line"/>
      <point x="183" y="749" type="line"/>
      <point x="187" y="749" type="line" smooth="yes"/>
      <point x="214" y="748"/>
      <point x="235" y="726"/>
      <point x="235" y="700" type="curve" smooth="yes"/>
      <point x="235" y="50" type="line" smooth="yes"/>
      <point x="235" y="22"/>
      <point x="214" y="1"/>
      <point x="187" y="0" type="curve" smooth="yes"/>
    </contour>
  </outline>
</glyph>
<glyph name="asciicircum" format="2">
  <advance width="558"/>
  <unicode hex="005E"/>
  <outline>
    <contour>
      <point x="511" y="403" type="curve" smooth="yes"/>
      <point x="492" y="384"/>
      <point x="460" y="384"/>
      <point x="441" y="403" type="curve" smooth="yes"/>
      <point x="280" y="571" type="line"/>
      <point x="112" y="405" type="line" smooth="yes"/>
      <point x="93" y="386"/>
      <point x="61" y="386"/>
      <point x="42" y="405" type="curve" smooth="yes"/>
      <point x="23" y="425"/>
      <point x="23" y="456"/>
      <point x="42" y="475" type="curve" smooth="yes"/>
      <point x="115" y="549"/>
      <point x="243" y="674"/>
      <point x="245" y="676" type="curve" smooth="yes"/>
      <point x="255" y="686"/>
      <point x="268" y="691"/>
      <point x="280" y="691" type="curve" smooth="yes"/>
      <point x="293" y="691"/>
      <point x="306" y="686"/>
      <point x="316" y="676" type="curve" smooth="yes"/>
      <point x="318" y="674"/>
      <point x="438" y="547"/>
      <point x="511" y="473" type="curve" smooth="yes"/>
      <point x="530" y="454"/>
      <point x="530" y="423"/>
    </contour>
  </outline>
</glyph>
<glyph name="underscore" format="2">
  <advance width="668"/>
  <unicode hex="005F"/>
  <outline>
    <contour>
      <point x="33" y="51" type="curve" smooth="yes"/>
      <point x="33" y="79"/>
      <point x="55" y="101"/>
      <point x="83" y="101" type="curve" smooth="yes"/>
      <point x="583" y="101" type="line" smooth="yes"/>
      <point x="610" y="101"/>
      <point x="632" y="79"/>
      <point x="632" y="51" type="curve" smooth="yes"/>
      <point x="632" y="24"/>
      <point x="610" y="2"/>
      <point x="583" y="2" type="curve" smooth="yes"/>
      <point x="83" y="2" type="line" smooth="yes"/>
      <point x="55" y="2"/>
      <point x="33" y="24"/>
    </contour>
  </outline>
</glyph>
<glyph name="grave" format="2">
  <advance width="178"/>
  <unicode hex="0060"/>
  <outline>
    <contour>
      <point x="160" y="614" type="curve" smooth="yes"/>
      <point x="141" y="594"/>
      <point x="110" y="594"/>
      <point x="90" y="614" type="curve" smooth="yes"/>
      <point x="12" y="692" type="line" smooth="yes"/>
      <point x="-7" y="711"/>
      <point x="-7" y="742"/>
      <point x="12" y="762" type="curve" smooth="yes"/>
      <point x="31" y="781"/>
      <point x="63" y="781"/>
      <point x="82" y="762" type="curve" smooth="yes"/>
      <point x="160" y="684" type="line" smooth="yes"/>
      <point x="180" y="664"/>
      <point x="180" y="633"/>
    </contour>
  </outline>
</glyph>
<glyph name="a" format="2">
  <advance width="551"/>
  <unicode hex="0061"/>
  <outline>
    <contour>
      <point x="278" y="500" type="curve" smooth="yes"/>
      <point x="419" y="500"/>
      <point x="524" y="388"/>
      <point x="524" y="247" type="curve" smooth="yes"/>
      <point x="524" y="51" type="line" smooth="yes"/>
      <point x="524" y="22"/>
      <point x="503" y="1"/>
      <point x="474" y="1" type="curve" smooth="yes"/>
      <point x="454" y="1"/>
      <point x="426" y="22"/>
      <point x="426" y="51" type="curve"/>
      <point x="426" y="51" type="line"/>
      <point x="383" y="15"/>
      <point x="335" y="1"/>
      <point x="278" y="1" type="curve" smooth="yes"/>
      <point x="137" y="1"/>
      <point x="25" y="106"/>
      <point x="25" y="247" type="curve" smooth="yes"/>
      <point x="25" y="388"/>
      <point x="137" y="500"/>
    </contour>
    <contour>
      <point x="278" y="99" type="curve" smooth="yes"/>
      <point x="362" y="99"/>
      <point x="426" y="163"/>
      <point x="426" y="247" type="curve" smooth="yes"/>
      <point x="426" y="331"/>
      <point x="362" y="402"/>
      <point x="278" y="402" type="curve" smooth="yes"/>
      <point x="194" y="402"/>
      <point x="123" y="331"/>
      <point x="123" y="247" type="curve" smooth="yes"/>
      <point x="123" y="163"/>
      <point x="194" y="99"/>
    </contour>
  </outline>
</glyph>
<glyph name="b" format="2">
  <advance width="560"/>
  <unicode hex="0062"/>
  <outline>
    <contour>
      <point x="282" y="504" type="curve" smooth="yes"/>
      <point x="421" y="504"/>
      <point x="533" y="392"/>
      <point x="533" y="253" type="curve" smooth="yes"/>
      <point x="533" y="115"/>
      <point x="421" y="2"/>
      <point x="282" y="2" type="curve" smooth="yes"/>
      <point x="144" y="2"/>
      <point x="31" y="115"/>
      <point x="31" y="253" type="curve" smooth="yes"/>
      <point x="31" y="253"/>
      <point x="31" y="254"/>
      <point x="31" y="254" type="curve"/>
      <point x="31" y="702" type="line" smooth="yes"/>
      <point x="31" y="729"/>
      <point x="53" y="751"/>
      <point x="81" y="751" type="curve" smooth="yes"/>
      <point x="108" y="751"/>
      <point x="130" y="729"/>
      <point x="130" y="702" type="curve" smooth="yes"/>
      <point x="130" y="453" type="line"/>
      <point x="172" y="485"/>
      <point x="225" y="504"/>
    </contour>
    <contour>
      <point x="282" y="101" type="curve" smooth="yes"/>
      <point x="366" y="101"/>
      <point x="434" y="170"/>
      <point x="434" y="253" type="curve" smooth="yes"/>
      <point x="434" y="337"/>
      <point x="366" y="405"/>
      <point x="282" y="405" type="curve" smooth="yes"/>
      <point x="198" y="405"/>
      <point x="130" y="337"/>
      <point x="130" y="254" type="curve" smooth="yes"/>
      <point x="130" y="253" type="line"/>
      <point x="130" y="253"/>
      <point x="130" y="253"/>
      <point x="130" y="253" type="curve"/>
      <point x="130" y="169"/>
      <point x="198" y="101"/>
    </contour>
  </outline>
</glyph>
<glyph name="c" format="2">
  <advance width="531"/>
  <unicode hex="0063"/>
  <outline>
    <contour>
      <point x="276" y="-1" type="curve" smooth="yes"/>
      <point x="138" y="-1"/>
      <point x="26" y="112"/>
      <point x="26" y="250" type="curve" smooth="yes"/>
      <point x="26" y="389"/>
      <point x="138" y="501"/>
      <point x="276" y="501" type="curve" smooth="yes"/>
      <point x="366" y="501"/>
      <point x="449" y="453"/>
      <point x="494" y="376" type="curve" smooth="yes"/>
      <point x="508" y="352"/>
      <point x="499" y="322"/>
      <point x="476" y="308" type="curve" smooth="yes"/>
      <point x="452" y="295"/>
      <point x="422" y="303"/>
      <point x="408" y="326" type="curve" smooth="yes"/>
      <point x="381" y="373"/>
      <point x="331" y="402"/>
      <point x="276" y="402" type="curve" smooth="yes"/>
      <point x="193" y="402"/>
      <point x="124" y="334"/>
      <point x="124" y="250" type="curve" smooth="yes"/>
      <point x="124" y="167"/>
      <point x="193" y="98"/>
      <point x="276" y="98" type="curve" smooth="yes"/>
      <point x="328" y="98"/>
      <point x="376" y="124"/>
      <point x="404" y="168" type="curve" smooth="yes"/>
      <point x="419" y="191"/>
      <point x="450" y="197"/>
      <point x="473" y="183" type="curve" smooth="yes"/>
      <point x="496" y="168"/>
      <point x="502" y="137"/>
      <point x="487" y="114" type="curve" smooth="yes"/>
      <point x="441" y="42"/>
      <point x="362" y="-1"/>
    </contour>
  </outline>
</glyph>
<glyph name="d" format="2">
  <advance width="560"/>
  <unicode hex="0064"/>
  <outline>
    <contour>
      <point x="278" y="504" type="curve" smooth="yes"/>
      <point x="335" y="504"/>
      <point x="388" y="485"/>
      <point x="430" y="453" type="curve"/>
      <point x="430" y="702" type="line" smooth="yes"/>
      <point x="430" y="729"/>
      <point x="452" y="751"/>
      <point x="479" y="751" type="curve" smooth="yes"/>
      <point x="507" y="751"/>
      <point x="529" y="729"/>
      <point x="529" y="702" type="curve" smooth="yes"/>
      <point x="529" y="254" type="line"/>
      <point x="529" y="254"/>
      <point x="529" y="253"/>
      <point x="529" y="253" type="curve" smooth="yes"/>
      <point x="529" y="115"/>
      <point x="416" y="2"/>
      <point x="278" y="2" type="curve" smooth="yes"/>
      <point x="139" y="2"/>
      <point x="27" y="115"/>
      <point x="27" y="253" type="curve" smooth="yes"/>
      <point x="27" y="392"/>
      <point x="139" y="504"/>
    </contour>
    <contour>
      <point x="278" y="101" type="curve" smooth="yes"/>
      <point x="362" y="101"/>
      <point x="430" y="169"/>
      <point x="430" y="253" type="curve"/>
      <point x="430" y="253"/>
      <point x="430" y="253"/>
      <point x="430" y="253" type="curve"/>
      <point x="430" y="254" type="line" smooth="yes"/>
      <point x="430" y="337"/>
      <point x="362" y="405"/>
      <point x="278" y="405" type="curve" smooth="yes"/>
      <point x="194" y="405"/>
      <point x="126" y="337"/>
      <point x="126" y="253" type="curve" smooth="yes"/>
      <point x="126" y="170"/>
      <point x="194" y="101"/>
    </contour>
  </outline>
</glyph>
<glyph name="e" format="2">
  <advance width="513"/>
  <unicode hex="0065"/>
  <outline>
    <contour>
      <point x="257" y="502" type="curve" smooth="yes"/>
      <point x="378" y="502"/>
      <point x="508" y="414"/>
      <point x="508" y="251" type="curve" smooth="yes"/>
      <point x="508" y="224"/>
      <point x="486" y="202"/>
      <point x="458" y="202" type="curve" smooth="yes"/>
      <point x="113" y="202" type="line"/>
      <point x="134" y="142"/>
      <point x="190" y="99"/>
      <point x="257" y="99" type="curve" smooth="yes"/>
      <point x="280" y="99"/>
      <point x="321" y="101"/>
      <point x="369" y="132" type="curve" smooth="yes"/>
      <point x="392" y="147"/>
      <point x="423" y="133"/>
      <point x="435" y="109" type="curve" smooth="yes"/>
      <point x="447" y="84"/>
      <point x="434" y="58"/>
      <point x="411" y="43" type="curve" smooth="yes"/>
      <point x="345" y="-1"/>
      <point x="294" y="0"/>
      <point x="257" y="0" type="curve" smooth="yes"/>
      <point x="118" y="0"/>
      <point x="6" y="113"/>
      <point x="6" y="251" type="curve" smooth="yes"/>
      <point x="6" y="390"/>
      <point x="118" y="502"/>
    </contour>
    <contour>
      <point x="257" y="403" type="curve" smooth="yes"/>
      <point x="190" y="403"/>
      <point x="134" y="360"/>
      <point x="113" y="301" type="curve"/>
      <point x="402" y="301" type="line"/>
      <point x="381" y="371"/>
      <point x="317" y="403"/>
    </contour>
  </outline>
</glyph>
<glyph name="f" format="2">
  <advance width="354"/>
  <unicode hex="0066"/>
  <outline>
    <contour>
      <point x="324" y="502" type="line" smooth="yes"/>
      <point x="352" y="502"/>
      <point x="374" y="480"/>
      <point x="374" y="453" type="curve" smooth="yes"/>
      <point x="374" y="425"/>
      <point x="352" y="403"/>
      <point x="324" y="403" type="curve" smooth="yes"/>
      <point x="236" y="403" type="line"/>
      <point x="236" y="50" type="line" smooth="yes"/>
      <point x="236" y="22"/>
      <point x="214" y="0"/>
      <point x="186" y="0" type="curve" smooth="yes"/>
      <point x="159" y="0"/>
      <point x="137" y="22"/>
      <point x="137" y="50" type="curve" smooth="yes"/>
      <point x="137" y="403" type="line"/>
      <point x="82" y="403" type="line" smooth="yes"/>
      <point x="55" y="403"/>
      <point x="33" y="425"/>
      <point x="33" y="453" type="curve" smooth="yes"/>
      <point x="33" y="480"/>
      <point x="55" y="502"/>
      <point x="82" y="502" type="curve" smooth="yes"/>
      <point x="137" y="502" type="line"/>
      <point x="136" y="573"/>
      <point x="162" y="638"/>
      <point x="210" y="686" type="curve" smooth="yes"/>
      <point x="237" y="713"/>
      <point x="268" y="733"/>
      <point x="304" y="745" type="curve" smooth="yes"/>
      <point x="329" y="755"/>
      <point x="358" y="741"/>
      <point x="367" y="715" type="curve" smooth="yes"/>
      <point x="376" y="690"/>
      <point x="363" y="661"/>
      <point x="337" y="652" type="curve" smooth="yes"/>
      <point x="316" y="645"/>
      <point x="297" y="633"/>
      <point x="280" y="616" type="curve" smooth="yes"/>
      <point x="250" y="586"/>
      <point x="236" y="547"/>
      <point x="236" y="502" type="curve"/>
    </contour>
  </outline>
</glyph>
<glyph name="g" format="2">
  <advance width="554"/>
  <unicode hex="0067"/>
  <outline>
    <contour>
      <point x="528" y="251" type="curve" smooth="yes"/>
      <point x="528" y="251"/>
      <point x="528" y="251"/>
      <point x="528" y="0" type="curve" smooth="yes"/>
      <point x="528" y="-138"/>
      <point x="415" y="-251"/>
      <point x="277" y="-251" type="curve" smooth="yes"/>
      <point x="180" y="-251"/>
      <point x="94" y="-197"/>
      <point x="51" y="-110" type="curve" smooth="yes"/>
      <point x="39" y="-85"/>
      <point x="49" y="-56"/>
      <point x="74" y="-44" type="curve" smooth="yes"/>
      <point x="98" y="-32"/>
      <point x="128" y="-42"/>
      <point x="140" y="-66" type="curve" smooth="yes"/>
      <point x="166" y="-119"/>
      <point x="218" y="-152"/>
      <point x="277" y="-152" type="curve" smooth="yes"/>
      <point x="360" y="-152"/>
      <point x="427" y="-85"/>
      <point x="429" y="-3" type="curve" smooth="yes"/>
      <point x="429" y="-2"/>
      <point x="429" y="-1"/>
      <point x="429" y="52" type="curve"/>
      <point x="386" y="20"/>
      <point x="334" y="0"/>
      <point x="277" y="0" type="curve" smooth="yes"/>
      <point x="138" y="0"/>
      <point x="26" y="113"/>
      <point x="26" y="251" type="curve" smooth="yes"/>
      <point x="26" y="390"/>
      <point x="138" y="502"/>
      <point x="277" y="502" type="curve" smooth="yes"/>
      <point x="415" y="502"/>
      <point x="528" y="390"/>
    </contour>
    <contour>
      <point x="277" y="99" type="curve" smooth="yes"/>
      <point x="360" y="99"/>
      <point x="429" y="168"/>
      <point x="429" y="251" type="curve" smooth="yes"/>
      <point x="429" y="335"/>
      <point x="360" y="403"/>
      <point x="277" y="403" type="curve" smooth="yes"/>
      <point x="193" y="403"/>
      <point x="125" y="335"/>
      <point x="125" y="251" type="curve" smooth="yes"/>
      <point x="125" y="168"/>
      <point x="193" y="99"/>
    </contour>
  </outline>
</glyph>
<glyph name="h" format="2">
  <advance width="502"/>
  <unicode hex="0068"/>
  <outline>
    <contour>
      <point x="251" y="502" type="curve" smooth="yes"/>
      <point x="373" y="502"/>
      <point x="472" y="403"/>
      <point x="472" y="282" type="curve" smooth="yes"/>
      <point x="472" y="50" type="line" smooth="yes"/>
      <point x="472" y="22"/>
      <point x="449" y="0"/>
      <point x="422" y="0" type="curve" smooth="yes"/>
      <point x="395" y="0"/>
      <point x="373" y="22"/>
      <point x="373" y="50" type="curve" smooth="yes"/>
      <point x="373" y="282" type="line" smooth="yes"/>
      <point x="373" y="349"/>
      <point x="318" y="403"/>
      <point x="251" y="403" type="curve" smooth="yes"/>
      <point x="184" y="403"/>
      <point x="130" y="349"/>
      <point x="130" y="282" type="curve" smooth="yes"/>
      <point x="130" y="50" type="line" smooth="yes"/>
      <point x="130" y="22"/>
      <point x="108" y="0"/>
      <point x="80" y="0" type="curve" smooth="yes"/>
      <point x="53" y="0"/>
      <point x="31" y="22"/>
      <point x="31" y="50" type="curve" smooth="yes"/>
      <point x="31" y="701" type="line" smooth="yes"/>
      <point x="31" y="728"/>
      <point x="53" y="750"/>
      <point x="80" y="750" type="curve" smooth="yes"/>
      <point x="108" y="750"/>
      <point x="130" y="728"/>
      <point x="130" y="701" type="curve" smooth="yes"/>
      <point x="130" y="466" type="line"/>
      <point x="165" y="489"/>
      <point x="206" y="502"/>
    </contour>
  </outline>
</glyph>
<glyph name="i" format="2">
  <advance width="161"/>
  <unicode hex="0069"/>
  <outline>
    <contour>
      <point x="81" y="-1" type="curve" smooth="yes"/>
      <point x="53" y="-1"/>
      <point x="31" y="21"/>
      <point x="31" y="49" type="curve" smooth="yes"/>
      <point x="31" y="452" type="line" smooth="yes"/>
      <point x="31" y="479"/>
      <point x="53" y="501"/>
      <point x="81" y="501" type="curve" smooth="yes"/>
      <point x="108" y="501"/>
      <point x="130" y="479"/>
      <point x="130" y="452" type="curve" smooth="yes"/>
      <point x="130" y="49" type="line" smooth="yes"/>
      <point x="130" y="21"/>
      <point x="108" y="-1"/>
    </contour>
    <contour>
      <point x="81" y="601" type="curve" smooth="yes"/>
      <point x="68" y="601"/>
      <point x="55" y="606"/>
      <point x="46" y="615" type="curve" smooth="yes"/>
      <point x="37" y="624"/>
      <point x="31" y="637"/>
      <point x="31" y="650" type="curve" smooth="yes"/>
      <point x="31" y="663"/>
      <point x="37" y="676"/>
      <point x="46" y="685" type="curve" smooth="yes"/>
      <point x="55" y="694"/>
      <point x="68" y="700"/>
      <point x="81" y="700" type="curve" smooth="yes"/>
      <point x="94" y="700"/>
      <point x="107" y="694"/>
      <point x="116" y="685" type="curve" smooth="yes"/>
      <point x="125" y="676"/>
      <point x="130" y="663"/>
      <point x="130" y="650" type="curve" smooth="yes"/>
      <point x="130" y="637"/>
      <point x="125" y="624"/>
      <point x="116" y="615" type="curve" smooth="yes"/>
      <point x="107" y="606"/>
      <point x="94" y="601"/>
    </contour>
  </outline>
</glyph>
<glyph name="j" format="2">
  <advance width="161"/>
  <unicode hex="006A"/>
  <outline>
    <contour>
      <point x="80" y="500" type="curve" smooth="yes"/>
      <point x="108" y="500"/>
      <point x="130" y="478"/>
      <point x="130" y="451" type="curve" smooth="yes"/>
      <point x="130" y="-10" type="line"/>
      <point x="130" y="-10"/>
      <point x="130" y="-10"/>
      <point x="130" y="-11" type="curve" smooth="yes"/>
      <point x="130" y="-79"/>
      <point x="104" y="-143"/>
      <point x="56" y="-191" type="curve" smooth="yes"/>
      <point x="30" y="-217"/>
      <point x="-2" y="-237"/>
      <point x="-37" y="-250" type="curve" smooth="yes"/>
      <point x="-42" y="-252"/>
      <point x="-48" y="-253"/>
      <point x="-54" y="-253" type="curve" smooth="yes"/>
      <point x="-74" y="-253"/>
      <point x="-93" y="-240"/>
      <point x="-100" y="-220" type="curve" smooth="yes"/>
      <point x="-109" y="-194"/>
      <point x="-96" y="-166"/>
      <point x="-70" y="-157" type="curve" smooth="yes"/>
      <point x="-49" y="-149"/>
      <point x="-30" y="-137"/>
      <point x="-14" y="-121" type="curve" smooth="yes"/>
      <point x="16" y="-91"/>
      <point x="32" y="-52"/>
      <point x="31" y="-11" type="curve" smooth="yes"/>
      <point x="31" y="-10"/>
      <point x="31" y="-9"/>
      <point x="31" y="-8" type="curve" smooth="yes"/>
      <point x="31" y="451" type="line" smooth="yes"/>
      <point x="31" y="478"/>
      <point x="53" y="500"/>
    </contour>
    <contour>
      <point x="80" y="600" type="curve" smooth="yes"/>
      <point x="67" y="600"/>
      <point x="55" y="605"/>
      <point x="45" y="614" type="curve" smooth="yes"/>
      <point x="36" y="623"/>
      <point x="31" y="636"/>
      <point x="31" y="649" type="curve" smooth="yes"/>
      <point x="31" y="662"/>
      <point x="36" y="675"/>
      <point x="45" y="684" type="curve" smooth="yes"/>
      <point x="55" y="693"/>
      <point x="67" y="699"/>
      <point x="80" y="699" type="curve" smooth="yes"/>
      <point x="93" y="699"/>
      <point x="106" y="693"/>
      <point x="115" y="684" type="curve" smooth="yes"/>
      <point x="125" y="675"/>
      <point x="130" y="662"/>
      <point x="130" y="649" type="curve" smooth="yes"/>
      <point x="130" y="636"/>
      <point x="125" y="623"/>
      <point x="115" y="614" type="curve" smooth="yes"/>
      <point x="106" y="605"/>
      <point x="93" y="600"/>
    </contour>
  </outline>
</glyph>
<glyph name="k" format="2">
  <advance width="448"/>
  <unicode hex="006B"/>
  <outline>
    <contour>
      <point x="431" y="83" type="line" smooth="yes"/>
      <point x="448" y="62"/>
      <point x="445" y="31"/>
      <point x="424" y="14" type="curve" smooth="yes"/>
      <point x="415" y="6"/>
      <point x="404" y="2"/>
      <point x="393" y="2" type="curve" smooth="yes"/>
      <point x="378" y="2"/>
      <point x="364" y="8"/>
      <point x="355" y="20" type="curve" smooth="yes"/>
      <point x="165" y="248" type="line"/>
      <point x="134" y="227" type="line"/>
      <point x="134" y="52" type="line" smooth="yes"/>
      <point x="134" y="24"/>
      <point x="111" y="2"/>
      <point x="84" y="2" type="curve" smooth="yes"/>
      <point x="57" y="2"/>
      <point x="35" y="24"/>
      <point x="35" y="52" type="curve" smooth="yes"/>
      <point x="35" y="253" type="line"/>
      <point x="35" y="253"/>
      <point x="35" y="253"/>
      <point x="35" y="253" type="curve"/>
      <point x="35" y="700" type="line" smooth="yes"/>
      <point x="35" y="727"/>
      <point x="57" y="749"/>
      <point x="84" y="749" type="curve" smooth="yes"/>
      <point x="111" y="749"/>
      <point x="134" y="727"/>
      <point x="134" y="700" type="curve" smooth="yes"/>
      <point x="134" y="344" type="line"/>
      <point x="361" y="493" type="line" smooth="yes"/>
      <point x="382" y="510"/>
      <point x="413" y="508"/>
      <point x="431" y="487" type="curve" smooth="yes"/>
      <point x="448" y="466"/>
      <point x="445" y="434"/>
      <point x="424" y="417" type="curve" smooth="yes"/>
      <point x="249" y="302" type="line"/>
    </contour>
  </outline>
</glyph>
<glyph name="l" format="2">
  <advance width="161"/>
  <unicode hex="006C"/>
  <outline>
    <contour>
      <point x="81" y="-1" type="curve" smooth="yes"/>
      <point x="53" y="-1"/>
      <point x="31" y="21"/>
      <point x="31" y="49" type="curve" smooth="yes"/>
      <point x="31" y="700" type="line" smooth="yes"/>
      <point x="31" y="727"/>
      <point x="53" y="749"/>
      <point x="81" y="749" type="curve" smooth="yes"/>
      <point x="108" y="749"/>
      <point x="130" y="727"/>
      <point x="130" y="700" type="curve" smooth="yes"/>
      <point x="130" y="49" type="line" smooth="yes"/>
      <point x="130" y="21"/>
      <point x="108" y="-1"/>
    </contour>
  </outline>
</glyph>
<glyph name="m" format="2">
  <advance width="765"/>
  <unicode hex="006D"/>
  <outline>
    <contour>
      <point x="735" y="300" type="curve" smooth="yes"/>
      <point x="735" y="298"/>
      <point x="735" y="297"/>
      <point x="734" y="296" type="curve" smooth="yes"/>
      <point x="735" y="294"/>
      <point x="735" y="293"/>
      <point x="735" y="291" type="curve" smooth="yes"/>
      <point x="735" y="48" type="line" smooth="yes"/>
      <point x="735" y="20"/>
      <point x="712" y="-2"/>
      <point x="685" y="-2" type="curve" smooth="yes"/>
      <point x="658" y="-2"/>
      <point x="636" y="20"/>
      <point x="636" y="48" type="curve" smooth="yes"/>
      <point x="636" y="291" type="line" smooth="yes"/>
      <point x="636" y="293"/>
      <point x="636" y="294"/>
      <point x="636" y="296" type="curve" smooth="yes"/>
      <point x="636" y="297"/>
      <point x="636" y="298"/>
      <point x="636" y="300" type="curve" smooth="yes"/>
      <point x="636" y="356"/>
      <point x="590" y="401"/>
      <point x="534" y="401" type="curve" smooth="yes"/>
      <point x="478" y="401"/>
      <point x="432" y="356"/>
      <point x="432" y="300" type="curve" smooth="yes"/>
      <point x="432" y="48" type="line" smooth="yes"/>
      <point x="432" y="20"/>
      <point x="410" y="-2"/>
      <point x="383" y="-2" type="curve" smooth="yes"/>
      <point x="356" y="-2"/>
      <point x="333" y="20"/>
      <point x="333" y="48" type="curve" smooth="yes"/>
      <point x="333" y="300" type="line" smooth="yes"/>
      <point x="333" y="356"/>
      <point x="288" y="401"/>
      <point x="232" y="401" type="curve" smooth="yes"/>
      <point x="176" y="401"/>
      <point x="130" y="356"/>
      <point x="130" y="300" type="curve" smooth="yes"/>
      <point x="130" y="48" type="line" smooth="yes"/>
      <point x="130" y="20"/>
      <point x="108" y="-2"/>
      <point x="81" y="-2" type="curve" smooth="yes"/>
      <point x="53" y="-2"/>
      <point x="31" y="20"/>
      <point x="31" y="48" type="curve" smooth="yes"/>
      <point x="31" y="300" type="line" smooth="yes"/>
      <point x="31" y="410"/>
      <point x="121" y="500"/>
      <point x="232" y="500" type="curve" smooth="yes"/>
      <point x="292" y="500"/>
      <point x="346" y="474"/>
      <point x="383" y="431" type="curve"/>
      <point x="420" y="474"/>
      <point x="474" y="500"/>
      <point x="534" y="500" type="curve" smooth="yes"/>
      <point x="645" y="500"/>
      <point x="735" y="410"/>
    </contour>
  </outline>
</glyph>
<glyph name="n" format="2">
  <advance width="554"/>
  <unicode hex="006E"/>
  <outline>
    <contour>
      <point x="277" y="502" type="curve" smooth="yes"/>
      <point x="415" y="502"/>
      <point x="528" y="390"/>
      <point x="528" y="251" type="curve" smooth="yes"/>
      <point x="528" y="50" type="line" smooth="yes"/>
      <point x="528" y="22"/>
      <point x="506" y="0"/>
      <point x="478" y="0" type="curve" smooth="yes"/>
      <point x="451" y="0"/>
      <point x="429" y="22"/>
      <point x="429" y="50" type="curve" smooth="yes"/>
      <point x="429" y="251" type="line" smooth="yes"/>
      <point x="429" y="335"/>
      <point x="361" y="403"/>
      <point x="277" y="403" type="curve" smooth="yes"/>
      <point x="193" y="403"/>
      <point x="125" y="335"/>
      <point x="125" y="251" type="curve" smooth="yes"/>
      <point x="125" y="50" type="line" smooth="yes"/>
      <point x="125" y="22"/>
      <point x="103" y="0"/>
      <point x="75" y="0" type="curve" smooth="yes"/>
      <point x="48" y="0"/>
      <point x="26" y="22"/>
      <point x="26" y="50" type="curve" smooth="yes"/>
      <point x="26" y="251" type="line" smooth="yes"/>
      <point x="26" y="390"/>
      <point x="139" y="502"/>
    </contour>
  </outline>
</glyph>
<glyph name="o" format="2">
  <advance width="554"/>
  <unicode hex="006F"/>
  <outline>
    <contour>
      <point x="277" y="0" type="curve" smooth="yes"/>
      <point x="139" y="0"/>
      <point x="26" y="113"/>
      <point x="26" y="251" type="curve" smooth="yes"/>
      <point x="26" y="390"/>
      <point x="139" y="502"/>
      <point x="277" y="502" type="curve" smooth="yes"/>
      <point x="416" y="502"/>
      <point x="528" y="390"/>
      <point x="528" y="251" type="curve" smooth="yes"/>
      <point x="528" y="113"/>
      <point x="416" y="0"/>
    </contour>
    <contour>
      <point x="277" y="403" type="curve" smooth="yes"/>
      <point x="193" y="403"/>
      <point x="125" y="335"/>
      <point x="125" y="251" type="curve" smooth="yes"/>
      <point x="125" y="168"/>
      <point x="193" y="99"/>
      <point x="277" y="99" type="curve" smooth="yes"/>
      <point x="361" y="99"/>
      <point x="429" y="168"/>
      <point x="429" y="251" type="curve" smooth="yes"/>
      <point x="429" y="335"/>
      <point x="361" y="403"/>
    </contour>
  </outline>
</glyph>
<glyph name="p" format="2">
  <advance width="552"/>
  <unicode hex="0070"/>
  <outline>
    <contour>
      <point x="276" y="-4" type="curve" smooth="yes"/>
      <point x="219" y="-4"/>
      <point x="166" y="15"/>
      <point x="124" y="47" type="curve"/>
      <point x="124" y="-202" type="line" smooth="yes"/>
      <point x="124" y="-229"/>
      <point x="102" y="-251"/>
      <point x="75" y="-251" type="curve" smooth="yes"/>
      <point x="47" y="-251"/>
      <point x="25" y="-229"/>
      <point x="25" y="-202" type="curve" smooth="yes"/>
      <point x="25" y="246" type="line"/>
      <point x="25" y="246"/>
      <point x="25" y="247"/>
      <point x="25" y="247" type="curve" smooth="yes"/>
      <point x="25" y="385"/>
      <point x="138" y="498"/>
      <point x="276" y="498" type="curve" smooth="yes"/>
      <point x="415" y="498"/>
      <point x="527" y="385"/>
      <point x="527" y="247" type="curve" smooth="yes"/>
      <point x="527" y="108"/>
      <point x="415" y="-4"/>
    </contour>
    <contour>
      <point x="276" y="399" type="curve" smooth="yes"/>
      <point x="192" y="399"/>
      <point x="124" y="331"/>
      <point x="124" y="247" type="curve"/>
      <point x="124" y="247"/>
      <point x="124" y="247"/>
      <point x="124" y="247" type="curve"/>
      <point x="124" y="246" type="line" smooth="yes"/>
      <point x="124" y="163"/>
      <point x="192" y="95"/>
      <point x="276" y="95" type="curve" smooth="yes"/>
      <point x="360" y="95"/>
      <point x="428" y="163"/>
      <point x="428" y="247" type="curve" smooth="yes"/>
      <point x="428" y="330"/>
      <point x="360" y="399"/>
    </contour>
  </outline>
</glyph>
<glyph name="q" format="2">
  <advance width="552"/>
  <unicode hex="0071"/>
  <outline>
    <contour>
      <point x="276" y="-4" type="curve" smooth="yes"/>
      <point x="137" y="-4"/>
      <point x="25" y="108"/>
      <point x="25" y="247" type="curve" smooth="yes"/>
      <point x="25" y="385"/>
      <point x="137" y="498"/>
      <point x="276" y="498" type="curve" smooth="yes"/>
      <point x="414" y="498"/>
      <point x="527" y="385"/>
      <point x="527" y="247" type="curve" smooth="yes"/>
      <point x="527" y="247"/>
      <point x="527" y="246"/>
      <point x="527" y="246" type="curve"/>
      <point x="527" y="-202" type="line" smooth="yes"/>
      <point x="527" y="-229"/>
      <point x="505" y="-251"/>
      <point x="477" y="-251" type="curve" smooth="yes"/>
      <point x="450" y="-251"/>
      <point x="428" y="-229"/>
      <point x="428" y="-202" type="curve" smooth="yes"/>
      <point x="428" y="47" type="line"/>
      <point x="386" y="15"/>
      <point x="333" y="-4"/>
    </contour>
    <contour>
      <point x="276" y="399" type="curve" smooth="yes"/>
      <point x="192" y="399"/>
      <point x="124" y="330"/>
      <point x="124" y="247" type="curve" smooth="yes"/>
      <point x="124" y="163"/>
      <point x="192" y="95"/>
      <point x="276" y="95" type="curve" smooth="yes"/>
      <point x="360" y="95"/>
      <point x="428" y="163"/>
      <point x="428" y="246" type="curve" smooth="yes"/>
      <point x="428" y="247" type="line"/>
      <point x="428" y="247"/>
      <point x="428" y="247"/>
      <point x="428" y="247" type="curve"/>
      <point x="428" y="331"/>
      <point x="360" y="399"/>
    </contour>
  </outline>
</glyph>
<glyph name="r" format="2">
  <advance width="291"/>
  <unicode hex="0072"/>
  <outline>
    <contour>
      <point x="277" y="501" type="curve" smooth="yes"/>
      <point x="305" y="501"/>
      <point x="327" y="479"/>
      <point x="327" y="452" type="curve" smooth="yes"/>
      <point x="327" y="425"/>
      <point x="305" y="402"/>
      <point x="277" y="402" type="curve" smooth="yes"/>
      <point x="193" y="402"/>
      <point x="125" y="334"/>
      <point x="125" y="250" type="curve" smooth="yes"/>
      <point x="125" y="49" type="line" smooth="yes"/>
      <point x="125" y="22"/>
      <point x="103" y="-1"/>
      <point x="76" y="-1" type="curve" smooth="yes"/>
      <point x="48" y="-1"/>
      <point x="26" y="22"/>
      <point x="26" y="49" type="curve" smooth="yes"/>
      <point x="26" y="250" type="line" smooth="yes"/>
      <point x="26" y="389"/>
      <point x="139" y="501"/>
    </contour>
  </outline>
</glyph>
<glyph name="t" format="2">
  <advance width="343"/>
  <unicode hex="0074"/>
  <outline>
    <contour>
      <point x="288" y="501" type="line" smooth="yes"/>
      <point x="316" y="501"/>
      <point x="338" y="479"/>
      <point x="338" y="452" type="curve" smooth="yes"/>
      <point x="338" y="425"/>
      <point x="316" y="402"/>
      <point x="288" y="402" type="curve" smooth="yes"/>
      <point x="217" y="402" type="line"/>
      <point x="217" y="49" type="line" smooth="yes"/>
      <point x="217" y="22"/>
      <point x="195" y="-1"/>
      <point x="167" y="-1" type="curve" smooth="yes"/>
      <point x="140" y="-1"/>
      <point x="118" y="22"/>
      <point x="118" y="49" type="curve" smooth="yes"/>
      <point x="118" y="402" type="line"/>
      <point x="46" y="402" type="line" smooth="yes"/>
      <point x="19" y="402"/>
      <point x="-3" y="425"/>
      <point x="-3" y="452" type="curve" smooth="yes"/>
      <point x="-3" y="479"/>
      <point x="19" y="501"/>
      <point x="46" y="501" type="curve" smooth="yes"/>
      <point x="118" y="501" type="line"/>
      <point x="118" y="701" type="line" smooth="yes"/>
      <point x="118" y="728"/>
      <point x="140" y="750"/>
      <point x="167" y="750" type="curve" smooth="yes"/>
      <point x="195" y="750"/>
      <point x="217" y="728"/>
      <point x="217" y="701" type="curve" smooth="yes"/>
      <point x="217" y="501" type="line"/>
    </contour>
  </outline>
</glyph>
<glyph name="u" format="2">
  <advance width="467"/>
  <unicode hex="0075"/>
  <outline>
    <contour>
      <point x="387" y="501" type="curve" smooth="yes"/>
      <point x="414" y="501"/>
      <point x="436" y="479"/>
      <point x="436" y="452" type="curve" smooth="yes"/>
      <point x="436" y="201" type="line"/>
      <point x="436" y="201"/>
      <point x="436" y="200"/>
      <point x="436" y="200" type="curve" smooth="yes"/>
      <point x="435" y="89"/>
      <point x="345" y="-1"/>
      <point x="233" y="-1" type="curve" smooth="yes"/>
      <point x="122" y="-1"/>
      <point x="32" y="89"/>
      <point x="31" y="200" type="curve" smooth="yes"/>
      <point x="31" y="200"/>
      <point x="31" y="201"/>
      <point x="31" y="201" type="curve"/>
      <point x="31" y="452" type="line" smooth="yes"/>
      <point x="31" y="479"/>
      <point x="53" y="501"/>
      <point x="80" y="501" type="curve" smooth="yes"/>
      <point x="108" y="501"/>
      <point x="130" y="479"/>
      <point x="130" y="452" type="curve" smooth="yes"/>
      <point x="130" y="202" type="line" smooth="yes"/>
      <point x="130" y="145"/>
      <point x="176" y="98"/>
      <point x="233" y="98" type="curve" smooth="yes"/>
      <point x="291" y="98"/>
      <point x="337" y="145"/>
      <point x="337" y="202" type="curve" smooth="yes"/>
      <point x="337" y="452" type="line" smooth="yes"/>
      <point x="337" y="479"/>
      <point x="359" y="501"/>
    </contour>
  </outline>
</glyph>
<glyph name="v" format="2">
  <advance width="403"/>
  <unicode hex="0076"/>
  <outline>
    <contour>
      <point x="371" y="497" type="curve" smooth="yes"/>
      <point x="397" y="488"/>
      <point x="410" y="459"/>
      <point x="400" y="433" type="curve" smooth="yes"/>
      <point x="250" y="33" type="line" smooth="yes"/>
      <point x="242" y="13"/>
      <point x="223" y="0"/>
      <point x="203" y="0" type="curve" smooth="yes"/>
      <point x="202" y="0"/>
      <point x="202" y="0"/>
      <point x="202" y="0" type="curve" smooth="yes"/>
      <point x="181" y="0"/>
      <point x="162" y="14"/>
      <point x="155" y="33" type="curve" smooth="yes"/>
      <point x="5" y="433" type="line" smooth="yes"/>
      <point x="-5" y="459"/>
      <point x="8" y="488"/>
      <point x="34" y="497" type="curve" smooth="yes"/>
      <point x="60" y="507"/>
      <point x="88" y="494"/>
      <point x="98" y="468" type="curve" smooth="yes"/>
      <point x="203" y="189" type="line"/>
      <point x="307" y="468" type="line" smooth="yes"/>
      <point x="317" y="494"/>
      <point x="345" y="507"/>
    </contour>
  </outline>
</glyph>
<glyph name="w" format="2">
  <advance width="707"/>
  <unicode hex="0077"/>
  <outline>
    <contour>
      <point x="673" y="497" type="curve" smooth="yes"/>
      <point x="698" y="488"/>
      <point x="711" y="459"/>
      <point x="702" y="433" type="curve" smooth="yes"/>
      <point x="552" y="33" type="line" smooth="yes"/>
      <point x="544" y="14"/>
      <point x="525" y="0"/>
      <point x="504" y="0" type="curve"/>
      <point x="504" y="0"/>
      <point x="504" y="0"/>
      <point x="504" y="0" type="curve"/>
      <point x="483" y="0"/>
      <point x="464" y="13"/>
      <point x="457" y="33" type="curve" smooth="yes"/>
      <point x="353" y="310" type="line"/>
      <point x="250" y="33" type="line" smooth="yes"/>
      <point x="242" y="14"/>
      <point x="223" y="0"/>
      <point x="202" y="0" type="curve"/>
      <point x="202" y="0"/>
      <point x="202" y="0"/>
      <point x="202" y="0" type="curve"/>
      <point x="181" y="0"/>
      <point x="162" y="13"/>
      <point x="155" y="33" type="curve" smooth="yes"/>
      <point x="5" y="433" type="line" smooth="yes"/>
      <point x="-5" y="459"/>
      <point x="8" y="488"/>
      <point x="34" y="497" type="curve" smooth="yes"/>
      <point x="59" y="507"/>
      <point x="88" y="494"/>
      <point x="97" y="468" type="curve" smooth="yes"/>
      <point x="202" y="189" type="line"/>
      <point x="306" y="466" type="line" smooth="yes"/>
      <point x="311" y="480"/>
      <point x="321" y="492"/>
      <point x="336" y="497" type="curve" smooth="yes"/>
      <point x="341" y="499"/>
      <point x="346" y="500"/>
      <point x="351" y="500" type="curve"/>
      <point x="351" y="500"/>
      <point x="351" y="500"/>
      <point x="351" y="500" type="curve"/>
      <point x="352" y="500"/>
      <point x="353" y="500"/>
      <point x="353" y="500" type="curve" smooth="yes"/>
      <point x="354" y="500"/>
      <point x="354" y="500"/>
      <point x="354" y="500" type="curve" smooth="yes"/>
      <point x="355" y="500"/>
      <point x="355" y="500"/>
      <point x="356" y="500" type="curve" smooth="yes"/>
      <point x="356" y="500"/>
      <point x="356" y="500"/>
      <point x="357" y="500" type="curve" smooth="yes"/>
      <point x="357" y="500"/>
      <point x="358" y="500"/>
      <point x="358" y="500" type="curve" smooth="yes"/>
      <point x="359" y="500"/>
      <point x="359" y="500"/>
      <point x="359" y="500" type="curve" smooth="yes"/>
      <point x="360" y="500"/>
      <point x="360" y="500"/>
      <point x="360" y="500" type="curve" smooth="yes"/>
      <point x="361" y="500"/>
      <point x="361" y="500"/>
      <point x="362" y="500" type="curve" smooth="yes"/>
      <point x="362" y="500"/>
      <point x="362" y="499"/>
      <point x="363" y="499" type="curve" smooth="yes"/>
      <point x="363" y="499"/>
      <point x="364" y="499"/>
      <point x="364" y="499" type="curve" smooth="yes"/>
      <point x="365" y="499"/>
      <point x="365" y="499"/>
      <point x="365" y="499" type="curve" smooth="yes"/>
      <point x="366" y="499"/>
      <point x="366" y="499"/>
      <point x="367" y="498" type="curve"/>
      <point x="367" y="498"/>
      <point x="367" y="498"/>
      <point x="367" y="498" type="curve"/>
      <point x="368" y="498"/>
      <point x="369" y="498"/>
      <point x="369" y="498" type="curve"/>
      <point x="369" y="498"/>
      <point x="369" y="498"/>
      <point x="369" y="498" type="curve"/>
      <point x="370" y="497"/>
      <point x="370" y="497"/>
      <point x="371" y="497" type="curve" smooth="yes"/>
      <point x="385" y="492"/>
      <point x="396" y="480"/>
      <point x="400" y="466" type="curve" smooth="yes"/>
      <point x="504" y="189" type="line"/>
      <point x="609" y="468" type="line" smooth="yes"/>
      <point x="619" y="494"/>
      <point x="647" y="507"/>
    </contour>
  </outline>
</glyph>
<glyph name="x" format="2">
  <advance width="412"/>
  <unicode hex="0078"/>
  <outline>
    <contour>
      <point x="271" y="251" type="line"/>
      <point x="403" y="80" type="line" smooth="yes"/>
      <point x="420" y="58"/>
      <point x="416" y="27"/>
      <point x="394" y="11" type="curve" smooth="yes"/>
      <point x="385" y="4"/>
      <point x="375" y="0"/>
      <point x="364" y="0" type="curve" smooth="yes"/>
      <point x="349" y="0"/>
      <point x="335" y="7"/>
      <point x="325" y="19" type="curve" smooth="yes"/>
      <point x="208" y="170" type="line"/>
      <point x="91" y="19" type="line" smooth="yes"/>
      <point x="81" y="7"/>
      <point x="67" y="0"/>
      <point x="52" y="0" type="curve" smooth="yes"/>
      <point x="41" y="0"/>
      <point x="31" y="4"/>
      <point x="22" y="11" type="curve" smooth="yes"/>
      <point x="0" y="27"/>
      <point x="-4" y="58"/>
      <point x="13" y="80" type="curve" smooth="yes"/>
      <point x="145" y="251" type="line"/>
      <point x="13" y="422" type="line" smooth="yes"/>
      <point x="-4" y="444"/>
      <point x="0" y="475"/>
      <point x="22" y="492" type="curve" smooth="yes"/>
      <point x="43" y="509"/>
      <point x="74" y="505"/>
      <point x="91" y="483" type="curve" smooth="yes"/>
      <point x="208" y="332" type="line"/>
      <point x="325" y="483" type="line" smooth="yes"/>
      <point x="342" y="505"/>
      <point x="373" y="509"/>
      <point x="394" y="492" type="curve" smooth="yes"/>
      <point x="416" y="475"/>
      <point x="420" y="444"/>
      <point x="403" y="422" type="curve" smooth="yes"/>
    </contour>
  </outline>
</glyph>
<glyph name="z" format="2">
  <advance width="452"/>
  <unicode hex="007A"/>
  <outline>
    <contour>
      <point x="383" y="99" type="line" smooth="yes"/>
      <point x="410" y="99"/>
      <point x="432" y="77"/>
      <point x="432" y="50" type="curve" smooth="yes"/>
      <point x="432" y="23"/>
      <point x="410" y="0"/>
      <point x="383" y="0" type="curve"/>
      <point x="383" y="0"/>
      <point x="383" y="0"/>
      <point x="383" y="0" type="curve"/>
      <point x="72" y="0" type="line" smooth="yes"/>
      <point x="53" y="0"/>
      <point x="35" y="11"/>
      <point x="27" y="28" type="curve" smooth="yes"/>
      <point x="18" y="46"/>
      <point x="20" y="66"/>
      <point x="32" y="81" type="curve" smooth="yes"/>
      <point x="282" y="403" type="line"/>
      <point x="70" y="403" type="line" smooth="yes"/>
      <point x="43" y="403"/>
      <point x="21" y="426"/>
      <point x="21" y="453" type="curve" smooth="yes"/>
      <point x="21" y="480"/>
      <point x="43" y="502"/>
      <point x="70" y="502" type="curve" smooth="yes"/>
      <point x="381" y="502" type="line" smooth="yes"/>
      <point x="400" y="502"/>
      <point x="418" y="492"/>
      <point x="426" y="474" type="curve" smooth="yes"/>
      <point x="435" y="457"/>
      <point x="433" y="437"/>
      <point x="421" y="422" type="curve" smooth="yes"/>
      <point x="171" y="99" type="line"/>
    </contour>
  </outline>
</glyph>
<glyph name="braceleft" format="2">
  <advance width="410"/>
  <unicode hex="007B"/>
  <outline>
    <contour>
      <point x="344" y="89" type="curve" smooth="yes"/>
      <point x="360" y="89"/>
      <point x="391" y="76"/>
      <point x="391" y="44" type="curve" smooth="yes"/>
      <point x="391" y="19"/>
      <point x="370" y="-1"/>
      <point x="345" y="-1" type="curve" smooth="yes"/>
      <point x="344" y="-1" type="line" smooth="yes"/>
      <point x="243" y="-1"/>
      <point x="160" y="88"/>
      <point x="160" y="198" type="curve" smooth="yes"/>
      <point x="160" y="253"/>
      <point x="118" y="300"/>
      <point x="68" y="300" type="curve" smooth="yes"/>
      <point x="41" y="300"/>
      <point x="19" y="322"/>
      <point x="19" y="349" type="curve" smooth="yes"/>
      <point x="19" y="376"/>
      <point x="41" y="398"/>
      <point x="69" y="398" type="curve" smooth="yes"/>
      <point x="119" y="398"/>
      <point x="160" y="444"/>
      <point x="160" y="500" type="curve" smooth="yes"/>
      <point x="160" y="610"/>
      <point x="243" y="700"/>
      <point x="345" y="700" type="curve" smooth="yes"/>
      <point x="371" y="700"/>
      <point x="391" y="680"/>
      <point x="391" y="655" type="curve" smooth="yes"/>
      <point x="391" y="629"/>
      <point x="371" y="609"/>
      <point x="345" y="609" type="curve" smooth="yes"/>
      <point x="344" y="609" type="line" smooth="yes"/>
      <point x="320" y="609"/>
      <point x="297" y="597"/>
      <point x="279" y="577" type="curve" smooth="yes"/>
      <point x="262" y="556"/>
      <point x="252" y="528"/>
      <point x="252" y="500" type="curve" smooth="yes"/>
      <point x="252" y="443"/>
      <point x="228" y="388"/>
      <point x="187" y="349" type="curve"/>
      <point x="228" y="311"/>
      <point x="252" y="256"/>
      <point x="252" y="198" type="curve" smooth="yes"/>
      <point x="252" y="170"/>
      <point x="262" y="142"/>
      <point x="279" y="121" type="curve" smooth="yes"/>
      <point x="297" y="100"/>
      <point x="320" y="89"/>
    </contour>
  </outline>
</glyph>
<glyph name="braceright" format="2">
  <advance width="419"/>
  <unicode hex="007D"/>
  <outline>
    <contour>
      <point x="72" y="89" type="curve" smooth="yes"/>
      <point x="96" y="89"/>
      <point x="119" y="100"/>
      <point x="137" y="121" type="curve" smooth="yes"/>
      <point x="154" y="142"/>
      <point x="164" y="170"/>
      <point x="164" y="198" type="curve" smooth="yes"/>
      <point x="164" y="256"/>
      <point x="188" y="311"/>
      <point x="229" y="349" type="curve"/>
      <point x="188" y="388"/>
      <point x="164" y="443"/>
      <point x="164" y="500" type="curve" smooth="yes"/>
      <point x="164" y="528"/>
      <point x="154" y="556"/>
      <point x="137" y="577" type="curve" smooth="yes"/>
      <point x="119" y="597"/>
      <point x="96" y="609"/>
      <point x="72" y="609" type="curve" smooth="yes"/>
      <point x="71" y="609" type="line" smooth="yes"/>
      <point x="45" y="609"/>
      <point x="25" y="629"/>
      <point x="25" y="655" type="curve" smooth="yes"/>
      <point x="25" y="680"/>
      <point x="45" y="700"/>
      <point x="71" y="700" type="curve" smooth="yes"/>
      <point x="173" y="700"/>
      <point x="256" y="610"/>
      <point x="256" y="500" type="curve" smooth="yes"/>
      <point x="256" y="444"/>
      <point x="297" y="398"/>
      <point x="347" y="398" type="curve" smooth="yes"/>
      <point x="375" y="398"/>
      <point x="397" y="376"/>
      <point x="397" y="349" type="curve" smooth="yes"/>
      <point x="397" y="322"/>
      <point x="375" y="300"/>
      <point x="348" y="300" type="curve" smooth="yes"/>
      <point x="298" y="300"/>
      <point x="256" y="253"/>
      <point x="256" y="198" type="curve" smooth="yes"/>
      <point x="256" y="88"/>
      <point x="173" y="-1"/>
      <point x="72" y="-1" type="curve" smooth="yes"/>
      <point x="71" y="-1" type="line" smooth="yes"/>
      <point x="46" y="-1"/>
      <point x="25" y="19"/>
      <point x="25" y="44" type="curve" smooth="yes"/>
      <point x="25" y="76"/>
      <point x="56" y="89"/>
    </contour>
  </outline>
</glyph>
<glyph name="asciitilde" format="2">
  <advance width="482"/>
  <unicode hex="007E"/>
  <outline>
    <contour>
      <point x="439" y="258" type="curve" smooth="yes"/>
      <point x="458" y="238"/>
      <point x="458" y="206"/>
      <point x="439" y="187" type="curve" smooth="yes"/>
      <point x="422" y="169"/>
      <point x="395" y="167"/>
      <point x="375" y="180" type="curve"/>
      <point x="375" y="180" type="line"/>
      <point x="357" y="194"/>
      <point x="348" y="200"/>
      <point x="324" y="200" type="curve" smooth="yes"/>
      <point x="300" y="200"/>
      <point x="291" y="194"/>
      <point x="273" y="180" type="curve" smooth="yes"/>
      <point x="251" y="164"/>
      <point x="220" y="140"/>
      <point x="163" y="140" type="curve" smooth="yes"/>
      <point x="106" y="140"/>
      <point x="75" y="164"/>
      <point x="52" y="180" type="curve"/>
      <point x="52" y="181" type="line" smooth="yes"/>
      <point x="50" y="182"/>
      <point x="47" y="184"/>
      <point x="45" y="187" type="curve" smooth="yes"/>
      <point x="25" y="206"/>
      <point x="25" y="238"/>
      <point x="45" y="258" type="curve" smooth="yes"/>
      <point x="64" y="277"/>
      <point x="96" y="277"/>
      <point x="116" y="258" type="curve" smooth="yes"/>
      <point x="116" y="258"/>
      <point x="116" y="257"/>
      <point x="117" y="257" type="curve" smooth="yes"/>
      <point x="132" y="246"/>
      <point x="141" y="240"/>
      <point x="163" y="240" type="curve" smooth="yes"/>
      <point x="187" y="240"/>
      <point x="196" y="247"/>
      <point x="214" y="261" type="curve" smooth="yes"/>
      <point x="236" y="277"/>
      <point x="267" y="300"/>
      <point x="324" y="300" type="curve" smooth="yes"/>
      <point x="374" y="300"/>
      <point x="404" y="283"/>
      <point x="426" y="267" type="curve" smooth="yes"/>
      <point x="431" y="265"/>
      <point x="435" y="262"/>
    </contour>
  </outline>
</glyph>
<glyph name="exclamdown" format="2">
  <advance width="160"/>
  <unicode hex="00A1"/>
  <outline>
    <contour>
      <point x="81" y="-1" type="curve" smooth="yes"/>
      <point x="53" y="-1"/>
      <point x="31" y="21"/>
      <point x="31" y="49" type="curve" smooth="yes"/>
      <point x="31" y="494" type="line" smooth="yes"/>
      <point x="31" y="521"/>
      <point x="53" y="543"/>
      <point x="81" y="543" type="curve" smooth="yes"/>
      <point x="108" y="543"/>
      <point x="130" y="521"/>
      <point x="130" y="494" type="curve" smooth="yes"/>
      <point x="130" y="49" type="line" smooth="yes"/>
      <point x="130" y="21"/>
      <point x="108" y="-1"/>
    </contour>
    <contour>
      <point x="81" y="601" type="curve" smooth="yes"/>
      <point x="68" y="601"/>
      <point x="55" y="606"/>
      <point x="46" y="615" type="curve" smooth="yes"/>
      <point x="37" y="624"/>
      <point x="31" y="637"/>
      <point x="31" y="650" type="curve" smooth="yes"/>
      <point x="31" y="663"/>
      <point x="37" y="676"/>
      <point x="46" y="685" type="curve" smooth="yes"/>
      <point x="55" y="694"/>
      <point x="68" y="700"/>
      <point x="81" y="700" type="curve" smooth="yes"/>
      <point x="94" y="700"/>
      <point x="107" y="694"/>
      <point x="116" y="685" type="curve" smooth="yes"/>
      <point x="125" y="676"/>
      <point x="130" y="663"/>
      <point x="130" y="650" type="curve" smooth="yes"/>
      <point x="130" y="637"/>
      <point x="125" y="624"/>
      <point x="116" y="615" type="curve" smooth="yes"/>
      <point x="107" y="606"/>
      <point x="94" y="601"/>
    </contour>
  </outline>
</glyph>
<glyph name="cent" format="2">
  <advance width="531"/>
  <unicode hex="00A2"/>
  <outline>
    <contour>
      <point x="272" y="-92" type="curve" smooth="yes"/>
      <point x="244" y="-92"/>
      <point x="222" y="-70"/>
      <point x="222" y="-42" type="curve" smooth="yes"/>
      <point x="222" y="5" type="line"/>
      <point x="110" y="30"/>
      <point x="26" y="130"/>
      <point x="26" y="250" type="curve" smooth="yes"/>
      <point x="26" y="370"/>
      <point x="110" y="470"/>
      <point x="222" y="495" type="curve"/>
      <point x="222" y="542" type="line" smooth="yes"/>
      <point x="222" y="569"/>
      <point x="244" y="591"/>
      <point x="272" y="591" type="curve" smooth="yes"/>
      <point x="299" y="591"/>
      <point x="321" y="569"/>
      <point x="321" y="542" type="curve" smooth="yes"/>
      <point x="321" y="497" type="line"/>
      <point x="393" y="484"/>
      <point x="456" y="440"/>
      <point x="494" y="376" type="curve" smooth="yes"/>
      <point x="508" y="352"/>
      <point x="499" y="322"/>
      <point x="476" y="308" type="curve" smooth="yes"/>
      <point x="452" y="295"/>
      <point x="422" y="303"/>
      <point x="408" y="326" type="curve" smooth="yes"/>
      <point x="388" y="359"/>
      <point x="357" y="384"/>
      <point x="321" y="395" type="curve"/>
      <point x="321" y="104" type="line"/>
      <point x="355" y="115"/>
      <point x="384" y="137"/>
      <point x="404" y="168" type="curve" smooth="yes"/>
      <point x="419" y="191"/>
      <point x="450" y="197"/>
      <point x="473" y="183" type="curve" smooth="yes"/>
      <point x="496" y="168"/>
      <point x="502" y="137"/>
      <point x="487" y="114" type="curve" smooth="yes"/>
      <point x="449" y="54"/>
      <point x="389" y="15"/>
      <point x="321" y="3" type="curve"/>
      <point x="321" y="-42" type="line" smooth="yes"/>
      <point x="321" y="-70"/>
      <point x="299" y="-92"/>
    </contour>
    <contour>
      <point x="124" y="250" type="curve" smooth="yes"/>
      <point x="124" y="186"/>
      <point x="165" y="130"/>
      <point x="222" y="108" type="curve"/>
      <point x="222" y="392" type="line"/>
      <point x="165" y="370"/>
      <point x="124" y="315"/>
    </contour>
  </outline>
</glyph>
<glyph name="sterling" format="2">
  <advance width="599"/>
  <unicode hex="00A3"/>
  <outline>
    <contour>
      <point x="373" y="603" type="curve" smooth="yes"/>
      <point x="316" y="603"/>
      <point x="269" y="556"/>
      <point x="269" y="499" type="curve" smooth="yes"/>
      <point x="269" y="330" type="line"/>
      <point x="427" y="330" type="line" smooth="yes"/>
      <point x="454" y="330"/>
      <point x="476" y="308"/>
      <point x="476" y="280" type="curve" smooth="yes"/>
      <point x="476" y="253"/>
      <point x="454" y="231"/>
      <point x="427" y="231" type="curve" smooth="yes"/>
      <point x="270" y="231" type="line"/>
      <point x="270" y="200" type="line" smooth="yes"/>
      <point x="270" y="163"/>
      <point x="260" y="128"/>
      <point x="243" y="99" type="curve"/>
      <point x="526" y="99" type="line" smooth="yes"/>
      <point x="553" y="99"/>
      <point x="575" y="77"/>
      <point x="575" y="49" type="curve" smooth="yes"/>
      <point x="575" y="22"/>
      <point x="553" y="0"/>
      <point x="526" y="0" type="curve" smooth="yes"/>
      <point x="98" y="0" type="line"/>
      <point x="69" y="0" type="line" smooth="yes"/>
      <point x="42" y="1"/>
      <point x="21" y="22"/>
      <point x="21" y="49" type="curve" smooth="yes"/>
      <point x="21" y="77"/>
      <point x="43" y="99"/>
      <point x="71" y="99" type="curve" smooth="yes"/>
      <point x="90" y="99" type="line"/>
      <point x="134" y="109"/>
      <point x="173" y="150"/>
      <point x="170" y="200" type="curve" smooth="yes"/>
      <point x="170" y="231" type="line"/>
      <point x="71" y="231" type="line" smooth="yes"/>
      <point x="43" y="231"/>
      <point x="21" y="253"/>
      <point x="21" y="280" type="curve" smooth="yes"/>
      <point x="21" y="308"/>
      <point x="43" y="330"/>
      <point x="71" y="330" type="curve" smooth="yes"/>
      <point x="170" y="330" type="line"/>
      <point x="170" y="500" type="line"/>
      <point x="170" y="500"/>
      <point x="170" y="501"/>
      <point x="170" y="501" type="curve" smooth="yes"/>
      <point x="171" y="612"/>
      <point x="262" y="702"/>
      <point x="373" y="702" type="curve" smooth="yes"/>
      <point x="484" y="702"/>
      <point x="572" y="610"/>
      <point x="575" y="500" type="curve"/>
      <point x="575" y="500" type="line"/>
      <point x="575" y="500"/>
      <point x="575" y="500"/>
      <point x="575" y="499" type="curve" smooth="yes"/>
      <point x="575" y="472"/>
      <point x="553" y="450"/>
      <point x="526" y="450" type="curve" smooth="yes"/>
      <point x="499" y="450"/>
      <point x="476" y="472"/>
      <point x="476" y="499" type="curve" smooth="yes"/>
      <point x="476" y="556"/>
      <point x="430" y="603"/>
    </contour>
  </outline>
</glyph>
<glyph name="yen" format="2">
  <advance width="556"/>
  <unicode hex="00A5"/>
  <outline>
    <contour>
      <point x="527" y="543" type="line" smooth="yes"/>
      <point x="527" y="422"/>
      <point x="440" y="320"/>
      <point x="325" y="297" type="curve"/>
      <point x="325" y="262" type="line"/>
      <point x="425" y="262" type="line" smooth="yes"/>
      <point x="447" y="262"/>
      <point x="464" y="245"/>
      <point x="464" y="222" type="curve" smooth="yes"/>
      <point x="464" y="201"/>
      <point x="447" y="183"/>
      <point x="425" y="183" type="curve" smooth="yes"/>
      <point x="325" y="183" type="line"/>
      <point x="325" y="150" type="line"/>
      <point x="425" y="150" type="line" smooth="yes"/>
      <point x="447" y="150"/>
      <point x="464" y="133"/>
      <point x="464" y="110" type="curve" smooth="yes"/>
      <point x="464" y="89"/>
      <point x="447" y="71"/>
      <point x="425" y="71" type="curve" smooth="yes"/>
      <point x="325" y="71" type="line"/>
      <point x="325" y="48" type="line" smooth="yes"/>
      <point x="325" y="20"/>
      <point x="303" y="-2"/>
      <point x="276" y="-2" type="curve" smooth="yes"/>
      <point x="248" y="-2"/>
      <point x="226" y="20"/>
      <point x="226" y="48" type="curve" smooth="yes"/>
      <point x="226" y="71" type="line"/>
      <point x="122" y="71" type="line" smooth="yes"/>
      <point x="100" y="71"/>
      <point x="82" y="89"/>
      <point x="82" y="110" type="curve" smooth="yes"/>
      <point x="82" y="133"/>
      <point x="100" y="150"/>
      <point x="122" y="150" type="curve" smooth="yes"/>
      <point x="226" y="150" type="line"/>
      <point x="226" y="183" type="line"/>
      <point x="122" y="183" type="line" smooth="yes"/>
      <point x="100" y="183"/>
      <point x="82" y="201"/>
      <point x="82" y="222" type="curve" smooth="yes"/>
      <point x="82" y="245"/>
      <point x="100" y="262"/>
      <point x="122" y="262" type="curve" smooth="yes"/>
      <point x="226" y="262" type="line"/>
      <point x="226" y="297" type="line"/>
      <point x="111" y="320"/>
      <point x="25" y="422"/>
      <point x="25" y="543" type="curve" smooth="yes"/>
      <point x="25" y="650" type="line" smooth="yes"/>
      <point x="25" y="677"/>
      <point x="47" y="699"/>
      <point x="74" y="699" type="curve" smooth="yes"/>
      <point x="101" y="699"/>
      <point x="124" y="677"/>
      <point x="124" y="650" type="curve" smooth="yes"/>
      <point x="124" y="543" type="line" smooth="yes"/>
      <point x="124" y="460"/>
      <point x="192" y="391"/>
      <point x="276" y="391" type="curve" smooth="yes"/>
      <point x="359" y="391"/>
      <point x="428" y="460"/>
      <point x="428" y="543" type="curve" smooth="yes"/>
      <point x="428" y="650" type="line" smooth="yes"/>
      <point x="428" y="677"/>
      <point x="450" y="699"/>
      <point x="477" y="699" type="curve" smooth="yes"/>
      <point x="504" y="699"/>
      <point x="527" y="677"/>
      <point x="527" y="650" type="curve" smooth="yes"/>
    </contour>
  </outline>
</glyph>
<glyph name="dieresis" format="2">
  <advance width="300"/>
  <unicode hex="00A8"/>
  <outline>
    <contour>
      <point x="50" y="602" type="curve" smooth="yes"/>
      <point x="37" y="602"/>
      <point x="25" y="607"/>
      <point x="15" y="617" type="curve" smooth="yes"/>
      <point x="6" y="626"/>
      <point x="1" y="639"/>
      <point x="1" y="652" type="curve" smooth="yes"/>
      <point x="1" y="665"/>
      <point x="6" y="677"/>
      <point x="15" y="687" type="curve" smooth="yes"/>
      <point x="25" y="696"/>
      <point x="37" y="701"/>
      <point x="50" y="701" type="curve" smooth="yes"/>
      <point x="63" y="701"/>
      <point x="76" y="696"/>
      <point x="85" y="687" type="curve" smooth="yes"/>
      <point x="95" y="677"/>
      <point x="100" y="665"/>
      <point x="100" y="652" type="curve" smooth="yes"/>
      <point x="100" y="639"/>
      <point x="95" y="626"/>
      <point x="85" y="617" type="curve" smooth="yes"/>
      <point x="76" y="607"/>
      <point x="63" y="602"/>
    </contour>
    <contour>
      <point x="248" y="602" type="curve" smooth="yes"/>
      <point x="235" y="602"/>
      <point x="223" y="607"/>
      <point x="213" y="617" type="curve" smooth="yes"/>
      <point x="204" y="626"/>
      <point x="199" y="639"/>
      <point x="199" y="652" type="curve" smooth="yes"/>
      <point x="199" y="665"/>
      <point x="204" y="677"/>
      <point x="213" y="687" type="curve" smooth="yes"/>
      <point x="223" y="696"/>
      <point x="235" y="701"/>
      <point x="248" y="701" type="curve" smooth="yes"/>
      <point x="261" y="701"/>
      <point x="274" y="696"/>
      <point x="283" y="687" type="curve" smooth="yes"/>
      <point x="293" y="677"/>
      <point x="298" y="665"/>
      <point x="298" y="652" type="curve" smooth="yes"/>
      <point x="298" y="639"/>
      <point x="293" y="626"/>
      <point x="283" y="617" type="curve" smooth="yes"/>
      <point x="274" y="607"/>
      <point x="261" y="602"/>
    </contour>
  </outline>
</glyph>
<glyph name="acute" format="2">
  <advance width="175"/>
  <unicode hex="00B4"/>
  <outline>
    <contour>
      <point x="13" y="614" type="curve" smooth="yes"/>
      <point x="-7" y="633"/>
      <point x="-7" y="664"/>
      <point x="13" y="684" type="curve" smooth="yes"/>
      <point x="91" y="762" type="line" smooth="yes"/>
      <point x="110" y="781"/>
      <point x="142" y="781"/>
      <point x="161" y="762" type="curve" smooth="yes"/>
      <point x="180" y="742"/>
      <point x="180" y="711"/>
      <point x="161" y="692" type="curve" smooth="yes"/>
      <point x="83" y="614" type="line" smooth="yes"/>
      <point x="63" y="594"/>
      <point x="32" y="594"/>
    </contour>
  </outline>
</glyph>
<glyph name="periodcentered" format="2">
  <advance width="169"/>
  <unicode hex="00B7"/>
  <outline>
    <contour>
      <point x="83" y="0" type="curve" smooth="yes"/>
      <point x="70" y="0"/>
      <point x="58" y="5"/>
      <point x="48" y="15" type="curve" smooth="yes"/>
      <point x="39" y="24"/>
      <point x="34" y="37"/>
      <point x="34" y="50" type="curve" smooth="yes"/>
      <point x="34" y="63"/>
      <point x="39" y="75"/>
      <point x="48" y="85" type="curve" smooth="yes"/>
      <point x="58" y="94"/>
      <point x="70" y="99"/>
      <point x="83" y="99" type="curve" smooth="yes"/>
      <point x="96" y="99"/>
      <point x="109" y="94"/>
      <point x="118" y="85" type="curve" smooth="yes"/>
      <point x="128" y="75"/>
      <point x="133" y="63"/>
      <point x="133" y="50" type="curve" smooth="yes"/>
      <point x="133" y="37"/>
      <point x="128" y="24"/>
      <point x="118" y="15" type="curve" smooth="yes"/>
      <point x="109" y="5"/>
      <point x="96" y="0"/>
    </contour>
  </outline>
</glyph>
<glyph name="questiondown" format="2">
  <advance width="449"/>
  <unicode hex="00BF"/>
  <outline>
    <contour>
      <point x="73" y="332" type="curve"/>
      <point x="73" y="332" type="line"/>
      <point x="154" y="414" type="line" smooth="yes"/>
      <point x="174" y="434"/>
      <point x="184" y="465"/>
      <point x="186" y="496" type="curve"/>
      <point x="192" y="518"/>
      <point x="212" y="533"/>
      <point x="235" y="533" type="curve" smooth="yes"/>
      <point x="257" y="533"/>
      <point x="277" y="518"/>
      <point x="283" y="496" type="curve"/>
      <point x="285" y="443"/>
      <point x="267" y="391"/>
      <point x="235" y="354" type="curve" smooth="yes"/>
      <point x="149" y="266" type="line" smooth="yes"/>
      <point x="133" y="248"/>
      <point x="125" y="225"/>
      <point x="125" y="201" type="curve" smooth="yes"/>
      <point x="125" y="145"/>
      <point x="170" y="99"/>
      <point x="226" y="99" type="curve" smooth="yes"/>
      <point x="282" y="99"/>
      <point x="327" y="145"/>
      <point x="330" y="214" type="curve"/>
      <point x="335" y="235"/>
      <point x="355" y="250"/>
      <point x="378" y="250" type="curve" smooth="yes"/>
      <point x="405" y="250"/>
      <point x="427" y="228"/>
      <point x="427" y="201" type="curve" smooth="yes"/>
      <point x="427" y="89"/>
      <point x="337" y="-1"/>
      <point x="226" y="-1" type="curve" smooth="yes"/>
      <point x="115" y="-1"/>
      <point x="24" y="89"/>
      <point x="24" y="201" type="curve" smooth="yes"/>
      <point x="24" y="249"/>
      <point x="42" y="295"/>
    </contour>
    <contour>
      <point x="235" y="697" type="curve" smooth="yes"/>
      <point x="248" y="697"/>
      <point x="260" y="692"/>
      <point x="270" y="682" type="curve" smooth="yes"/>
      <point x="279" y="673"/>
      <point x="284" y="660"/>
      <point x="284" y="647" type="curve" smooth="yes"/>
      <point x="284" y="634"/>
      <point x="279" y="622"/>
      <point x="270" y="612" type="curve" smooth="yes"/>
      <point x="260" y="603"/>
      <point x="248" y="598"/>
      <point x="235" y="598" type="curve" smooth="yes"/>
      <point x="222" y="598"/>
      <point x="209" y="603"/>
      <point x="200" y="612" type="curve" smooth="yes"/>
      <point x="190" y="622"/>
      <point x="185" y="634"/>
      <point x="185" y="647" type="curve" smooth="yes"/>
      <point x="185" y="660"/>
      <point x="190" y="673"/>
      <point x="200" y="682" type="curve" smooth="yes"/>
      <point x="209" y="692"/>
      <point x="222" y="697"/>
    </contour>
  </outline>
</glyph>
<glyph name="Agrave" format="2">
  <advance width="567"/>
  <unicode hex="00C0"/>
  <outline>
    <contour>
      <point x="537" y="67" type="line" smooth="yes"/>
      <point x="548" y="43"/>
      <point x="537" y="14"/>
      <point x="507" y="1" type="curve"/>
      <point x="484" y="-4"/>
      <point x="453" y="7"/>
      <point x="441" y="37" type="curve" smooth="yes"/>
      <point x="405" y="139" type="line"/>
      <point x="161" y="139" type="line"/>
      <point x="119" y="37" type="line"/>
      <point x="114" y="14"/>
      <point x="95" y="1"/>
      <point x="71" y="1" type="curve" smooth="yes"/>
      <point x="65" y="1"/>
      <point x="65" y="1"/>
      <point x="60" y="1" type="curve" smooth="yes"/>
      <point x="30" y="14"/>
      <point x="18" y="43"/>
      <point x="24" y="67" type="curve" smooth="yes"/>
      <point x="238" y="663" type="line" smooth="yes"/>
      <point x="244" y="682"/>
      <point x="262" y="699"/>
      <point x="287" y="699" type="curve" smooth="yes"/>
      <point x="311" y="699"/>
      <point x="328" y="682"/>
      <point x="334" y="663" type="curve" smooth="yes"/>
    </contour>
    <contour>
      <point x="197" y="240" type="line"/>
      <point x="375" y="240" type="line"/>
      <point x="287" y="496" type="line"/>
    </contour>
    <contour>
      <point x="357" y="814" type="curve" smooth="yes"/>
      <point x="338" y="794"/>
      <point x="307" y="794"/>
      <point x="287" y="814" type="curve" smooth="yes"/>
      <point x="209" y="892" type="line" smooth="yes"/>
      <point x="190" y="911"/>
      <point x="190" y="942"/>
      <point x="209" y="962" type="curve" smooth="yes"/>
      <point x="228" y="981"/>
      <point x="260" y="981"/>
      <point x="279" y="962" type="curve" smooth="yes"/>
      <point x="357" y="884" type="line" smooth="yes"/>
      <point x="377" y="864"/>
      <point x="377" y="833"/>
    </contour>
  </outline>
</glyph>
<glyph name="Acircumflex" format="2">
  <advance width="567"/>
  <unicode hex="00C2"/>
  <outline>
    <contour>
      <point x="537" y="67" type="line" smooth="yes"/>
      <point x="548" y="43"/>
      <point x="537" y="14"/>
      <point x="507" y="1" type="curve"/>
      <point x="484" y="-4"/>
      <point x="453" y="7"/>
      <point x="441" y="37" type="curve" smooth="yes"/>
      <point x="405" y="139" type="line"/>
      <point x="161" y="139" type="line"/>
      <point x="119" y="37" type="line"/>
      <point x="114" y="14"/>
      <point x="95" y="1"/>
      <point x="71" y="1" type="curve" smooth="yes"/>
      <point x="65" y="1"/>
      <point x="65" y="1"/>
      <point x="60" y="1" type="curve" smooth="yes"/>
      <point x="30" y="14"/>
      <point x="18" y="43"/>
      <point x="24" y="67" type="curve" smooth="yes"/>
      <point x="238" y="663" type="line" smooth="yes"/>
      <point x="244" y="682"/>
      <point x="262" y="699"/>
      <point x="287" y="699" type="curve" smooth="yes"/>
      <point x="311" y="699"/>
      <point x="328" y="682"/>
      <point x="334" y="663" type="curve" smooth="yes"/>
    </contour>
    <contour>
      <point x="197" y="240" type="line"/>
      <point x="375" y="240" type="line"/>
      <point x="287" y="496" type="line"/>
    </contour>
    <contour>
      <point x="396" y="801" type="curve" smooth="yes"/>
      <point x="377" y="782"/>
      <point x="345" y="782"/>
      <point x="326" y="801" type="curve" smooth="yes"/>
      <point x="283" y="844" type="line"/>
      <point x="241" y="801" type="line" smooth="yes"/>
      <point x="222" y="782"/>
      <point x="190" y="782"/>
      <point x="171" y="801" type="curve" smooth="yes"/>
      <point x="152" y="821"/>
      <point x="152" y="852"/>
      <point x="171" y="871" type="curve" smooth="yes"/>
      <point x="244" y="945"/>
      <point x="246" y="947"/>
      <point x="248" y="949" type="curve" smooth="yes"/>
      <point x="258" y="959"/>
      <point x="271" y="964"/>
      <point x="283" y="964" type="curve" smooth="yes"/>
      <point x="296" y="964"/>
      <point x="309" y="959"/>
      <point x="319" y="949" type="curve" smooth="yes"/>
      <point x="321" y="947"/>
      <point x="323" y="945"/>
      <point x="396" y="871" type="curve" smooth="yes"/>
      <point x="415" y="852"/>
      <point x="415" y="821"/>
    </contour>
  </outline>
</glyph>
<glyph name="Atilde" format="2">
  <advance width="567"/>
  <unicode hex="00C3"/>
  <outline>
    <contour>
      <point x="537" y="67" type="line" smooth="yes"/>
      <point x="548" y="43"/>
      <point x="537" y="14"/>
      <point x="507" y="1" type="curve"/>
      <point x="484" y="-4"/>
      <point x="453" y="7"/>
      <point x="441" y="37" type="curve" smooth="yes"/>
      <point x="405" y="139" type="line"/>
      <point x="161" y="139" type="line"/>
      <point x="119" y="37" type="line"/>
      <point x="114" y="14"/>
      <point x="95" y="1"/>
      <point x="71" y="1" type="curve" smooth="yes"/>
      <point x="65" y="1"/>
      <point x="65" y="1"/>
      <point x="60" y="1" type="curve" smooth="yes"/>
      <point x="30" y="14"/>
      <point x="18" y="43"/>
      <point x="24" y="67" type="curve" smooth="yes"/>
      <point x="238" y="663" type="line" smooth="yes"/>
      <point x="244" y="682"/>
      <point x="262" y="699"/>
      <point x="287" y="699" type="curve" smooth="yes"/>
      <point x="311" y="699"/>
      <point x="328" y="682"/>
      <point x="334" y="663" type="curve" smooth="yes"/>
    </contour>
    <contour>
      <point x="197" y="240" type="line"/>
      <point x="375" y="240" type="line"/>
      <point x="287" y="496" type="line"/>
    </contour>
    <contour>
      <point x="429" y="888" type="line" smooth="yes"/>
      <point x="437" y="879"/>
      <point x="443" y="867"/>
      <point x="443" y="854" type="curve" smooth="yes"/>
      <point x="443" y="827"/>
      <point x="421" y="805"/>
      <point x="394" y="805" type="curve" smooth="yes"/>
      <point x="384" y="805"/>
      <point x="375" y="808"/>
      <point x="368" y="812" type="curve" smooth="yes"/>
      <point x="365" y="814"/>
      <point x="362" y="816"/>
      <point x="360" y="818" type="curve" smooth="yes"/>
      <point x="359" y="819"/>
      <point x="358" y="820"/>
      <point x="357" y="821" type="curve" smooth="yes"/>
      <point x="357" y="821"/>
      <point x="357" y="822"/>
      <point x="356" y="822" type="curve" smooth="yes"/>
      <point x="352" y="826"/>
      <point x="348" y="830"/>
      <point x="345" y="834" type="curve" smooth="yes"/>
      <point x="334" y="845"/>
      <point x="333" y="845"/>
      <point x="330" y="845" type="curve" smooth="yes"/>
      <point x="327" y="845"/>
      <point x="326" y="845"/>
      <point x="316" y="834" type="curve" smooth="yes"/>
      <point x="301" y="818"/>
      <point x="276" y="791"/>
      <point x="229" y="791" type="curve" smooth="yes"/>
      <point x="183" y="791"/>
      <point x="158" y="818"/>
      <point x="143" y="834" type="curve" smooth="yes"/>
      <point x="141" y="836"/>
      <point x="140" y="837"/>
      <point x="138" y="839" type="curve" smooth="yes"/>
      <point x="137" y="840"/>
      <point x="137" y="840"/>
      <point x="136" y="841" type="curve" smooth="yes"/>
      <point x="128" y="850"/>
      <point x="123" y="861"/>
      <point x="123" y="874" type="curve" smooth="yes"/>
      <point x="123" y="901"/>
      <point x="145" y="923"/>
      <point x="172" y="923" type="curve" smooth="yes"/>
      <point x="185" y="923"/>
      <point x="197" y="918"/>
      <point x="206" y="909" type="curve" smooth="yes"/>
      <point x="207" y="909"/>
      <point x="207" y="909"/>
      <point x="207" y="908" type="curve" smooth="yes"/>
      <point x="210" y="905"/>
      <point x="213" y="903"/>
      <point x="215" y="900" type="curve" smooth="yes"/>
      <point x="226" y="889"/>
      <point x="226" y="889"/>
      <point x="229" y="889" type="curve" smooth="yes"/>
      <point x="232" y="889"/>
      <point x="233" y="889"/>
      <point x="244" y="900" type="curve" smooth="yes"/>
      <point x="259" y="916"/>
      <point x="284" y="943"/>
      <point x="330" y="943" type="curve" smooth="yes"/>
      <point x="377" y="943"/>
      <point x="402" y="916"/>
      <point x="417" y="900" type="curve" smooth="yes"/>
    </contour>
  </outline>
</glyph>
<glyph name="Adieresis" format="2">
  <advance width="567"/>
  <unicode hex="00C4"/>
  <outline>
    <contour>
      <point x="537" y="67" type="line" smooth="yes"/>
      <point x="548" y="43"/>
      <point x="537" y="14"/>
      <point x="507" y="1" type="curve"/>
      <point x="484" y="-4"/>
      <point x="453" y="7"/>
      <point x="441" y="37" type="curve" smooth="yes"/>
      <point x="405" y="139" type="line"/>
      <point x="161" y="139" type="line"/>
      <point x="119" y="37" type="line"/>
      <point x="114" y="14"/>
      <point x="95" y="1"/>
      <point x="71" y="1" type="curve" smooth="yes"/>
      <point x="65" y="1"/>
      <point x="65" y="1"/>
      <point x="60" y="1" type="curve" smooth="yes"/>
      <point x="30" y="14"/>
      <point x="18" y="43"/>
      <point x="24" y="67" type="curve" smooth="yes"/>
      <point x="238" y="663" type="line" smooth="yes"/>
      <point x="244" y="682"/>
      <point x="262" y="699"/>
      <point x="287" y="699" type="curve" smooth="yes"/>
      <point x="311" y="699"/>
      <point x="328" y="682"/>
      <point x="334" y="663" type="curve" smooth="yes"/>
    </contour>
    <contour>
      <point x="197" y="240" type="line"/>
      <point x="375" y="240" type="line"/>
      <point x="287" y="496" type="line"/>
    </contour>
    <contour>
      <point x="184" y="802" type="curve" smooth="yes"/>
      <point x="171" y="802"/>
      <point x="159" y="807"/>
      <point x="149" y="817" type="curve" smooth="yes"/>
      <point x="140" y="826"/>
      <point x="135" y="839"/>
      <point x="135" y="852" type="curve" smooth="yes"/>
      <point x="135" y="865"/>
      <point x="140" y="877"/>
      <point x="149" y="887" type="curve" smooth="yes"/>
      <point x="159" y="896"/>
      <point x="171" y="901"/>
      <point x="184" y="901" type="curve" smooth="yes"/>
      <point x="197" y="901"/>
      <point x="210" y="896"/>
      <point x="219" y="887" type="curve" smooth="yes"/>
      <point x="229" y="877"/>
      <point x="234" y="865"/>
      <point x="234" y="852" type="curve" smooth="yes"/>
      <point x="234" y="839"/>
      <point x="229" y="826"/>
      <point x="219" y="817" type="curve" smooth="yes"/>
      <point x="210" y="807"/>
      <point x="197" y="802"/>
    </contour>
    <contour>
      <point x="382" y="802" type="curve" smooth="yes"/>
      <point x="369" y="802"/>
      <point x="357" y="807"/>
      <point x="347" y="817" type="curve" smooth="yes"/>
      <point x="338" y="826"/>
      <point x="333" y="839"/>
      <point x="333" y="852" type="curve" smooth="yes"/>
      <point x="333" y="865"/>
      <point x="338" y="877"/>
      <point x="347" y="887" type="curve" smooth="yes"/>
      <point x="357" y="896"/>
      <point x="369" y="901"/>
      <point x="382" y="901" type="curve" smooth="yes"/>
      <point x="395" y="901"/>
      <point x="408" y="896"/>
      <point x="417" y="887" type="curve" smooth="yes"/>
      <point x="427" y="877"/>
      <point x="432" y="865"/>
      <point x="432" y="852" type="curve" smooth="yes"/>
      <point x="432" y="839"/>
      <point x="427" y="826"/>
      <point x="417" y="817" type="curve" smooth="yes"/>
      <point x="408" y="807"/>
      <point x="395" y="802"/>
    </contour>
  </outline>
</glyph>
<glyph name="Ccedilla" format="2">
  <advance width="722"/>
  <unicode hex="00C7"/>
  <outline>
    <contour>
      <point x="660" y="224" type="curve"/>
      <point x="684" y="212"/>
      <point x="696" y="181"/>
      <point x="678" y="158" type="curve" smooth="yes"/>
      <point x="612" y="56"/>
      <point x="505" y="-4"/>
      <point x="383" y="-4" type="curve"/>
      <point x="382" y="-15" type="line"/>
      <point x="422" y="-16"/>
      <point x="455" y="-50"/>
      <point x="455" y="-93" type="curve" smooth="yes"/>
      <point x="455" y="-136"/>
      <point x="421" y="-168"/>
      <point x="378" y="-168" type="curve" smooth="yes"/>
      <point x="363" y="-168"/>
      <point x="349" y="-165"/>
      <point x="324" y="-147" type="curve" smooth="yes"/>
      <point x="316" y="-142"/>
      <point x="310" y="-134"/>
      <point x="310" y="-123" type="curve" smooth="yes"/>
      <point x="310" y="-109"/>
      <point x="321" y="-97"/>
      <point x="336" y="-97" type="curve" smooth="yes"/>
      <point x="343" y="-97"/>
      <point x="349" y="-100"/>
      <point x="354" y="-104" type="curve" smooth="yes"/>
      <point x="368" y="-117"/>
      <point x="373" y="-119"/>
      <point x="378" y="-119" type="curve" smooth="yes"/>
      <point x="393" y="-119"/>
      <point x="405" y="-108"/>
      <point x="405" y="-93" type="curve" smooth="yes"/>
      <point x="405" y="-78"/>
      <point x="393" y="-66"/>
      <point x="378" y="-66" type="curve" smooth="yes"/>
      <point x="368" y="-66"/>
      <point x="361" y="-75"/>
      <point x="349" y="-75" type="curve" smooth="yes"/>
      <point x="334" y="-75"/>
      <point x="322" y="-63"/>
      <point x="322" y="-48" type="curve" smooth="yes"/>
      <point x="329" y="-1" type="line"/>
      <point x="160" y="22"/>
      <point x="32" y="168"/>
      <point x="32" y="344" type="curve" smooth="yes"/>
      <point x="32" y="541"/>
      <point x="193" y="696"/>
      <point x="385" y="696" type="curve" smooth="yes"/>
      <point x="511" y="696"/>
      <point x="624" y="631"/>
      <point x="684" y="523" type="curve" smooth="yes"/>
      <point x="702" y="493"/>
      <point x="690" y="462"/>
      <point x="666" y="451" type="curve" smooth="yes"/>
      <point x="643" y="439"/>
      <point x="612" y="445"/>
      <point x="600" y="469" type="curve" smooth="yes"/>
      <point x="553" y="547"/>
      <point x="474" y="594"/>
      <point x="385" y="594" type="curve" smooth="yes"/>
      <point x="248" y="594"/>
      <point x="134" y="481"/>
      <point x="134" y="344" type="curve" smooth="yes"/>
      <point x="134" y="206"/>
      <point x="248" y="98"/>
      <point x="385" y="98" type="curve" smooth="yes"/>
      <point x="468" y="98"/>
      <point x="547" y="140"/>
      <point x="594" y="212" type="curve" smooth="yes"/>
      <point x="606" y="236"/>
      <point x="643" y="242"/>
    </contour>
  </outline>
</glyph>
<glyph name="Egrave" format="2">
  <advance width="510"/>
  <unicode hex="00C8"/>
  <outline>
    <contour>
      <point x="432" y="101" type="line" smooth="yes"/>
      <point x="459" y="101"/>
      <point x="482" y="79"/>
      <point x="482" y="51" type="curve" smooth="yes"/>
      <point x="482" y="23"/>
      <point x="459" y="1"/>
      <point x="432" y="1" type="curve" smooth="yes"/>
      <point x="87" y="1" type="line" smooth="yes"/>
      <point x="86" y="1"/>
      <point x="86" y="1"/>
      <point x="85" y="1" type="curve" smooth="yes"/>
      <point x="84" y="1"/>
      <point x="84" y="1"/>
      <point x="83" y="1" type="curve" smooth="yes"/>
      <point x="55" y="1"/>
      <point x="33" y="23"/>
      <point x="33" y="51" type="curve" smooth="yes"/>
      <point x="33" y="649" type="line" smooth="yes"/>
      <point x="33" y="677"/>
      <point x="55" y="699"/>
      <point x="83" y="699" type="curve" smooth="yes"/>
      <point x="84" y="699"/>
      <point x="84" y="699"/>
      <point x="85" y="699" type="curve" smooth="yes"/>
      <point x="86" y="699"/>
      <point x="86" y="699"/>
      <point x="87" y="699" type="curve" smooth="yes"/>
      <point x="432" y="699" type="line" smooth="yes"/>
      <point x="459" y="699"/>
      <point x="482" y="677"/>
      <point x="482" y="649" type="curve" smooth="yes"/>
      <point x="482" y="621"/>
      <point x="459" y="599"/>
      <point x="432" y="599" type="curve" smooth="yes"/>
      <point x="133" y="599" type="line"/>
      <point x="133" y="398" type="line"/>
      <point x="361" y="398" type="line" smooth="yes"/>
      <point x="388" y="398"/>
      <point x="411" y="376"/>
      <point x="411" y="348" type="curve" smooth="yes"/>
      <point x="411" y="320"/>
      <point x="388" y="298"/>
      <point x="361" y="298" type="curve" smooth="yes"/>
      <point x="133" y="298" type="line"/>
      <point x="133" y="101" type="line"/>
    </contour>
    <contour>
      <point x="328" y="814" type="curve" smooth="yes"/>
      <point x="309" y="794"/>
      <point x="278" y="794"/>
      <point x="258" y="814" type="curve" smooth="yes"/>
      <point x="180" y="892" type="line" smooth="yes"/>
      <point x="161" y="911"/>
      <point x="161" y="942"/>
      <point x="180" y="962" type="curve" smooth="yes"/>
      <point x="199" y="981"/>
      <point x="231" y="981"/>
      <point x="250" y="962" type="curve" smooth="yes"/>
      <point x="328" y="884" type="line" smooth="yes"/>
      <point x="348" y="864"/>
      <point x="348" y="833"/>
    </contour>
  </outline>
</glyph>
<glyph name="Eacute" format="2">
  <advance width="510"/>
  <unicode hex="00C9"/>
  <outline>
    <contour>
      <point x="432" y="101" type="line" smooth="yes"/>
      <point x="459" y="101"/>
      <point x="482" y="79"/>
      <point x="482" y="51" type="curve" smooth="yes"/>
      <point x="482" y="23"/>
      <point x="459" y="1"/>
      <point x="432" y="1" type="curve" smooth="yes"/>
      <point x="87" y="1" type="line" smooth="yes"/>
      <point x="86" y="1"/>
      <point x="86" y="1"/>
      <point x="85" y="1" type="curve" smooth="yes"/>
      <point x="84" y="1"/>
      <point x="84" y="1"/>
      <point x="83" y="1" type="curve" smooth="yes"/>
      <point x="55" y="1"/>
      <point x="33" y="23"/>
      <point x="33" y="51" type="curve" smooth="yes"/>
      <point x="33" y="649" type="line" smooth="yes"/>
      <point x="33" y="677"/>
      <point x="55" y="699"/>
      <point x="83" y="699" type="curve" smooth="yes"/>
      <point x="84" y="699"/>
      <point x="84" y="699"/>
      <point x="85" y="699" type="curve" smooth="yes"/>
      <point x="86" y="699"/>
      <point x="86" y="699"/>
      <point x="87" y="699" type="curve" smooth="yes"/>
      <point x="432" y="699" type="line" smooth="yes"/>
      <point x="459" y="699"/>
      <point x="482" y="677"/>
      <point x="482" y="649" type="curve" smooth="yes"/>
      <point x="482" y="621"/>
      <point x="459" y="599"/>
      <point x="432" y="599" type="curve" smooth="yes"/>
      <point x="133" y="599" type="line"/>
      <point x="133" y="398" type="line"/>
      <point x="361" y="398" type="line" smooth="yes"/>
      <point x="388" y="398"/>
      <point x="411" y="376"/>
      <point x="411" y="348" type="curve" smooth="yes"/>
      <point x="411" y="320"/>
      <point x="388" y="298"/>
      <point x="361" y="298" type="curve" smooth="yes"/>
      <point x="133" y="298" type="line"/>
      <point x="133" y="101" type="line"/>
    </contour>
    <contour>
      <point x="181" y="814" type="curve" smooth="yes"/>
      <point x="161" y="833"/>
      <point x="161" y="864"/>
      <point x="181" y="884" type="curve" smooth="yes"/>
      <point x="259" y="962" type="line" smooth="yes"/>
      <point x="278" y="981"/>
      <point x="310" y="981"/>
      <point x="329" y="962" type="curve" smooth="yes"/>
      <point x="348" y="942"/>
      <point x="348" y="911"/>
      <point x="329" y="892" type="curve" smooth="yes"/>
      <point x="251" y="814" type="line" smooth="yes"/>
      <point x="231" y="794"/>
      <point x="200" y="794"/>
    </contour>
  </outline>
</glyph>
<glyph name="Ecircumflex" format="2">
  <advance width="510"/>
  <unicode hex="00CA"/>
  <outline>
    <contour>
      <point x="432" y="101" type="line" smooth="yes"/>
      <point x="459" y="101"/>
      <point x="482" y="79"/>
      <point x="482" y="51" type="curve" smooth="yes"/>
      <point x="482" y="23"/>
      <point x="459" y="1"/>
      <point x="432" y="1" type="curve" smooth="yes"/>
      <point x="87" y="1" type="line" smooth="yes"/>
      <point x="86" y="1"/>
      <point x="86" y="1"/>
      <point x="85" y="1" type="curve" smooth="yes"/>
      <point x="84" y="1"/>
      <point x="84" y="1"/>
      <point x="83" y="1" type="curve" smooth="yes"/>
      <point x="55" y="1"/>
      <point x="33" y="23"/>
      <point x="33" y="51" type="curve" smooth="yes"/>
      <point x="33" y="649" type="line" smooth="yes"/>
      <point x="33" y="677"/>
      <point x="55" y="699"/>
      <point x="83" y="699" type="curve" smooth="yes"/>
      <point x="84" y="699"/>
      <point x="84" y="699"/>
      <point x="85" y="699" type="curve" smooth="yes"/>
      <point x="86" y="699"/>
      <point x="86" y="699"/>
      <point x="87" y="699" type="curve" smooth="yes"/>
      <point x="432" y="699" type="line" smooth="yes"/>
      <point x="459" y="699"/>
      <point x="482" y="677"/>
      <point x="482" y="649" type="curve" smooth="yes"/>
      <point x="482" y="621"/>
      <point x="459" y="599"/>
      <point x="432" y="599" type="curve" smooth="yes"/>
      <point x="133" y="599" type="line"/>
      <point x="133" y="398" type="line"/>
      <point x="361" y="398" type="line" smooth="yes"/>
      <point x="388" y="398"/>
      <point x="411" y="376"/>
      <point x="411" y="348" type="curve" smooth="yes"/>
      <point x="411" y="320"/>
      <point x="388" y="298"/>
      <point x="361" y="298" type="curve" smooth="yes"/>
      <point x="133" y="298" type="line"/>
      <point x="133" y="101" type="line"/>
    </contour>
    <contour>
      <point x="367" y="801" type="curve" smooth="yes"/>
      <point x="348" y="782"/>
      <point x="316" y="782"/>
      <point x="297" y="801" type="curve" smooth="yes"/>
      <point x="254" y="844" type="line"/>
      <point x="212" y="801" type="line" smooth="yes"/>
      <point x="193" y="782"/>
      <point x="161" y="782"/>
      <point x="142" y="801" type="curve" smooth="yes"/>
      <point x="123" y="821"/>
      <point x="123" y="852"/>
      <point x="142" y="871" type="curve" smooth="yes"/>
      <point x="215" y="945"/>
      <point x="217" y="947"/>
      <point x="219" y="949" type="curve" smooth="yes"/>
      <point x="229" y="959"/>
      <point x="242" y="964"/>
      <point x="254" y="964" type="curve" smooth="yes"/>
      <point x="267" y="964"/>
      <point x="280" y="959"/>
      <point x="290" y="949" type="curve" smooth="yes"/>
      <point x="292" y="947"/>
      <point x="294" y="945"/>
      <point x="367" y="871" type="curve" smooth="yes"/>
      <point x="386" y="852"/>
      <point x="386" y="821"/>
    </contour>
  </outline>
</glyph>
<glyph name="Edieresis" format="2">
  <advance width="510"/>
  <unicode hex="00CB"/>
  <outline>
    <contour>
      <point x="432" y="101" type="line" smooth="yes"/>
      <point x="459" y="101"/>
      <point x="482" y="79"/>
      <point x="482" y="51" type="curve" smooth="yes"/>
      <point x="482" y="23"/>
      <point x="459" y="1"/>
      <point x="432" y="1" type="curve" smooth="yes"/>
      <point x="87" y="1" type="line" smooth="yes"/>
      <point x="86" y="1"/>
      <point x="86" y="1"/>
      <point x="85" y="1" type="curve" smooth="yes"/>
      <point x="84" y="1"/>
      <point x="84" y="1"/>
      <point x="83" y="1" type="curve" smooth="yes"/>
      <point x="55" y="1"/>
      <point x="33" y="23"/>
      <point x="33" y="51" type="curve" smooth="yes"/>
      <point x="33" y="649" type="line" smooth="yes"/>
      <point x="33" y="677"/>
      <point x="55" y="699"/>
      <point x="83" y="699" type="curve" smooth="yes"/>
      <point x="84" y="699"/>
      <point x="84" y="699"/>
      <point x="85" y="699" type="curve" smooth="yes"/>
      <point x="86" y="699"/>
      <point x="86" y="699"/>
      <point x="87" y="699" type="curve" smooth="yes"/>
      <point x="432" y="699" type="line" smooth="yes"/>
      <point x="459" y="699"/>
      <point x="482" y="677"/>
      <point x="482" y="649" type="curve" smooth="yes"/>
      <point x="482" y="621"/>
      <point x="459" y="599"/>
      <point x="432" y="599" type="curve" smooth="yes"/>
      <point x="133" y="599" type="line"/>
      <point x="133" y="398" type="line"/>
      <point x="361" y="398" type="line" smooth="yes"/>
      <point x="388" y="398"/>
      <point x="411" y="376"/>
      <point x="411" y="348" type="curve" smooth="yes"/>
      <point x="411" y="320"/>
      <point x="388" y="298"/>
      <point x="361" y="298" type="curve" smooth="yes"/>
      <point x="133" y="298" type="line"/>
      <point x="133" y="101" type="line"/>
    </contour>
    <contour>
      <point x="155" y="802" type="curve" smooth="yes"/>
      <point x="142" y="802"/>
      <point x="130" y="807"/>
      <point x="120" y="817" type="curve" smooth="yes"/>
      <point x="111" y="826"/>
      <point x="106" y="839"/>
      <point x="106" y="852" type="curve" smooth="yes"/>
      <point x="106" y="865"/>
      <point x="111" y="877"/>
      <point x="120" y="887" type="curve" smooth="yes"/>
      <point x="130" y="896"/>
      <point x="142" y="901"/>
      <point x="155" y="901" type="curve" smooth="yes"/>
      <point x="168" y="901"/>
      <point x="181" y="896"/>
      <point x="190" y="887" type="curve" smooth="yes"/>
      <point x="200" y="877"/>
      <point x="205" y="865"/>
      <point x="205" y="852" type="curve" smooth="yes"/>
      <point x="205" y="839"/>
      <point x="200" y="826"/>
      <point x="190" y="817" type="curve" smooth="yes"/>
      <point x="181" y="807"/>
      <point x="168" y="802"/>
    </contour>
    <contour>
      <point x="353" y="802" type="curve" smooth="yes"/>
      <point x="340" y="802"/>
      <point x="328" y="807"/>
      <point x="318" y="817" type="curve" smooth="yes"/>
      <point x="309" y="826"/>
      <point x="304" y="839"/>
      <point x="304" y="852" type="curve" smooth="yes"/>
      <point x="304" y="865"/>
      <point x="309" y="877"/>
      <point x="318" y="887" type="curve" smooth="yes"/>
      <point x="328" y="896"/>
      <point x="340" y="901"/>
      <point x="353" y="901" type="curve" smooth="yes"/>
      <point x="366" y="901"/>
      <point x="379" y="896"/>
      <point x="388" y="887" type="curve" smooth="yes"/>
      <point x="398" y="877"/>
      <point x="403" y="865"/>
      <point x="403" y="852" type="curve" smooth="yes"/>
      <point x="403" y="839"/>
      <point x="398" y="826"/>
      <point x="388" y="817" type="curve" smooth="yes"/>
      <point x="379" y="807"/>
      <point x="366" y="802"/>
    </contour>
  </outline>
</glyph>
<glyph name="Igrave" format="2">
  <advance width="162"/>
  <unicode hex="00CC"/>
  <outline>
    <contour>
      <point x="81" y="-1" type="curve" smooth="yes"/>
      <point x="108" y="-1"/>
      <point x="130" y="21"/>
      <point x="130" y="49" type="curve" smooth="yes"/>
      <point x="130" y="653" type="line" smooth="yes"/>
      <point x="130" y="680"/>
      <point x="108" y="702"/>
      <point x="81" y="702" type="curve" smooth="yes"/>
      <point x="53" y="702"/>
      <point x="31" y="680"/>
      <point x="31" y="653" type="curve" smooth="yes"/>
      <point x="31" y="49" type="line" smooth="yes"/>
      <point x="31" y="21"/>
      <point x="53" y="-1"/>
    </contour>
    <contour>
      <point x="155" y="814" type="curve" smooth="yes"/>
      <point x="136" y="794"/>
      <point x="105" y="794"/>
      <point x="85" y="814" type="curve" smooth="yes"/>
      <point x="7" y="892" type="line" smooth="yes"/>
      <point x="-12" y="911"/>
      <point x="-12" y="942"/>
      <point x="7" y="962" type="curve" smooth="yes"/>
      <point x="26" y="981"/>
      <point x="58" y="981"/>
      <point x="77" y="962" type="curve" smooth="yes"/>
      <point x="155" y="884" type="line" smooth="yes"/>
      <point x="175" y="864"/>
      <point x="175" y="833"/>
    </contour>
  </outline>
</glyph>
<glyph name="Iacute" format="2">
  <advance width="162"/>
  <unicode hex="00CD"/>
  <outline>
    <contour>
      <point x="81" y="-1" type="curve" smooth="yes"/>
      <point x="53" y="-1"/>
      <point x="31" y="21"/>
      <point x="31" y="49" type="curve" smooth="yes"/>
      <point x="31" y="653" type="line" smooth="yes"/>
      <point x="31" y="680"/>
      <point x="53" y="702"/>
      <point x="81" y="702" type="curve" smooth="yes"/>
      <point x="108" y="702"/>
      <point x="130" y="680"/>
      <point x="130" y="653" type="curve" smooth="yes"/>
      <point x="130" y="49" type="line" smooth="yes"/>
      <point x="130" y="21"/>
      <point x="108" y="-1"/>
    </contour>
    <contour>
      <point x="8" y="814" type="curve" smooth="yes"/>
      <point x="-12" y="833"/>
      <point x="-12" y="864"/>
      <point x="8" y="884" type="curve" smooth="yes"/>
      <point x="86" y="962" type="line" smooth="yes"/>
      <point x="105" y="981"/>
      <point x="137" y="981"/>
      <point x="156" y="962" type="curve" smooth="yes"/>
      <point x="175" y="942"/>
      <point x="175" y="911"/>
      <point x="156" y="892" type="curve" smooth="yes"/>
      <point x="78" y="814" type="line" smooth="yes"/>
      <point x="58" y="794"/>
      <point x="27" y="794"/>
    </contour>
  </outline>
</glyph>
<glyph name="Icircumflex" format="2">
  <advance width="162"/>
  <unicode hex="00CE"/>
  <outline>
    <contour>
      <point x="81" y="-1" type="curve" smooth="yes"/>
      <point x="53" y="-1"/>
      <point x="31" y="21"/>
      <point x="31" y="49" type="curve" smooth="yes"/>
      <point x="31" y="653" type="line" smooth="yes"/>
      <point x="31" y="680"/>
      <point x="53" y="702"/>
      <point x="81" y="702" type="curve" smooth="yes"/>
      <point x="108" y="702"/>
      <point x="130" y="680"/>
      <point x="130" y="653" type="curve" smooth="yes"/>
      <point x="130" y="49" type="line" smooth="yes"/>
      <point x="130" y="21"/>
      <point x="108" y="-1"/>
    </contour>
    <contour>
      <point x="194" y="801" type="curve" smooth="yes"/>
      <point x="175" y="782"/>
      <point x="143" y="782"/>
      <point x="124" y="801" type="curve" smooth="yes"/>
      <point x="81" y="844" type="line"/>
      <point x="39" y="801" type="line" smooth="yes"/>
      <point x="20" y="782"/>
      <point x="-12" y="782"/>
      <point x="-31" y="801" type="curve" smooth="yes"/>
      <point x="-50" y="821"/>
      <point x="-50" y="852"/>
      <point x="-31" y="871" type="curve" smooth="yes"/>
      <point x="42" y="945"/>
      <point x="44" y="947"/>
      <point x="46" y="949" type="curve" smooth="yes"/>
      <point x="56" y="959"/>
      <point x="69" y="964"/>
      <point x="81" y="964" type="curve" smooth="yes"/>
      <point x="94" y="964"/>
      <point x="107" y="959"/>
      <point x="117" y="949" type="curve" smooth="yes"/>
      <point x="119" y="947"/>
      <point x="121" y="945"/>
      <point x="194" y="871" type="curve" smooth="yes"/>
      <point x="213" y="852"/>
      <point x="213" y="821"/>
    </contour>
  </outline>
</glyph>
<glyph name="Idieresis" format="2">
  <advance width="162"/>
  <unicode hex="00CF"/>
  <outline>
    <contour>
      <point x="81" y="-1" type="curve" smooth="yes"/>
      <point x="53" y="-1"/>
      <point x="31" y="21"/>
      <point x="31" y="49" type="curve" smooth="yes"/>
      <point x="31" y="653" type="line" smooth="yes"/>
      <point x="31" y="680"/>
      <point x="53" y="702"/>
      <point x="81" y="702" type="curve" smooth="yes"/>
      <point x="108" y="702"/>
      <point x="130" y="680"/>
      <point x="130" y="653" type="curve" smooth="yes"/>
      <point x="130" y="49" type="line" smooth="yes"/>
      <point x="130" y="21"/>
      <point x="108" y="-1"/>
    </contour>
    <contour>
      <point x="-18" y="802" type="curve" smooth="yes"/>
      <point x="-31" y="802"/>
      <point x="-43" y="807"/>
      <point x="-53" y="817" type="curve" smooth="yes"/>
      <point x="-62" y="826"/>
      <point x="-67" y="839"/>
      <point x="-67" y="852" type="curve" smooth="yes"/>
      <point x="-67" y="865"/>
      <point x="-62" y="877"/>
      <point x="-53" y="887" type="curve" smooth="yes"/>
      <point x="-43" y="896"/>
      <point x="-31" y="901"/>
      <point x="-18" y="901" type="curve" smooth="yes"/>
      <point x="-5" y="901"/>
      <point x="8" y="896"/>
      <point x="17" y="887" type="curve" smooth="yes"/>
      <point x="27" y="877"/>
      <point x="32" y="865"/>
      <point x="32" y="852" type="curve" smooth="yes"/>
      <point x="32" y="839"/>
      <point x="27" y="826"/>
      <point x="17" y="817" type="curve" smooth="yes"/>
      <point x="8" y="807"/>
      <point x="-5" y="802"/>
    </contour>
    <contour>
      <point x="180" y="802" type="curve" smooth="yes"/>
      <point x="167" y="802"/>
      <point x="155" y="807"/>
      <point x="145" y="817" type="curve" smooth="yes"/>
      <point x="136" y="826"/>
      <point x="131" y="839"/>
      <point x="131" y="852" type="curve" smooth="yes"/>
      <point x="131" y="865"/>
      <point x="136" y="877"/>
      <point x="145" y="887" type="curve" smooth="yes"/>
      <point x="155" y="896"/>
      <point x="167" y="901"/>
      <point x="180" y="901" type="curve" smooth="yes"/>
      <point x="193" y="901"/>
      <point x="206" y="896"/>
      <point x="215" y="887" type="curve" smooth="yes"/>
      <point x="225" y="877"/>
      <point x="230" y="865"/>
      <point x="230" y="852" type="curve" smooth="yes"/>
      <point x="230" y="839"/>
      <point x="225" y="826"/>
      <point x="215" y="817" type="curve" smooth="yes"/>
      <point x="206" y="807"/>
      <point x="193" y="802"/>
    </contour>
  </outline>
</glyph>
<glyph name="Ntilde" format="2">
  <advance width="578"/>
  <unicode hex="00D1"/>
  <outline>
    <contour>
      <point x="548" y="55" type="line" smooth="yes"/>
      <point x="551" y="36"/>
      <point x="543" y="17"/>
      <point x="526" y="6" type="curve" smooth="yes"/>
      <point x="518" y="0"/>
      <point x="508" y="-2"/>
      <point x="499" y="-2" type="curve" smooth="yes"/>
      <point x="483" y="-2"/>
      <point x="467" y="6"/>
      <point x="457" y="21" type="curve" smooth="yes"/>
      <point x="130" y="491" type="line"/>
      <point x="130" y="47" type="line" smooth="yes"/>
      <point x="130" y="20"/>
      <point x="108" y="-2"/>
      <point x="81" y="-2" type="curve" smooth="yes"/>
      <point x="54" y="-2"/>
      <point x="31" y="20"/>
      <point x="31" y="47" type="curve" smooth="yes"/>
      <point x="31" y="648" type="line" smooth="yes"/>
      <point x="29" y="667"/>
      <point x="37" y="686"/>
      <point x="54" y="697" type="curve" smooth="yes"/>
      <point x="77" y="712"/>
      <point x="108" y="706"/>
      <point x="123" y="682" type="curve" smooth="yes"/>
      <point x="449" y="198" type="line"/>
      <point x="449" y="655" type="line" smooth="yes"/>
      <point x="449" y="683"/>
      <point x="472" y="705"/>
      <point x="499" y="705" type="curve" smooth="yes"/>
      <point x="526" y="705"/>
      <point x="548" y="683"/>
      <point x="548" y="655" type="curve" smooth="yes"/>
    </contour>
    <contour>
      <point x="435" y="888" type="line" smooth="yes"/>
      <point x="443" y="879"/>
      <point x="449" y="867"/>
      <point x="449" y="854" type="curve" smooth="yes"/>
      <point x="449" y="827"/>
      <point x="427" y="805"/>
      <point x="400" y="805" type="curve" smooth="yes"/>
      <point x="390" y="805"/>
      <point x="381" y="808"/>
      <point x="374" y="812" type="curve" smooth="yes"/>
      <point x="371" y="814"/>
      <point x="368" y="816"/>
      <point x="366" y="818" type="curve" smooth="yes"/>
      <point x="365" y="819"/>
      <point x="364" y="820"/>
      <point x="363" y="821" type="curve" smooth="yes"/>
      <point x="363" y="821"/>
      <point x="363" y="822"/>
      <point x="362" y="822" type="curve" smooth="yes"/>
      <point x="358" y="826"/>
      <point x="354" y="830"/>
      <point x="351" y="834" type="curve" smooth="yes"/>
      <point x="340" y="845"/>
      <point x="339" y="845"/>
      <point x="336" y="845" type="curve" smooth="yes"/>
      <point x="333" y="845"/>
      <point x="332" y="845"/>
      <point x="322" y="834" type="curve" smooth="yes"/>
      <point x="307" y="818"/>
      <point x="282" y="791"/>
      <point x="235" y="791" type="curve" smooth="yes"/>
      <point x="189" y="791"/>
      <point x="164" y="818"/>
      <point x="149" y="834" type="curve" smooth="yes"/>
      <point x="147" y="836"/>
      <point x="146" y="837"/>
      <point x="144" y="839" type="curve" smooth="yes"/>
      <point x="143" y="840"/>
      <point x="143" y="840"/>
      <point x="142" y="841" type="curve" smooth="yes"/>
      <point x="134" y="850"/>
      <point x="129" y="861"/>
      <point x="129" y="874" type="curve" smooth="yes"/>
      <point x="129" y="901"/>
      <point x="151" y="923"/>
      <point x="178" y="923" type="curve" smooth="yes"/>
      <point x="191" y="923"/>
      <point x="203" y="918"/>
      <point x="212" y="909" type="curve" smooth="yes"/>
      <point x="213" y="909"/>
      <point x="213" y="909"/>
      <point x="213" y="908" type="curve" smooth="yes"/>
      <point x="216" y="905"/>
      <point x="219" y="903"/>
      <point x="221" y="900" type="curve" smooth="yes"/>
      <point x="232" y="889"/>
      <point x="232" y="889"/>
      <point x="235" y="889" type="curve" smooth="yes"/>
      <point x="238" y="889"/>
      <point x="239" y="889"/>
      <point x="250" y="900" type="curve" smooth="yes"/>
      <point x="265" y="916"/>
      <point x="290" y="943"/>
      <point x="336" y="943" type="curve" smooth="yes"/>
      <point x="383" y="943"/>
      <point x="408" y="916"/>
      <point x="423" y="900" type="curve" smooth="yes"/>
    </contour>
  </outline>
</glyph>
